<ttFont>
<head>
    <!-- Most of this table will be recalculated by the compiler -->
    <tableVersion value="1.0"/>
    <fontRevision value="1.106"/>
    <checkSumAdjustment value="0x325785c9"/>
    <magicNumber value="0x5f0f3cf5"/>
    <flags value="00000000 00000001"/>
    <unitsPerEm value="1000"/>
    <created value="Mon Sep 16 15:14:55 2019"/>
    <modified value="Mon Sep 16 15:22:46 2019"/>
    <xMin value="-283"/>
    <yMin value="-318"/>
    <xMax value="1971"/>
    <yMax value="1327"/>
    <macStyle value="00000000 00000010"/>
    <lowestRecPPEM value="6"/>
    <fontDirectionHint value="2"/>
    <indexToLocFormat value="0"/>
    <glyphDataFormat value="0"/>
  </head>
    <TTGlyph name=".notdef" xMin="113" yMin="-200" xMax="613" yMax="800">
      <contour>
        <pt x="113" y="-200" on="1"/>
        <pt x="113" y="800" on="1"/>
        <pt x="613" y="800" on="1"/>
        <pt x="613" y="-200" on="1"/>
      </contour>
      <contour>
        <pt x="184" y="750" on="1"/>
        <pt x="363" y="360" on="1"/>
        <pt x="542" y="750" on="1"/>
      </contour>
      <contour>
        <pt x="163" y="-76" on="1"/>
        <pt x="335" y="300" on="1"/>
        <pt x="163" y="676" on="1"/>
      </contour>
      <contour>
        <pt x="563" y="676" on="1"/>
        <pt x="391" y="300" on="1"/>
        <pt x="563" y="-76" on="1"/>
      </contour>
      <contour>
        <pt x="363" y="240" on="1"/>
        <pt x="184" y="-150" on="1"/>
        <pt x="542" y="-150" on="1"/>
      </contour>
    </TTGlyph>
    <TTGlyph name="A" xMin="-43" yMin="0" xMax="759" yMax="700">
      <contour>
        <pt x="-43" y="0" on="1"/>
        <pt x="318" y="700" on="1"/>
        <pt x="696" y="700" on="1"/>
        <pt x="759" y="0" on="1"/>
        <pt x="523" y="0" on="1"/>
        <pt x="512" y="136" on="1"/>
        <pt x="272" y="136" on="1"/>
        <pt x="203" y="0" on="1"/>
      </contour>
      <contour>
        <pt x="454" y="510" on="1"/>
        <pt x="350" y="299" on="1"/>
        <pt x="505" y="299" on="1"/>
        <pt x="493" y="510" on="1"/>
      </contour>
    </TTGlyph>
    <TTGlyph name="A.sc" xMin="-33" yMin="0" xMax="689" yMax="606">
      <component glyphName="a.sc" x="0" y="0" flags="0x204"/>
    </TTGlyph>
    <TTGlyph name="AE" xMin="-65" yMin="0" xMax="1222" yMax="700">
      <contour>
        <pt x="839" y="519" on="1"/>
        <pt x="820" y="432" on="1"/>
        <pt x="1105" y="432" on="1"/>
        <pt x="1071" y="275" on="1"/>
        <pt x="786" y="275" on="1"/>
        <pt x="766" y="181" on="1"/>
        <pt x="1146" y="181" on="1"/>
        <pt x="1092" y="0" on="1"/>
        <pt x="497" y="0" on="1"/>
        <pt x="526" y="136" on="1"/>
        <pt x="297" y="136" on="1"/>
        <pt x="203" y="0" on="1"/>
        <pt x="-65" y="0" on="1"/>
        <pt x="434" y="700" on="1"/>
        <pt x="1222" y="700" on="1"/>
        <pt x="1205" y="519" on="1"/>
      </contour>
      <contour>
        <pt x="558" y="514" on="1"/>
        <pt x="410" y="299" on="1"/>
        <pt x="561" y="299" on="1"/>
        <pt x="606" y="514" on="1"/>
      </contour>
    </TTGlyph>
    <TTGlyph name="AE.sc" xMin="-63" yMin="0" xMax="1073" yMax="605">
      <component glyphName="ae.sc" x="0" y="0" flags="0x204"/>
    </TTGlyph>
    <TTGlyph name="AEacute" xMin="-65" yMin="0" xMax="1222" yMax="953">
      <component glyphName="AE" x="0" y="0" flags="0x4"/>
      <component glyphName="acute" x="505" y="141" flags="0x4"/>
    </TTGlyph>
    <TTGlyph name="AEacute.sc" xMin="-63" yMin="0" xMax="1073" yMax="859">
      <component glyphName="aeacute.sc" x="0" y="0" flags="0x204"/>
    </TTGlyph>
    <TTGlyph name="Aacute" xMin="-43" yMin="0" xMax="815" yMax="953">
      <component glyphName="A" x="0" y="0" flags="0x204"/>
      <component glyphName="acute" x="240" y="141" flags="0x4"/>
    </TTGlyph>
    <TTGlyph name="Aacute.sc" xMin="-33" yMin="0" xMax="758" yMax="859">
      <component glyphName="aacute.sc" x="0" y="0" flags="0x204"/>
    </TTGlyph>
    <TTGlyph name="Abreve" xMin="-43" yMin="0" xMax="779" yMax="986">
      <component glyphName="A" x="0" y="0" flags="0x204"/>
      <component glyphName="breve" x="203" y="141" flags="0x4"/>
    </TTGlyph>
    <TTGlyph name="Abreve.sc" xMin="-33" yMin="0" xMax="721" yMax="892">
      <component glyphName="abreve.sc" x="0" y="0" flags="0x204"/>
    </TTGlyph>
    <TTGlyph name="Acircumflex" xMin="-43" yMin="0" xMax="768" yMax="971">
      <component glyphName="A" x="0" y="0" flags="0x204"/>
      <component glyphName="circumflex" x="192" y="141" flags="0x4"/>
    </TTGlyph>
    <TTGlyph name="Acircumflex.sc" xMin="-33" yMin="0" xMax="710" yMax="877">
      <component glyphName="acircumflex.sc" x="0" y="0" flags="0x204"/>
    </TTGlyph>
    <TTGlyph name="Adieresis" xMin="-43" yMin="0" xMax="805" yMax="965">
      <component glyphName="A" x="0" y="0" flags="0x204"/>
      <component glyphName="dieresis" x="215" y="141" flags="0x4"/>
    </TTGlyph>
    <TTGlyph name="Adieresis.sc" xMin="-33" yMin="0" xMax="747" yMax="871">
      <component glyphName="adieresis.sc" x="0" y="0" flags="0x204"/>
    </TTGlyph>
    <TTGlyph name="Agrave" xMin="-43" yMin="0" xMax="759" yMax="956">
      <component glyphName="A" x="0" y="0" flags="0x204"/>
      <component glyphName="grave" x="135" y="141" flags="0x4"/>
    </TTGlyph>
    <TTGlyph name="Agrave.sc" xMin="-33" yMin="0" xMax="689" yMax="862">
      <component glyphName="agrave.sc" x="0" y="0" flags="0x204"/>
    </TTGlyph>
    <TTGlyph name="Amacron" xMin="-43" yMin="0" xMax="772" yMax="933">
      <component glyphName="A" x="0" y="0" flags="0x204"/>
      <component glyphName="macron" x="201" y="141" flags="0x4"/>
    </TTGlyph>
    <TTGlyph name="Amacron.sc" xMin="-33" yMin="0" xMax="714" yMax="839">
      <component glyphName="amacron.sc" x="0" y="0" flags="0x204"/>
    </TTGlyph>
    <TTGlyph name="Aogonek" xMin="-43" yMin="-317" xMax="759" yMax="700">
      <contour>
        <pt x="-43" y="0" on="1"/>
        <pt x="318" y="700" on="1"/>
        <pt x="696" y="700" on="1"/>
        <pt x="759" y="0" on="1"/>
        <pt x="699" y="-48" on="1"/>
        <pt x="652" y="-85" on="0"/>
        <pt x="612" y="-127" on="0"/>
        <pt x="612" y="-143" on="1"/>
        <pt x="612" y="-156" on="0"/>
        <pt x="636" y="-170" on="0"/>
        <pt x="664" y="-170" on="1"/>
        <pt x="684" y="-170" on="0"/>
        <pt x="724" y="-162" on="0"/>
        <pt x="749" y="-154" on="1"/>
        <pt x="719" y="-295" on="1"/>
        <pt x="690" y="-306" on="0"/>
        <pt x="627" y="-317" on="0"/>
        <pt x="587" y="-317" on="1"/>
        <pt x="496" y="-317" on="0"/>
        <pt x="416" y="-248" on="0"/>
        <pt x="416" y="-206" on="1"/>
        <pt x="416" y="-153" on="0"/>
        <pt x="504" y="-52" on="0"/>
        <pt x="609" y="0" on="1"/>
        <pt x="523" y="0" on="1"/>
        <pt x="512" y="136" on="1"/>
        <pt x="272" y="136" on="1"/>
        <pt x="203" y="0" on="1"/>
      </contour>
      <contour>
        <pt x="454" y="510" on="1"/>
        <pt x="350" y="299" on="1"/>
        <pt x="505" y="299" on="1"/>
        <pt x="493" y="510" on="1"/>
      </contour>
    </TTGlyph>
    <TTGlyph name="Aogonek.sc" xMin="-33" yMin="-317" xMax="689" yMax="606">
      <component glyphName="aogonek.sc" x="0" y="0" flags="0x204"/>
    </TTGlyph>
    <TTGlyph name="Aring" xMin="-43" yMin="0" xMax="759" yMax="1091">
      <component glyphName="A" x="0" y="0" flags="0x204"/>
      <component glyphName="ring" x="131" y="141" flags="0x4"/>
    </TTGlyph>
    <TTGlyph name="Aring.sc" xMin="-33" yMin="0" xMax="689" yMax="997">
      <component glyphName="aring.sc" x="0" y="0" flags="0x204"/>
    </TTGlyph>
    <TTGlyph name="Aringacute" xMin="-43" yMin="0" xMax="895" yMax="1327">
      <component glyphName="A" x="0" y="0" flags="0x204"/>
      <component glyphName="ring" x="131" y="141" flags="0x4"/>
      <component glyphName="acute" x="320" y="515" flags="0x4"/>
    </TTGlyph>
    <TTGlyph name="Aringacute.sc" xMin="-33" yMin="0" xMax="837" yMax="1233">
      <component glyphName="aringacute.sc" x="0" y="0" flags="0x204"/>
    </TTGlyph>
    <TTGlyph name="Atilde" xMin="-43" yMin="0" xMax="776" yMax="975">
      <component glyphName="A" x="0" y="0" flags="0x204"/>
      <component glyphName="tilde" x="192" y="141" flags="0x4"/>
    </TTGlyph>
    <TTGlyph name="Atilde.sc" xMin="-33" yMin="0" xMax="718" yMax="881">
      <component glyphName="atilde.sc" x="0" y="0" flags="0x204"/>
    </TTGlyph>
    <TTGlyph name="B" xMin="16" yMin="0" xMax="780" yMax="700">
      <contour>
        <pt x="16" y="0" on="1"/>
        <pt x="165" y="700" on="1"/>
        <pt x="519" y="700" on="1"/>
        <pt x="662" y="700" on="0"/>
        <pt x="780" y="609" on="0"/>
        <pt x="780" y="533" on="1"/>
        <pt x="780" y="470" on="0"/>
        <pt x="706" y="385" on="0"/>
        <pt x="640" y="363" on="1"/>
        <pt x="686" y="345" on="0"/>
        <pt x="740" y="271" on="0"/>
        <pt x="740" y="219" on="1"/>
        <pt x="740" y="122" on="0"/>
        <pt x="584" y="0" on="0"/>
        <pt x="412" y="0" on="1"/>
      </contour>
      <contour>
        <pt x="336" y="419" on="1"/>
        <pt x="469" y="419" on="1"/>
        <pt x="512" y="419" on="0"/>
        <pt x="555" y="459" on="0"/>
        <pt x="555" y="487" on="1"/>
        <pt x="555" y="511" on="0"/>
        <pt x="523" y="536" on="0"/>
        <pt x="491" y="536" on="1"/>
        <pt x="361" y="536" on="1"/>
      </contour>
      <contour>
        <pt x="308" y="289" on="1"/>
        <pt x="282" y="165" on="1"/>
        <pt x="424" y="165" on="1"/>
        <pt x="471" y="165" on="0"/>
        <pt x="515" y="207" on="0"/>
        <pt x="515" y="238" on="1"/>
        <pt x="515" y="262" on="0"/>
        <pt x="483" y="289" on="0"/>
        <pt x="448" y="289" on="1"/>
      </contour>
    </TTGlyph>
    <TTGlyph name="B.sc" xMin="14" yMin="0" xMax="717" yMax="605">
      <component glyphName="b.sc" x="0" y="0" flags="0x204"/>
    </TTGlyph>
    <TTGlyph name="C" xMin="50" yMin="-19" xMax="742" yMax="719">
      <contour>
        <pt x="474" y="719" on="1"/>
        <pt x="560" y="719" on="0"/>
        <pt x="702" y="670" on="0"/>
        <pt x="742" y="638" on="1"/>
        <pt x="701" y="444" on="1"/>
        <pt x="699" y="444" on="1"/>
        <pt x="656" y="478" on="0"/>
        <pt x="548" y="524" on="0"/>
        <pt x="486" y="524" on="1"/>
        <pt x="435" y="524" on="0"/>
        <pt x="356" y="492" on="0"/>
        <pt x="304" y="437" on="0"/>
        <pt x="278" y="363" on="0"/>
        <pt x="278" y="322" on="1"/>
        <pt x="278" y="253" on="0"/>
        <pt x="371" y="176" on="0"/>
        <pt x="452" y="176" on="1"/>
        <pt x="506" y="176" on="0"/>
        <pt x="614" y="206" on="0"/>
        <pt x="657" y="225" on="1"/>
        <pt x="659" y="225" on="1"/>
        <pt x="617" y="27" on="1"/>
        <pt x="585" y="8" on="0"/>
        <pt x="472" y="-19" on="0"/>
        <pt x="408" y="-19" on="1"/>
        <pt x="329" y="-19" on="0"/>
        <pt x="197" y="22" on="0"/>
        <pt x="102" y="103" on="0"/>
        <pt x="50" y="223" on="0"/>
        <pt x="50" y="302" on="1"/>
        <pt x="50" y="390" on="0"/>
        <pt x="112" y="544" on="0"/>
        <pt x="223" y="655" on="0"/>
        <pt x="380" y="719" on="0"/>
      </contour>
    </TTGlyph>
    <TTGlyph name="C.sc" xMin="44" yMin="-18" xMax="661" yMax="623">
      <component glyphName="c.sc" x="0" y="0" flags="0x204"/>
    </TTGlyph>
    <TTGlyph name="Cacute" xMin="50" yMin="-19" xMax="794" yMax="972">
      <component glyphName="C" x="0" y="0" flags="0x204"/>
      <component glyphName="acute" x="219" y="160" flags="0x4"/>
    </TTGlyph>
    <TTGlyph name="Cacute.sc" xMin="44" yMin="-18" xMax="742" yMax="877">
      <component glyphName="cacute.sc" x="0" y="0" flags="0x204"/>
    </TTGlyph>
    <TTGlyph name="Ccaron" xMin="50" yMin="-19" xMax="808" yMax="990">
      <component glyphName="C" x="0" y="0" flags="0x204"/>
      <component glyphName="caron" x="190" y="160" flags="0x4"/>
    </TTGlyph>
    <TTGlyph name="Ccaron.sc" xMin="44" yMin="-18" xMax="756" yMax="895">
      <component glyphName="ccaron.sc" x="0" y="0" flags="0x204"/>
    </TTGlyph>
    <TTGlyph name="Ccedilla" xMin="50" yMin="-200" xMax="742" yMax="719">
      <contour>
        <pt x="474" y="719" on="1"/>
        <pt x="560" y="719" on="0"/>
        <pt x="702" y="670" on="0"/>
        <pt x="742" y="638" on="1"/>
        <pt x="701" y="444" on="1"/>
        <pt x="699" y="444" on="1"/>
        <pt x="656" y="478" on="0"/>
        <pt x="548" y="524" on="0"/>
        <pt x="486" y="524" on="1"/>
        <pt x="435" y="524" on="0"/>
        <pt x="356" y="492" on="0"/>
        <pt x="304" y="437" on="0"/>
        <pt x="278" y="363" on="0"/>
        <pt x="278" y="322" on="1"/>
        <pt x="278" y="253" on="0"/>
        <pt x="371" y="176" on="0"/>
        <pt x="452" y="176" on="1"/>
        <pt x="506" y="176" on="0"/>
        <pt x="614" y="206" on="0"/>
        <pt x="657" y="225" on="1"/>
        <pt x="659" y="225" on="1"/>
        <pt x="617" y="27" on="1"/>
        <pt x="588" y="10" on="0"/>
        <pt x="489" y="-16" on="0"/>
        <pt x="432" y="-18" on="1"/>
        <pt x="318" y="-200" on="1"/>
        <pt x="75" y="-200" on="1"/>
        <pt x="80" y="-178" on="1"/>
        <pt x="272" y="-3" on="1"/>
        <pt x="278" y="-3" on="1"/>
        <pt x="174" y="25" on="0"/>
        <pt x="50" y="180" on="0"/>
        <pt x="50" y="302" on="1"/>
        <pt x="50" y="390" on="0"/>
        <pt x="112" y="544" on="0"/>
        <pt x="223" y="655" on="0"/>
        <pt x="380" y="719" on="0"/>
      </contour>
    </TTGlyph>
    <TTGlyph name="Ccedilla.sc" xMin="35" yMin="-199" xMax="661" yMax="623">
      <component glyphName="ccedilla.sc" x="0" y="0" flags="0x204"/>
    </TTGlyph>
    <TTGlyph name="Cdotaccent" xMin="50" yMin="-19" xMax="742" yMax="987">
      <component glyphName="C" x="0" y="0" flags="0x204"/>
      <component glyphName="dotaccent" x="185" y="160" flags="0x4"/>
    </TTGlyph>
    <TTGlyph name="Cdotaccent.sc" xMin="44" yMin="-18" xMax="661" yMax="892">
      <component glyphName="cdotaccent.sc" x="0" y="0" flags="0x204"/>
    </TTGlyph>
    <TTGlyph name="D" xMin="16" yMin="0" xMax="805" yMax="700">
      <contour>
        <pt x="16" y="0" on="1"/>
        <pt x="165" y="700" on="1"/>
        <pt x="432" y="700" on="1"/>
        <pt x="540" y="700" on="0"/>
        <pt x="685" y="652" on="0"/>
        <pt x="770" y="571" on="0"/>
        <pt x="805" y="464" on="0"/>
        <pt x="805" y="407" on="1"/>
        <pt x="805" y="338" on="0"/>
        <pt x="760" y="193" on="0"/>
        <pt x="656" y="75" on="0"/>
        <pt x="482" y="0" on="0"/>
        <pt x="355" y="0" on="1"/>
      </contour>
      <contour>
        <pt x="572" y="390" on="1"/>
        <pt x="572" y="447" on="0"/>
        <pt x="506" y="514" on="0"/>
        <pt x="427" y="514" on="1"/>
        <pt x="358" y="514" on="1"/>
        <pt x="288" y="186" on="1"/>
        <pt x="372" y="186" on="1"/>
        <pt x="422" y="186" on="0"/>
        <pt x="497" y="219" on="0"/>
        <pt x="547" y="274" on="0"/>
        <pt x="572" y="349" on="0"/>
      </contour>
    </TTGlyph>
    <TTGlyph name="D.sc" xMin="14" yMin="0" xMax="733" yMax="605">
      <component glyphName="d.sc" x="0" y="0" flags="0x204"/>
    </TTGlyph>
    <TTGlyph name="Dcaron" xMin="16" yMin="0" xMax="811" yMax="971">
      <component glyphName="D" x="0" y="0" flags="0x204"/>
      <component glyphName="caron" x="193" y="141" flags="0x4"/>
    </TTGlyph>
    <TTGlyph name="Dcaron.sc" xMin="14" yMin="0" xMax="762" yMax="877">
      <component glyphName="dcaron.sc" x="0" y="0" flags="0x204"/>
    </TTGlyph>
    <TTGlyph name="Dcroat" xMin="28" yMin="0" xMax="859" yMax="700">
      <component glyphName="Eth" x="0" y="0" flags="0x204"/>
    </TTGlyph>
    <TTGlyph name="Dcroat.sc" xMin="13" yMin="0" xMax="778" yMax="605">
      <component glyphName="dcroat.sc" x="0" y="0" flags="0x204"/>
    </TTGlyph>
    <TTGlyph name="E" xMin="16" yMin="0" xMax="741" yMax="700">
      <contour>
        <pt x="358" y="519" on="1"/>
        <pt x="339" y="432" on="1"/>
        <pt x="624" y="432" on="1"/>
        <pt x="590" y="275" on="1"/>
        <pt x="305" y="275" on="1"/>
        <pt x="285" y="181" on="1"/>
        <pt x="665" y="181" on="1"/>
        <pt x="610" y="0" on="1"/>
        <pt x="16" y="0" on="1"/>
        <pt x="165" y="700" on="1"/>
        <pt x="741" y="700" on="1"/>
        <pt x="724" y="519" on="1"/>
      </contour>
    </TTGlyph>
    <TTGlyph name="E.sc" xMin="14" yMin="0" xMax="659" yMax="605">
      <component glyphName="e.sc" x="0" y="0" flags="0x204"/>
    </TTGlyph>
    <TTGlyph name="Eacute" xMin="16" yMin="0" xMax="764" yMax="953">
      <component glyphName="E" x="0" y="0" flags="0x204"/>
      <component glyphName="acute" x="189" y="141" flags="0x4"/>
    </TTGlyph>
    <TTGlyph name="Eacute.sc" xMin="14" yMin="0" xMax="700" yMax="859">
      <component glyphName="eacute.sc" x="0" y="0" flags="0x204"/>
    </TTGlyph>
    <TTGlyph name="Ebreve" xMin="16" yMin="0" xMax="741" yMax="986">
      <component glyphName="E" x="0" y="0" flags="0x204"/>
      <component glyphName="breve" x="152" y="141" flags="0x4"/>
    </TTGlyph>
    <TTGlyph name="Ebreve.sc" xMin="14" yMin="0" xMax="663" yMax="892">
      <component glyphName="ebreve.sc" x="0" y="0" flags="0x204"/>
    </TTGlyph>
    <TTGlyph name="Ecaron" xMin="16" yMin="0" xMax="778" yMax="971">
      <component glyphName="E" x="0" y="0" flags="0x204"/>
      <component glyphName="caron" x="160" y="141" flags="0x4"/>
    </TTGlyph>
    <TTGlyph name="Ecaron.sc" xMin="14" yMin="0" xMax="714" yMax="877">
      <component glyphName="ecaron.sc" x="0" y="0" flags="0x204"/>
    </TTGlyph>
    <TTGlyph name="Ecircumflex" xMin="16" yMin="0" xMax="741" yMax="971">
      <component glyphName="E" x="0" y="0" flags="0x204"/>
      <component glyphName="circumflex" x="141" y="141" flags="0x4"/>
    </TTGlyph>
    <TTGlyph name="Ecircumflex.sc" xMin="14" yMin="0" xMax="659" yMax="877">
      <component glyphName="ecircumflex.sc" x="0" y="0" flags="0x204"/>
    </TTGlyph>
    <TTGlyph name="Edieresis" xMin="16" yMin="0" xMax="754" yMax="965">
      <component glyphName="E" x="0" y="0" flags="0x204"/>
      <component glyphName="dieresis" x="164" y="141" flags="0x4"/>
    </TTGlyph>
    <TTGlyph name="Edieresis.sc" xMin="14" yMin="0" xMax="689" yMax="871">
      <component glyphName="edieresis.sc" x="0" y="0" flags="0x204"/>
    </TTGlyph>
    <TTGlyph name="Edotaccent" xMin="16" yMin="0" xMax="741" yMax="968">
      <component glyphName="E" x="0" y="0" flags="0x204"/>
      <component glyphName="dotaccent" x="155" y="141" flags="0x4"/>
    </TTGlyph>
    <TTGlyph name="Edotaccent.sc" xMin="14" yMin="0" xMax="659" yMax="874">
      <component glyphName="edotaccent.sc" x="0" y="0" flags="0x204"/>
    </TTGlyph>
    <TTGlyph name="Egrave" xMin="16" yMin="0" xMax="741" yMax="956">
      <component glyphName="E" x="0" y="0" flags="0x204"/>
      <component glyphName="grave" x="83" y="141" flags="0x4"/>
    </TTGlyph>
    <TTGlyph name="Egrave.sc" xMin="14" yMin="0" xMax="659" yMax="862">
      <component glyphName="egrave.sc" x="0" y="0" flags="0x204"/>
    </TTGlyph>
    <TTGlyph name="Emacron" xMin="16" yMin="0" xMax="741" yMax="933">
      <component glyphName="E" x="0" y="0" flags="0x204"/>
      <component glyphName="macron" x="150" y="141" flags="0x4"/>
    </TTGlyph>
    <TTGlyph name="Emacron.sc" xMin="14" yMin="0" xMax="659" yMax="839">
      <component glyphName="emacron.sc" x="0" y="0" flags="0x204"/>
    </TTGlyph>
    <TTGlyph name="Eogonek" xMin="16" yMin="-317" xMax="741" yMax="700">
      <contour>
        <pt x="358" y="519" on="1"/>
        <pt x="339" y="432" on="1"/>
        <pt x="624" y="432" on="1"/>
        <pt x="590" y="275" on="1"/>
        <pt x="305" y="275" on="1"/>
        <pt x="285" y="181" on="1"/>
        <pt x="665" y="181" on="1"/>
        <pt x="610" y="0" on="1"/>
        <pt x="550" y="-48" on="1"/>
        <pt x="503" y="-85" on="0"/>
        <pt x="463" y="-127" on="0"/>
        <pt x="463" y="-143" on="1"/>
        <pt x="463" y="-156" on="0"/>
        <pt x="487" y="-170" on="0"/>
        <pt x="515" y="-170" on="1"/>
        <pt x="535" y="-170" on="0"/>
        <pt x="575" y="-162" on="0"/>
        <pt x="600" y="-154" on="1"/>
        <pt x="570" y="-295" on="1"/>
        <pt x="541" y="-306" on="0"/>
        <pt x="478" y="-317" on="0"/>
        <pt x="438" y="-317" on="1"/>
        <pt x="347" y="-317" on="0"/>
        <pt x="267" y="-248" on="0"/>
        <pt x="267" y="-206" on="1"/>
        <pt x="267" y="-153" on="0"/>
        <pt x="355" y="-52" on="0"/>
        <pt x="460" y="0" on="1"/>
        <pt x="16" y="0" on="1"/>
        <pt x="165" y="700" on="1"/>
        <pt x="741" y="700" on="1"/>
        <pt x="724" y="519" on="1"/>
      </contour>
    </TTGlyph>
    <TTGlyph name="Eogonek.sc" xMin="14" yMin="-317" xMax="659" yMax="605">
      <component glyphName="eogonek.sc" x="0" y="0" flags="0x204"/>
    </TTGlyph>
    <TTGlyph name="Eth" xMin="28" yMin="0" xMax="859" yMax="700">
      <contour>
        <pt x="70" y="0" on="1"/>
        <pt x="128" y="273" on="1"/>
        <pt x="28" y="273" on="1"/>
        <pt x="75" y="429" on="1"/>
        <pt x="161" y="429" on="1"/>
        <pt x="219" y="700" on="1"/>
        <pt x="487" y="700" on="1"/>
        <pt x="595" y="700" on="0"/>
        <pt x="739" y="652" on="0"/>
        <pt x="824" y="571" on="0"/>
        <pt x="859" y="464" on="0"/>
        <pt x="859" y="407" on="1"/>
        <pt x="859" y="338" on="0"/>
        <pt x="814" y="193" on="0"/>
        <pt x="710" y="75" on="0"/>
        <pt x="537" y="0" on="0"/>
        <pt x="410" y="0" on="1"/>
      </contour>
      <contour>
        <pt x="629" y="388" on="1"/>
        <pt x="629" y="448" on="0"/>
        <pt x="562" y="515" on="0"/>
        <pt x="475" y="515" on="1"/>
        <pt x="411" y="515" on="1"/>
        <pt x="391" y="420" on="1"/>
        <pt x="529" y="420" on="1"/>
        <pt x="500" y="282" on="1"/>
        <pt x="362" y="282" on="1"/>
        <pt x="341" y="185" on="1"/>
        <pt x="424" y="185" on="1"/>
        <pt x="483" y="185" on="0"/>
        <pt x="562" y="221" on="0"/>
        <pt x="609" y="279" on="0"/>
        <pt x="629" y="352" on="0"/>
      </contour>
    </TTGlyph>
    <TTGlyph name="Eth.sc" xMin="13" yMin="0" xMax="778" yMax="605">
      <component glyphName="eth.sc" x="0" y="0" flags="0x204"/>
    </TTGlyph>
    <TTGlyph name="Euro" xMin="22" yMin="-21" xMax="784" yMax="721">
      <contour>
        <pt x="22" y="200" on="1"/>
        <pt x="56" y="325" on="1"/>
        <pt x="144" y="325" on="1"/>
        <pt x="145" y="339" on="0"/>
        <pt x="148" y="368" on="0"/>
        <pt x="150" y="381" on="1"/>
        <pt x="71" y="381" on="1"/>
        <pt x="105" y="506" on="1"/>
        <pt x="192" y="506" on="1"/>
        <pt x="243" y="605" on="0"/>
        <pt x="439" y="721" on="0"/>
        <pt x="564" y="721" on="1"/>
        <pt x="639" y="721" on="0"/>
        <pt x="752" y="683" on="0"/>
        <pt x="784" y="660" on="1"/>
        <pt x="748" y="496" on="1"/>
        <pt x="747" y="496" on="1"/>
        <pt x="710" y="520" on="0"/>
        <pt x="620" y="554" on="0"/>
        <pt x="569" y="554" on="1"/>
        <pt x="513" y="554" on="0"/>
        <pt x="432" y="515" on="0"/>
        <pt x="405" y="483" on="1"/>
        <pt x="621" y="483" on="1"/>
        <pt x="599" y="381" on="1"/>
        <pt x="357" y="381" on="1"/>
        <pt x="354" y="368" on="0"/>
        <pt x="350" y="339" on="0"/>
        <pt x="349" y="325" on="1"/>
        <pt x="588" y="325" on="1"/>
        <pt x="566" y="223" on="1"/>
        <pt x="363" y="223" on="1"/>
        <pt x="383" y="180" on="0"/>
        <pt x="468" y="146" on="0"/>
        <pt x="521" y="146" on="1"/>
        <pt x="568" y="146" on="0"/>
        <pt x="649" y="166" on="0"/>
        <pt x="685" y="179" on="1"/>
        <pt x="687" y="179" on="1"/>
        <pt x="650" y="11" on="1"/>
        <pt x="623" y="-2" on="0"/>
        <pt x="532" y="-21" on="0"/>
        <pt x="481" y="-21" on="1"/>
        <pt x="355" y="-21" on="0"/>
        <pt x="180" y="91" on="0"/>
        <pt x="154" y="200" on="1"/>
      </contour>
    </TTGlyph>
    <TTGlyph name="Euro.tab" xMin="10" yMin="-21" xMax="749" yMax="721">
      <contour>
        <pt x="10" y="200" on="1"/>
        <pt x="44" y="325" on="1"/>
        <pt x="132" y="325" on="1"/>
        <pt x="133" y="339" on="0"/>
        <pt x="136" y="368" on="0"/>
        <pt x="138" y="381" on="1"/>
        <pt x="59" y="381" on="1"/>
        <pt x="93" y="506" on="1"/>
        <pt x="179" y="506" on="1"/>
        <pt x="228" y="605" on="0"/>
        <pt x="418" y="721" on="0"/>
        <pt x="540" y="721" on="1"/>
        <pt x="612" y="721" on="0"/>
        <pt x="719" y="684" on="0"/>
        <pt x="749" y="662" on="1"/>
        <pt x="714" y="501" on="1"/>
        <pt x="713" y="501" on="1"/>
        <pt x="679" y="523" on="0"/>
        <pt x="592" y="557" on="0"/>
        <pt x="543" y="557" on="1"/>
        <pt x="487" y="557" on="0"/>
        <pt x="407" y="517" on="0"/>
        <pt x="382" y="484" on="1"/>
        <pt x="592" y="484" on="1"/>
        <pt x="571" y="381" on="1"/>
        <pt x="336" y="381" on="1"/>
        <pt x="333" y="368" on="0"/>
        <pt x="330" y="339" on="0"/>
        <pt x="329" y="325" on="1"/>
        <pt x="559" y="325" on="1"/>
        <pt x="537" y="222" on="1"/>
        <pt x="342" y="222" on="1"/>
        <pt x="361" y="178" on="0"/>
        <pt x="442" y="144" on="0"/>
        <pt x="493" y="144" on="1"/>
        <pt x="538" y="144" on="0"/>
        <pt x="615" y="162" on="0"/>
        <pt x="649" y="174" on="1"/>
        <pt x="650" y="174" on="1"/>
        <pt x="615" y="8" on="1"/>
        <pt x="590" y="-4" on="0"/>
        <pt x="505" y="-21" on="0"/>
        <pt x="458" y="-21" on="1"/>
        <pt x="336" y="-21" on="0"/>
        <pt x="167" y="91" on="0"/>
        <pt x="141" y="200" on="1"/>
      </contour>
    </TTGlyph>
    <TTGlyph name="F" xMin="16" yMin="0" xMax="727" yMax="700">
      <contour>
        <pt x="358" y="518" on="1"/>
        <pt x="333" y="402" on="1"/>
        <pt x="620" y="402" on="1"/>
        <pt x="584" y="234" on="1"/>
        <pt x="298" y="234" on="1"/>
        <pt x="248" y="0" on="1"/>
        <pt x="16" y="0" on="1"/>
        <pt x="165" y="700" on="1"/>
        <pt x="727" y="700" on="1"/>
        <pt x="708" y="518" on="1"/>
      </contour>
    </TTGlyph>
    <TTGlyph name="F.sc" xMin="14" yMin="0" xMax="658" yMax="605">
      <component glyphName="f.sc" x="0" y="0" flags="0x204"/>
    </TTGlyph>
    <TTGlyph name="G" xMin="50" yMin="-22" xMax="810" yMax="721">
      <contour>
        <pt x="502" y="529" on="1"/>
        <pt x="445" y="529" on="0"/>
        <pt x="360" y="494" on="0"/>
        <pt x="304" y="434" on="0"/>
        <pt x="276" y="353" on="0"/>
        <pt x="276" y="309" on="1"/>
        <pt x="276" y="238" on="0"/>
        <pt x="356" y="159" on="0"/>
        <pt x="431" y="159" on="1"/>
        <pt x="489" y="159" on="0"/>
        <pt x="569" y="211" on="0"/>
        <pt x="581" y="260" on="1"/>
        <pt x="399" y="260" on="1"/>
        <pt x="433" y="415" on="1"/>
        <pt x="810" y="415" on="1"/>
        <pt x="801" y="301" on="0"/>
        <pt x="747" y="135" on="0"/>
        <pt x="691" y="80" on="1"/>
        <pt x="644" y="33" on="0"/>
        <pt x="506" y="-22" on="0"/>
        <pt x="410" y="-22" on="1"/>
        <pt x="327" y="-22" on="0"/>
        <pt x="193" y="22" on="0"/>
        <pt x="100" y="105" on="0"/>
        <pt x="50" y="223" on="0"/>
        <pt x="50" y="297" on="1"/>
        <pt x="50" y="382" on="0"/>
        <pt x="109" y="537" on="0"/>
        <pt x="222" y="652" on="0"/>
        <pt x="387" y="721" on="0"/>
        <pt x="493" y="721" on="1"/>
        <pt x="576" y="721" on="0"/>
        <pt x="721" y="677" on="0"/>
        <pt x="770" y="644" on="1"/>
        <pt x="730" y="458" on="1"/>
        <pt x="729" y="458" on="1"/>
        <pt x="680" y="488" on="0"/>
        <pt x="568" y="529" on="0"/>
      </contour>
    </TTGlyph>
    <TTGlyph name="G.sc" xMin="44" yMin="-21" xMax="719" yMax="623">
      <component glyphName="g.sc" x="0" y="0" flags="0x204"/>
    </TTGlyph>
    <TTGlyph name="Gbreve" xMin="50" yMin="-22" xMax="810" yMax="1007">
      <component glyphName="G" x="0" y="0" flags="0x204"/>
      <component glyphName="breve" x="177" y="162" flags="0x4"/>
    </TTGlyph>
    <TTGlyph name="Gbreve.sc" xMin="44" yMin="-21" xMax="719" yMax="910">
      <component glyphName="gbreve.sc" x="0" y="0" flags="0x204"/>
    </TTGlyph>
    <TTGlyph name="Gdotaccent" xMin="50" yMin="-22" xMax="810" yMax="989">
      <component glyphName="G" x="0" y="0" flags="0x204"/>
      <component glyphName="dotaccent" x="181" y="162" flags="0x4"/>
    </TTGlyph>
    <TTGlyph name="Gdotaccent.sc" xMin="44" yMin="-21" xMax="719" yMax="892">
      <component glyphName="gdotaccent.sc" x="0" y="0" flags="0x204"/>
    </TTGlyph>
    <TTGlyph name="H" xMin="16" yMin="0" xMax="869" yMax="700">
      <contour>
        <pt x="487" y="0" on="1"/>
        <pt x="542" y="260" on="1"/>
        <pt x="303" y="260" on="1"/>
        <pt x="248" y="0" on="1"/>
        <pt x="16" y="0" on="1"/>
        <pt x="165" y="700" on="1"/>
        <pt x="397" y="700" on="1"/>
        <pt x="344" y="452" on="1"/>
        <pt x="583" y="452" on="1"/>
        <pt x="636" y="700" on="1"/>
        <pt x="869" y="700" on="1"/>
        <pt x="720" y="0" on="1"/>
      </contour>
    </TTGlyph>
    <TTGlyph name="H.sc" xMin="14" yMin="0" xMax="783" yMax="605">
      <component glyphName="h.sc" x="0" y="0" flags="0x204"/>
    </TTGlyph>
    <TTGlyph name="Hbar" xMin="67" yMin="0" xMax="991" yMax="700">
      <contour>
        <pt x="67" y="472" on="1"/>
        <pt x="113" y="628" on="1"/>
        <pt x="203" y="628" on="1"/>
        <pt x="218" y="700" on="1"/>
        <pt x="449" y="700" on="1"/>
        <pt x="432" y="618" on="1"/>
        <pt x="674" y="618" on="1"/>
        <pt x="691" y="700" on="1"/>
        <pt x="922" y="700" on="1"/>
        <pt x="907" y="628" on="1"/>
        <pt x="991" y="628" on="1"/>
        <pt x="976" y="472" on="1"/>
        <pt x="873" y="472" on="1"/>
        <pt x="773" y="0" on="1"/>
        <pt x="542" y="0" on="1"/>
        <pt x="587" y="213" on="1"/>
        <pt x="345" y="213" on="1"/>
        <pt x="300" y="0" on="1"/>
        <pt x="69" y="0" on="1"/>
        <pt x="169" y="472" on="1"/>
      </contour>
      <contour>
        <pt x="386" y="405" on="1"/>
        <pt x="628" y="405" on="1"/>
        <pt x="644" y="481" on="1"/>
        <pt x="402" y="481" on="1"/>
      </contour>
    </TTGlyph>
    <TTGlyph name="Hbar.sc" xMin="52" yMin="0" xMax="898" yMax="605">
      <component glyphName="hbar.sc" x="0" y="0" flags="0x204"/>
    </TTGlyph>
    <TTGlyph name="I" xMin="16" yMin="0" xMax="397" yMax="700">
      <contour>
        <pt x="248" y="0" on="1"/>
        <pt x="16" y="0" on="1"/>
        <pt x="165" y="700" on="1"/>
        <pt x="397" y="700" on="1"/>
      </contour>
    </TTGlyph>
    <TTGlyph name="I.sc" xMin="15" yMin="0" xMax="370" yMax="605">
      <component glyphName="i.sc" x="0" y="0" flags="0x204"/>
    </TTGlyph>
    <TTGlyph name="Iacute" xMin="16" yMin="0" xMax="605" yMax="953">
      <component glyphName="I" x="0" y="0" flags="0x204"/>
      <component glyphName="acute" x="30" y="141" flags="0x4"/>
    </TTGlyph>
    <TTGlyph name="Iacute.sc" xMin="15" yMin="0" xMax="572" yMax="859">
      <component glyphName="iacute.sc" x="0" y="0" flags="0x204"/>
    </TTGlyph>
    <TTGlyph name="Ibreve" xMin="16" yMin="0" xMax="544" yMax="986">
      <component glyphName="I" x="0" y="0" flags="0x204"/>
      <component glyphName="breve" x="-32" y="141" flags="0x4"/>
    </TTGlyph>
    <TTGlyph name="Ibreve.sc" xMin="15" yMin="0" xMax="520" yMax="892">
      <component glyphName="ibreve.sc" x="0" y="0" flags="0x204"/>
    </TTGlyph>
    <TTGlyph name="Icircumflex" xMin="16" yMin="0" xMax="532" yMax="971">
      <component glyphName="I" x="0" y="0" flags="0x204"/>
      <component glyphName="circumflex" x="-44" y="141" flags="0x4"/>
    </TTGlyph>
    <TTGlyph name="Icircumflex.sc" xMin="7" yMin="0" xMax="509" yMax="877">
      <component glyphName="icircumflex.sc" x="0" y="0" flags="0x204"/>
    </TTGlyph>
    <TTGlyph name="Idieresis" xMin="16" yMin="0" xMax="569" yMax="965">
      <component glyphName="I" x="0" y="0" flags="0x204"/>
      <component glyphName="dieresis" x="-21" y="141" flags="0x4"/>
    </TTGlyph>
    <TTGlyph name="Idieresis.sc" xMin="15" yMin="0" xMax="546" yMax="871">
      <component glyphName="idieresis.sc" x="0" y="0" flags="0x204"/>
    </TTGlyph>
    <TTGlyph name="Idotaccent" xMin="16" yMin="0" xMax="447" yMax="968">
      <component glyphName="I" x="0" y="0" flags="0x204"/>
      <component glyphName="dotaccent" x="-29" y="141" flags="0x4"/>
    </TTGlyph>
    <TTGlyph name="Idotaccent.sc" xMin="15" yMin="0" xMax="423" yMax="874">
      <component glyphName="idotaccent.sc" x="0" y="0" flags="0x204"/>
    </TTGlyph>
    <TTGlyph name="Igrave" xMin="16" yMin="0" xMax="397" yMax="956">
      <component glyphName="I" x="0" y="0" flags="0x204"/>
      <component glyphName="grave" x="-104" y="141" flags="0x4"/>
    </TTGlyph>
    <TTGlyph name="Igrave.sc" xMin="15" yMin="0" xMax="370" yMax="862">
      <component glyphName="igrave.sc" x="0" y="0" flags="0x204"/>
    </TTGlyph>
    <TTGlyph name="Imacron" xMin="16" yMin="0" xMax="536" yMax="933">
      <component glyphName="I" x="0" y="0" flags="0x204"/>
      <component glyphName="macron" x="-35" y="141" flags="0x4"/>
    </TTGlyph>
    <TTGlyph name="Imacron.sc" xMin="15" yMin="0" xMax="513" yMax="839">
      <component glyphName="imacron.sc" x="0" y="0" flags="0x204"/>
    </TTGlyph>
    <TTGlyph name="Iogonek" xMin="-95" yMin="-317" xMax="397" yMax="700">
      <contour>
        <pt x="208" y="-295" on="1"/>
        <pt x="179" y="-306" on="0"/>
        <pt x="116" y="-317" on="0"/>
        <pt x="76" y="-317" on="1"/>
        <pt x="-15" y="-317" on="0"/>
        <pt x="-95" y="-248" on="0"/>
        <pt x="-95" y="-206" on="1"/>
        <pt x="-95" y="-153" on="0"/>
        <pt x="-7" y="-52" on="0"/>
        <pt x="98" y="0" on="1"/>
        <pt x="16" y="0" on="1"/>
        <pt x="165" y="700" on="1"/>
        <pt x="397" y="700" on="1"/>
        <pt x="248" y="0" on="1"/>
        <pt x="188" y="-48" on="1"/>
        <pt x="141" y="-85" on="0"/>
        <pt x="101" y="-127" on="0"/>
        <pt x="101" y="-143" on="1"/>
        <pt x="101" y="-156" on="0"/>
        <pt x="125" y="-170" on="0"/>
        <pt x="153" y="-170" on="1"/>
        <pt x="173" y="-170" on="0"/>
        <pt x="213" y="-162" on="0"/>
        <pt x="238" y="-154" on="1"/>
      </contour>
    </TTGlyph>
    <TTGlyph name="Iogonek.sc" xMin="-101" yMin="-317" xMax="370" yMax="605">
      <component glyphName="iogonek.sc" x="0" y="0" flags="0x204"/>
    </TTGlyph>
    <TTGlyph name="J" xMin="0" yMin="-19" xMax="697" yMax="700">
      <contour>
        <pt x="268" y="-19" on="1"/>
        <pt x="190" y="-19" on="0"/>
        <pt x="53" y="21" on="0"/>
        <pt x="0" y="58" on="1"/>
        <pt x="41" y="252" on="1"/>
        <pt x="42" y="252" on="1"/>
        <pt x="91" y="216" on="0"/>
        <pt x="197" y="178" on="0"/>
        <pt x="248" y="178" on="1"/>
        <pt x="303" y="178" on="0"/>
        <pt x="365" y="229" on="0"/>
        <pt x="378" y="289" on="1"/>
        <pt x="426" y="519" on="1"/>
        <pt x="199" y="519" on="1"/>
        <pt x="253" y="700" on="1"/>
        <pt x="697" y="700" on="1"/>
        <pt x="603" y="257" on="1"/>
        <pt x="574" y="115" on="0"/>
        <pt x="409" y="-19" on="0"/>
      </contour>
    </TTGlyph>
    <TTGlyph name="J.sc" xMin="-3" yMin="-18" xMax="619" yMax="605">
      <component glyphName="j.sc" x="0" y="0" flags="0x204"/>
    </TTGlyph>
    <TTGlyph name="K" xMin="16" yMin="0" xMax="893" yMax="700">
      <contour>
        <pt x="16" y="0" on="1"/>
        <pt x="165" y="700" on="1"/>
        <pt x="397" y="700" on="1"/>
        <pt x="343" y="448" on="1"/>
        <pt x="400" y="448" on="1"/>
        <pt x="618" y="700" on="1"/>
        <pt x="893" y="700" on="1"/>
        <pt x="893" y="699" on="1"/>
        <pt x="573" y="341" on="1"/>
        <pt x="768" y="1" on="1"/>
        <pt x="768" y="0" on="1"/>
        <pt x="509" y="0" on="1"/>
        <pt x="367" y="261" on="1"/>
        <pt x="304" y="261" on="1"/>
        <pt x="248" y="0" on="1"/>
      </contour>
    </TTGlyph>
    <TTGlyph name="K.sc" xMin="14" yMin="0" xMax="808" yMax="605">
      <component glyphName="k.sc" x="0" y="0" flags="0x204"/>
    </TTGlyph>
    <TTGlyph name="L" xMin="16" yMin="0" xMax="625" yMax="700">
      <contour>
        <pt x="16" y="0" on="1"/>
        <pt x="165" y="700" on="1"/>
        <pt x="397" y="700" on="1"/>
        <pt x="289" y="195" on="1"/>
        <pt x="625" y="195" on="1"/>
        <pt x="566" y="0" on="1"/>
      </contour>
    </TTGlyph>
    <TTGlyph name="L.sc" xMin="14" yMin="0" xMax="564" yMax="605">
      <component glyphName="l.sc" x="0" y="0" flags="0x204"/>
    </TTGlyph>
    <TTGlyph name="Lacute" xMin="16" yMin="0" xMax="625" yMax="953">
      <component glyphName="L" x="0" y="0" flags="0x204"/>
      <component glyphName="acute" x="25" y="141" flags="0x4"/>
    </TTGlyph>
    <TTGlyph name="Lacute.sc" xMin="14" yMin="0" xMax="574" yMax="859">
      <component glyphName="lacute.sc" x="0" y="0" flags="0x204"/>
    </TTGlyph>
    <TTGlyph name="Lcaron" xMin="16" yMin="0" xMax="660" yMax="714">
      <component glyphName="L" x="0" y="0" flags="0x204"/>
      <component glyphName="caron.alt" x="168" y="-70" flags="0x4"/>
    </TTGlyph>
    <TTGlyph name="Lcaron.sc" xMin="14" yMin="0" xMax="640" yMax="605">
      <component glyphName="lcaron.sc" x="0" y="0" flags="0x204"/>
    </TTGlyph>
    <TTGlyph name="Ldot" xMin="16" yMin="0" xMax="669" yMax="700">
      <contour>
        <pt x="16" y="0" on="1"/>
        <pt x="165" y="700" on="1"/>
        <pt x="397" y="700" on="1"/>
        <pt x="289" y="195" on="1"/>
        <pt x="625" y="195" on="1"/>
        <pt x="566" y="0" on="1"/>
      </contour>
      <contour>
        <pt x="446" y="428" on="1"/>
        <pt x="446" y="474" on="0"/>
        <pt x="511" y="543" on="0"/>
        <pt x="567" y="543" on="1"/>
        <pt x="616" y="543" on="0"/>
        <pt x="669" y="490" on="0"/>
        <pt x="669" y="449" on="1"/>
        <pt x="669" y="402" on="0"/>
        <pt x="604" y="334" on="0"/>
        <pt x="548" y="334" on="1"/>
        <pt x="499" y="334" on="0"/>
        <pt x="446" y="387" on="0"/>
      </contour>
    </TTGlyph>
    <TTGlyph name="Ldot.sc" xMin="14" yMin="0" xMax="622" yMax="605">
      <component glyphName="ldot.sc" x="0" y="0" flags="0x204"/>
    </TTGlyph>
    <TTGlyph name="Lslash" xMin="3" yMin="0" xMax="669" yMax="700">
      <contour>
        <pt x="60" y="0" on="1"/>
        <pt x="108" y="224" on="1"/>
        <pt x="3" y="184" on="1"/>
        <pt x="40" y="358" on="1"/>
        <pt x="145" y="398" on="1"/>
        <pt x="209" y="700" on="1"/>
        <pt x="441" y="700" on="1"/>
        <pt x="397" y="495" on="1"/>
        <pt x="601" y="574" on="1"/>
        <pt x="563" y="400" on="1"/>
        <pt x="360" y="322" on="1"/>
        <pt x="333" y="195" on="1"/>
        <pt x="669" y="195" on="1"/>
        <pt x="610" y="0" on="1"/>
      </contour>
    </TTGlyph>
    <TTGlyph name="Lslash.sc" xMin="0" yMin="0" xMax="603" yMax="605">
      <component glyphName="lslash.sc" x="0" y="0" flags="0x204"/>
    </TTGlyph>
    <TTGlyph name="M" xMin="16" yMin="0" xMax="1010" yMax="700">
      <contour>
        <pt x="16" y="0" on="1"/>
        <pt x="165" y="700" on="1"/>
        <pt x="420" y="700" on="1"/>
        <pt x="518" y="402" on="1"/>
        <pt x="733" y="700" on="1"/>
        <pt x="1010" y="700" on="1"/>
        <pt x="861" y="0" on="1"/>
        <pt x="638" y="0" on="1"/>
        <pt x="720" y="392" on="1"/>
        <pt x="459" y="46" on="1"/>
        <pt x="448" y="46" on="1"/>
        <pt x="322" y="391" on="1"/>
        <pt x="239" y="0" on="1"/>
      </contour>
    </TTGlyph>
    <TTGlyph name="M.sc" xMin="14" yMin="0" xMax="888" yMax="605">
      <component glyphName="m.sc" x="0" y="0" flags="0x204"/>
    </TTGlyph>
    <TTGlyph name="N" xMin="16" yMin="0" xMax="872" yMax="700">
      <contour>
        <pt x="16" y="0" on="1"/>
        <pt x="165" y="700" on="1"/>
        <pt x="402" y="700" on="1"/>
        <pt x="567" y="319" on="1"/>
        <pt x="571" y="319" on="1"/>
        <pt x="652" y="700" on="1"/>
        <pt x="872" y="700" on="1"/>
        <pt x="723" y="0" on="1"/>
        <pt x="492" y="0" on="1"/>
        <pt x="322" y="389" on="1"/>
        <pt x="318" y="389" on="1"/>
        <pt x="235" y="0" on="1"/>
      </contour>
    </TTGlyph>
    <TTGlyph name="N.sc" xMin="14" yMin="0" xMax="779" yMax="605">
      <component glyphName="n.sc" x="0" y="0" flags="0x204"/>
    </TTGlyph>
    <TTGlyph name="Nacute" xMin="16" yMin="0" xMax="872" yMax="928">
      <component glyphName="N" x="0" y="0" flags="0x204"/>
      <component glyphName="acute" x="261" y="116" flags="0x4"/>
    </TTGlyph>
    <TTGlyph name="Nacute.sc" xMin="14" yMin="0" xMax="779" yMax="833">
      <component glyphName="nacute.sc" x="0" y="0" flags="0x204"/>
    </TTGlyph>
    <TTGlyph name="Ncaron" xMin="16" yMin="0" xMax="872" yMax="946">
      <component glyphName="N" x="0" y="0" flags="0x204"/>
      <component glyphName="caron" x="232" y="116" flags="0x4"/>
    </TTGlyph>
    <TTGlyph name="Ncaron.sc" xMin="14" yMin="0" xMax="784" yMax="851">
      <component glyphName="ncaron.sc" x="0" y="0" flags="0x204"/>
    </TTGlyph>
    <TTGlyph name="Ntilde" xMin="16" yMin="0" xMax="872" yMax="975">
      <component glyphName="N" x="0" y="0" flags="0x204"/>
      <component glyphName="tilde" x="218" y="141" flags="0x4"/>
    </TTGlyph>
    <TTGlyph name="Ntilde.sc" xMin="14" yMin="0" xMax="779" yMax="881">
      <component glyphName="ntilde.sc" x="0" y="0" flags="0x204"/>
    </TTGlyph>
    <TTGlyph name="O" xMin="50" yMin="-24" xMax="827" yMax="724">
      <contour>
        <pt x="397" y="-24" on="1"/>
        <pt x="320" y="-24" on="0"/>
        <pt x="192" y="20" on="0"/>
        <pt x="101" y="104" on="0"/>
        <pt x="50" y="226" on="0"/>
        <pt x="50" y="303" on="1"/>
        <pt x="50" y="384" on="0"/>
        <pt x="104" y="536" on="0"/>
        <pt x="211" y="653" on="0"/>
        <pt x="373" y="724" on="0"/>
        <pt x="480" y="724" on="1"/>
        <pt x="557" y="724" on="0"/>
        <pt x="685" y="680" on="0"/>
        <pt x="776" y="596" on="0"/>
        <pt x="827" y="474" on="0"/>
        <pt x="827" y="397" on="1"/>
        <pt x="827" y="316" on="0"/>
        <pt x="773" y="164" on="0"/>
        <pt x="666" y="47" on="0"/>
        <pt x="504" y="-24" on="0"/>
      </contour>
      <contour>
        <pt x="418" y="169" on="1"/>
        <pt x="462" y="169" on="0"/>
        <pt x="530" y="204" on="0"/>
        <pt x="577" y="263" on="0"/>
        <pt x="602" y="341" on="0"/>
        <pt x="602" y="383" on="1"/>
        <pt x="602" y="449" on="0"/>
        <pt x="530" y="530" on="0"/>
        <pt x="459" y="530" on="1"/>
        <pt x="415" y="530" on="0"/>
        <pt x="347" y="495" on="0"/>
        <pt x="300" y="437" on="0"/>
        <pt x="275" y="360" on="0"/>
        <pt x="275" y="318" on="1"/>
        <pt x="275" y="251" on="0"/>
        <pt x="347" y="169" on="0"/>
      </contour>
    </TTGlyph>
    <TTGlyph name="O.sc" xMin="46" yMin="-22" xMax="745" yMax="627">
      <component glyphName="o.sc" x="0" y="0" flags="0x204"/>
    </TTGlyph>
    <TTGlyph name="OE" xMin="50" yMin="0" xMax="1188" yMax="700">
      <contour>
        <pt x="804" y="519" on="1"/>
        <pt x="785" y="432" on="1"/>
        <pt x="1070" y="432" on="1"/>
        <pt x="1036" y="275" on="1"/>
        <pt x="752" y="275" on="1"/>
        <pt x="732" y="181" on="1"/>
        <pt x="1111" y="181" on="1"/>
        <pt x="1057" y="0" on="1"/>
        <pt x="426" y="0" on="1"/>
        <pt x="317" y="0" on="0"/>
        <pt x="171" y="49" on="0"/>
        <pt x="86" y="130" on="0"/>
        <pt x="50" y="236" on="0"/>
        <pt x="50" y="293" on="1"/>
        <pt x="50" y="362" on="0"/>
        <pt x="95" y="507" on="0"/>
        <pt x="200" y="625" on="0"/>
        <pt x="375" y="700" on="0"/>
        <pt x="503" y="700" on="1"/>
        <pt x="1188" y="700" on="1"/>
        <pt x="1170" y="519" on="1"/>
      </contour>
      <contour>
        <pt x="281" y="312" on="1"/>
        <pt x="281" y="253" on="0"/>
        <pt x="351" y="186" on="0"/>
        <pt x="440" y="186" on="1"/>
        <pt x="502" y="186" on="1"/>
        <pt x="571" y="514" on="1"/>
        <pt x="490" y="514" on="1"/>
        <pt x="431" y="514" on="0"/>
        <pt x="350" y="477" on="0"/>
        <pt x="302" y="420" on="0"/>
        <pt x="281" y="347" on="0"/>
      </contour>
    </TTGlyph>
    <TTGlyph name="OE.sc" xMin="46" yMin="0" xMax="1054" yMax="605">
      <component glyphName="oe.sc" x="0" y="0" flags="0x204"/>
    </TTGlyph>
    <TTGlyph name="Oacute" xMin="50" yMin="-24" xMax="827" yMax="977">
      <component glyphName="O" x="0" y="0" flags="0x204"/>
      <component glyphName="acute" x="236" y="165" flags="0x4"/>
    </TTGlyph>
    <TTGlyph name="Oacute.sc" xMin="46" yMin="-22" xMax="755" yMax="881">
      <component glyphName="oacute.sc" x="0" y="0" flags="0x204"/>
    </TTGlyph>
    <TTGlyph name="Obreve" xMin="50" yMin="-24" xMax="827" yMax="1010">
      <component glyphName="O" x="0" y="0" flags="0x204"/>
      <component glyphName="breve" x="199" y="165" flags="0x4"/>
    </TTGlyph>
    <TTGlyph name="Obreve.sc" xMin="46" yMin="-22" xMax="745" yMax="914">
      <component glyphName="obreve.sc" x="0" y="0" flags="0x204"/>
    </TTGlyph>
    <TTGlyph name="Ocircumflex" xMin="50" yMin="-24" xMax="827" yMax="995">
      <component glyphName="O" x="0" y="0" flags="0x204"/>
      <component glyphName="circumflex" x="188" y="165" flags="0x4"/>
    </TTGlyph>
    <TTGlyph name="Ocircumflex.sc" xMin="46" yMin="-22" xMax="745" yMax="899">
      <component glyphName="ocircumflex.sc" x="0" y="0" flags="0x204"/>
    </TTGlyph>
    <TTGlyph name="Odieresis" xMin="50" yMin="-24" xMax="827" yMax="989">
      <component glyphName="O" x="0" y="0" flags="0x204"/>
      <component glyphName="dieresis" x="211" y="165" flags="0x4"/>
    </TTGlyph>
    <TTGlyph name="Odieresis.sc" xMin="46" yMin="-22" xMax="745" yMax="893">
      <component glyphName="odieresis.sc" x="0" y="0" flags="0x204"/>
    </TTGlyph>
    <TTGlyph name="Ograve" xMin="50" yMin="-24" xMax="827" yMax="980">
      <component glyphName="O" x="0" y="0" flags="0x204"/>
      <component glyphName="grave" x="130" y="165" flags="0x4"/>
    </TTGlyph>
    <TTGlyph name="Ograve.sc" xMin="46" yMin="-22" xMax="745" yMax="884">
      <component glyphName="ograve.sc" x="0" y="0" flags="0x204"/>
    </TTGlyph>
    <TTGlyph name="Ohungarumlaut" xMin="50" yMin="-24" xMax="914" yMax="977">
      <component glyphName="O" x="0" y="0" flags="0x204"/>
      <component glyphName="hungarumlaut" x="269" y="165" flags="0x4"/>
    </TTGlyph>
    <TTGlyph name="Ohungarumlaut.sc" xMin="46" yMin="-22" xMax="858" yMax="881">
      <component glyphName="ohungarumlaut.sc" x="0" y="0" flags="0x204"/>
    </TTGlyph>
    <TTGlyph name="Omacron" xMin="50" yMin="-24" xMax="827" yMax="957">
      <component glyphName="O" x="0" y="0" flags="0x204"/>
      <component glyphName="macron" x="197" y="165" flags="0x4"/>
    </TTGlyph>
    <TTGlyph name="Omacron.sc" xMin="46" yMin="-22" xMax="745" yMax="861">
      <component glyphName="omacron.sc" x="0" y="0" flags="0x204"/>
    </TTGlyph>
    <TTGlyph name="Oslash" xMin="-59" yMin="-58" xMax="936" yMax="758">
      <contour>
        <pt x="-59" y="-58" on="1"/>
        <pt x="98" y="120" on="1"/>
        <pt x="75" y="157" on="0"/>
        <pt x="50" y="249" on="0"/>
        <pt x="50" y="303" on="1"/>
        <pt x="50" y="384" on="0"/>
        <pt x="104" y="536" on="0"/>
        <pt x="211" y="653" on="0"/>
        <pt x="373" y="724" on="0"/>
        <pt x="480" y="724" on="1"/>
        <pt x="529" y="724" on="0"/>
        <pt x="619" y="705" on="0"/>
        <pt x="656" y="687" on="1"/>
        <pt x="722" y="758" on="1"/>
        <pt x="936" y="758" on="1"/>
        <pt x="779" y="580" on="1"/>
        <pt x="802" y="543" on="0"/>
        <pt x="827" y="451" on="0"/>
        <pt x="827" y="397" on="1"/>
        <pt x="827" y="316" on="0"/>
        <pt x="773" y="164" on="0"/>
        <pt x="666" y="47" on="0"/>
        <pt x="504" y="-24" on="0"/>
        <pt x="397" y="-24" on="1"/>
        <pt x="347" y="-24" on="0"/>
        <pt x="258" y="-5" on="0"/>
        <pt x="220" y="13" on="1"/>
        <pt x="155" y="-58" on="1"/>
      </contour>
      <contour>
        <pt x="267" y="317" on="1"/>
        <pt x="267" y="303" on="0"/>
        <pt x="270" y="277" on="0"/>
        <pt x="273" y="265" on="1"/>
        <pt x="515" y="530" on="1"/>
        <pt x="503" y="534" on="0"/>
        <pt x="475" y="538" on="0"/>
        <pt x="460" y="538" on="1"/>
        <pt x="414" y="538" on="0"/>
        <pt x="341" y="502" on="0"/>
        <pt x="293" y="441" on="0"/>
        <pt x="267" y="361" on="0"/>
      </contour>
      <contour>
        <pt x="417" y="162" on="1"/>
        <pt x="463" y="162" on="0"/>
        <pt x="536" y="198" on="0"/>
        <pt x="584" y="259" on="0"/>
        <pt x="610" y="341" on="0"/>
        <pt x="610" y="385" on="1"/>
        <pt x="610" y="398" on="0"/>
        <pt x="607" y="424" on="0"/>
        <pt x="604" y="435" on="1"/>
        <pt x="361" y="170" on="1"/>
        <pt x="374" y="166" on="0"/>
        <pt x="401" y="162" on="0"/>
      </contour>
    </TTGlyph>
    <TTGlyph name="Oslash.sc" xMin="-48" yMin="-46" xMax="838" yMax="651">
      <component glyphName="oslash.sc" x="0" y="0" flags="0x204"/>
    </TTGlyph>
    <TTGlyph name="Oslashacute" xMin="-59" yMin="-58" xMax="936" yMax="963">
      <component glyphName="Oslash" x="0" y="0" flags="0x204"/>
      <component glyphName="acute" x="233" y="151" flags="0x4"/>
    </TTGlyph>
    <TTGlyph name="Oslashacute.sc" xMin="-48" yMin="-46" xMax="838" yMax="865">
      <component glyphName="oslashacute.sc" x="0" y="0" flags="0x204"/>
    </TTGlyph>
    <TTGlyph name="Otilde" xMin="50" yMin="-24" xMax="827" yMax="999">
      <component glyphName="O" x="0" y="0" flags="0x204"/>
      <component glyphName="tilde" x="188" y="165" flags="0x4"/>
    </TTGlyph>
    <TTGlyph name="Otilde.sc" xMin="46" yMin="-22" xMax="745" yMax="903">
      <component glyphName="otilde.sc" x="0" y="0" flags="0x204"/>
    </TTGlyph>
    <TTGlyph name="P" xMin="16" yMin="0" xMax="787" yMax="700">
      <contour>
        <pt x="468" y="165" on="1"/>
        <pt x="284" y="165" on="1"/>
        <pt x="248" y="0" on="1"/>
        <pt x="16" y="0" on="1"/>
        <pt x="165" y="700" on="1"/>
        <pt x="493" y="700" on="1"/>
        <pt x="646" y="700" on="0"/>
        <pt x="787" y="573" on="0"/>
        <pt x="787" y="462" on="1"/>
        <pt x="787" y="398" on="0"/>
        <pt x="747" y="289" on="0"/>
        <pt x="668" y="210" on="0"/>
        <pt x="548" y="165" on="0"/>
      </contour>
      <contour>
        <pt x="444" y="340" on="1"/>
        <pt x="507" y="340" on="0"/>
        <pt x="559" y="404" on="0"/>
        <pt x="559" y="447" on="1"/>
        <pt x="559" y="480" on="0"/>
        <pt x="520" y="521" on="0"/>
        <pt x="477" y="521" on="1"/>
        <pt x="359" y="521" on="1"/>
        <pt x="321" y="340" on="1"/>
      </contour>
    </TTGlyph>
    <TTGlyph name="P.sc" xMin="14" yMin="0" xMax="703" yMax="605">
      <component glyphName="p.sc" x="0" y="0" flags="0x204"/>
    </TTGlyph>
    <TTGlyph name="Q" xMin="50" yMin="-41" xMax="827" yMax="724">
      <contour>
        <pt x="399" y="-24" on="1"/>
        <pt x="321" y="-24" on="0"/>
        <pt x="192" y="20" on="0"/>
        <pt x="101" y="104" on="0"/>
        <pt x="50" y="226" on="0"/>
        <pt x="50" y="303" on="1"/>
        <pt x="50" y="384" on="0"/>
        <pt x="104" y="536" on="0"/>
        <pt x="211" y="653" on="0"/>
        <pt x="373" y="724" on="0"/>
        <pt x="480" y="724" on="1"/>
        <pt x="557" y="724" on="0"/>
        <pt x="685" y="679" on="0"/>
        <pt x="776" y="597" on="0"/>
        <pt x="827" y="477" on="0"/>
        <pt x="827" y="402" on="1"/>
        <pt x="827" y="346" on="0"/>
        <pt x="798" y="234" on="0"/>
        <pt x="770" y="183" on="1"/>
        <pt x="826" y="144" on="1"/>
        <pt x="784" y="-41" on="1"/>
        <pt x="654" y="53" on="1"/>
        <pt x="605" y="17" on="0"/>
        <pt x="476" y="-24" on="0"/>
      </contour>
      <contour>
        <pt x="433" y="158" on="1"/>
        <pt x="455" y="158" on="0"/>
        <pt x="494" y="167" on="0"/>
        <pt x="510" y="175" on="1"/>
        <pt x="388" y="264" on="1"/>
        <pt x="480" y="387" on="1"/>
        <pt x="605" y="295" on="1"/>
        <pt x="612" y="315" on="0"/>
        <pt x="618" y="357" on="0"/>
        <pt x="618" y="376" on="1"/>
        <pt x="618" y="445" on="0"/>
        <pt x="543" y="530" on="0"/>
        <pt x="468" y="530" on="1"/>
        <pt x="423" y="530" on="0"/>
        <pt x="351" y="495" on="0"/>
        <pt x="302" y="435" on="0"/>
        <pt x="276" y="354" on="0"/>
        <pt x="276" y="309" on="1"/>
        <pt x="276" y="242" on="0"/>
        <pt x="353" y="158" on="0"/>
      </contour>
    </TTGlyph>
    <TTGlyph name="Q.sc" xMin="46" yMin="-36" xMax="750" yMax="627">
      <component glyphName="q.sc" x="0" y="0" flags="0x204"/>
    </TTGlyph>
    <TTGlyph name="R" xMin="16" yMin="0" xMax="790" yMax="700">
      <contour>
        <pt x="729" y="0" on="1"/>
        <pt x="480" y="0" on="1"/>
        <pt x="383" y="177" on="1"/>
        <pt x="286" y="177" on="1"/>
        <pt x="248" y="0" on="1"/>
        <pt x="16" y="0" on="1"/>
        <pt x="165" y="700" on="1"/>
        <pt x="504" y="700" on="1"/>
        <pt x="581" y="700" on="0"/>
        <pt x="690" y="665" on="0"/>
        <pt x="758" y="604" on="0"/>
        <pt x="790" y="519" on="0"/>
        <pt x="790" y="469" on="1"/>
        <pt x="790" y="372" on="0"/>
        <pt x="698" y="235" on="0"/>
        <pt x="605" y="205" on="1"/>
      </contour>
      <contour>
        <pt x="458" y="350" on="1"/>
        <pt x="510" y="350" on="0"/>
        <pt x="561" y="409" on="0"/>
        <pt x="561" y="449" on="1"/>
        <pt x="561" y="483" on="0"/>
        <pt x="522" y="521" on="0"/>
        <pt x="476" y="521" on="1"/>
        <pt x="358" y="521" on="1"/>
        <pt x="322" y="350" on="1"/>
      </contour>
    </TTGlyph>
    <TTGlyph name="R.sc" xMin="14" yMin="0" xMax="710" yMax="605">
      <component glyphName="r.sc" x="0" y="0" flags="0x204"/>
    </TTGlyph>
    <TTGlyph name="R_p" xMin="21" yMin="-213" xMax="1428" yMax="700">
      <contour>
        <pt x="287" y="177" on="1"/>
        <pt x="249" y="0" on="1"/>
        <pt x="21" y="0" on="1"/>
        <pt x="170" y="700" on="1"/>
        <pt x="479" y="700" on="1"/>
        <pt x="556" y="700" on="0"/>
        <pt x="666" y="665" on="0"/>
        <pt x="735" y="604" on="0"/>
        <pt x="767" y="518" on="0"/>
        <pt x="767" y="468" on="1"/>
        <pt x="767" y="371" on="0"/>
        <pt x="676" y="234" on="0"/>
        <pt x="583" y="204" on="1"/>
        <pt x="708" y="0" on="1"/>
        <pt x="462" y="0" on="1"/>
        <pt x="363" y="177" on="1"/>
      </contour>
      <contour>
        <pt x="1241" y="577" on="1"/>
        <pt x="1279" y="577" on="0"/>
        <pt x="1347" y="550" on="0"/>
        <pt x="1398" y="496" on="0"/>
        <pt x="1428" y="413" on="0"/>
        <pt x="1428" y="358" on="1"/>
        <pt x="1428" y="277" on="0"/>
        <pt x="1381" y="139" on="0"/>
        <pt x="1299" y="41" on="0"/>
        <pt x="1184" y="-15" on="0"/>
        <pt x="1116" y="-15" on="1"/>
        <pt x="1074" y="-15" on="0"/>
        <pt x="1008" y="2" on="0"/>
        <pt x="983" y="16" on="1"/>
        <pt x="934" y="-213" on="1"/>
        <pt x="706" y="-213" on="1"/>
        <pt x="870" y="559" on="1"/>
        <pt x="1092" y="559" on="1"/>
        <pt x="1080" y="497" on="1"/>
        <pt x="1107" y="531" on="0"/>
        <pt x="1187" y="577" on="0"/>
      </contour>
      <contour>
        <pt x="438" y="346" on="1"/>
        <pt x="490" y="346" on="0"/>
        <pt x="542" y="407" on="0"/>
        <pt x="542" y="449" on="1"/>
        <pt x="542" y="485" on="0"/>
        <pt x="502" y="525" on="0"/>
        <pt x="456" y="525" on="1"/>
        <pt x="360" y="525" on="1"/>
        <pt x="322" y="346" on="1"/>
      </contour>
      <contour>
        <pt x="1144" y="402" on="1"/>
        <pt x="1119" y="402" on="0"/>
        <pt x="1074" y="383" on="0"/>
        <pt x="1058" y="369" on="1"/>
        <pt x="1017" y="179" on="1"/>
        <pt x="1031" y="168" on="0"/>
        <pt x="1068" y="155" on="0"/>
        <pt x="1087" y="155" on="1"/>
        <pt x="1116" y="155" on="0"/>
        <pt x="1162" y="184" on="0"/>
        <pt x="1193" y="231" on="0"/>
        <pt x="1210" y="291" on="0"/>
        <pt x="1210" y="323" on="1"/>
        <pt x="1210" y="366" on="0"/>
        <pt x="1173" y="402" on="0"/>
      </contour>
    </TTGlyph>
    <TTGlyph name="Racute" xMin="16" yMin="0" xMax="803" yMax="953">
      <component glyphName="R" x="0" y="0" flags="0x204"/>
      <component glyphName="acute" x="228" y="141" flags="0x4"/>
    </TTGlyph>
    <TTGlyph name="Racute.sc" xMin="14" yMin="0" xMax="737" yMax="859">
      <component glyphName="racute.sc" x="0" y="0" flags="0x204"/>
    </TTGlyph>
    <TTGlyph name="Rcaron" xMin="16" yMin="0" xMax="817" yMax="971">
      <component glyphName="R" x="0" y="0" flags="0x204"/>
      <component glyphName="caron" x="199" y="141" flags="0x4"/>
    </TTGlyph>
    <TTGlyph name="Rcaron.sc" xMin="14" yMin="0" xMax="751" yMax="877">
      <component glyphName="rcaron.sc" x="0" y="0" flags="0x204"/>
    </TTGlyph>
    <TTGlyph name="S" xMin="15" yMin="-20" xMax="733" yMax="720">
      <contour>
        <pt x="58" y="263" on="1"/>
        <pt x="130" y="217" on="0"/>
        <pt x="295" y="159" on="0"/>
        <pt x="370" y="159" on="1"/>
        <pt x="421" y="159" on="0"/>
        <pt x="462" y="186" on="0"/>
        <pt x="462" y="205" on="1"/>
        <pt x="462" y="226" on="0"/>
        <pt x="412" y="250" on="0"/>
        <pt x="332" y="273" on="1"/>
        <pt x="281" y="288" on="0"/>
        <pt x="197" y="321" on="0"/>
        <pt x="137" y="367" on="0"/>
        <pt x="104" y="431" on="0"/>
        <pt x="104" y="477" on="1"/>
        <pt x="104" y="527" on="0"/>
        <pt x="142" y="615" on="0"/>
        <pt x="220" y="681" on="0"/>
        <pt x="342" y="720" on="0"/>
        <pt x="425" y="720" on="1"/>
        <pt x="514" y="720" on="0"/>
        <pt x="673" y="678" on="0"/>
        <pt x="733" y="644" on="1"/>
        <pt x="692" y="453" on="1"/>
        <pt x="691" y="453" on="1"/>
        <pt x="665" y="471" on="0"/>
        <pt x="598" y="503" on="0"/>
        <pt x="526" y="527" on="0"/>
        <pt x="453" y="541" on="0"/>
        <pt x="419" y="541" on="1"/>
        <pt x="373" y="541" on="0"/>
        <pt x="331" y="515" on="0"/>
        <pt x="331" y="496" on="1"/>
        <pt x="331" y="476" on="0"/>
        <pt x="379" y="456" on="0"/>
        <pt x="446" y="436" on="1"/>
        <pt x="502" y="420" on="0"/>
        <pt x="592" y="384" on="0"/>
        <pt x="653" y="336" on="0"/>
        <pt x="686" y="270" on="0"/>
        <pt x="686" y="223" on="1"/>
        <pt x="686" y="111" on="0"/>
        <pt x="524" y="-20" on="0"/>
        <pt x="375" y="-20" on="1"/>
        <pt x="264" y="-20" on="0"/>
        <pt x="87" y="30" on="0"/>
        <pt x="15" y="70" on="1"/>
        <pt x="57" y="263" on="1"/>
      </contour>
    </TTGlyph>
    <TTGlyph name="S.sc" xMin="8" yMin="-20" xMax="645" yMax="624">
      <component glyphName="s.sc" x="0" y="0" flags="0x204"/>
    </TTGlyph>
    <TTGlyph name="Sacute" xMin="15" yMin="-20" xMax="773" yMax="973">
      <component glyphName="S" x="0" y="0" flags="0x204"/>
      <component glyphName="acute" x="198" y="161" flags="0x4"/>
    </TTGlyph>
    <TTGlyph name="Sacute.sc" xMin="8" yMin="-20" xMax="707" yMax="877">
      <component glyphName="sacute.sc" x="0" y="0" flags="0x204"/>
    </TTGlyph>
    <TTGlyph name="Scaron" xMin="15" yMin="-20" xMax="787" yMax="991">
      <component glyphName="S" x="0" y="0" flags="0x204"/>
      <component glyphName="caron" x="169" y="161" flags="0x4"/>
    </TTGlyph>
    <TTGlyph name="Scaron.sc" xMin="8" yMin="-20" xMax="721" yMax="895">
      <component glyphName="scaron.sc" x="0" y="0" flags="0x204"/>
    </TTGlyph>
    <TTGlyph name="Scedilla" xMin="15" yMin="-201" xMax="733" yMax="720">
      <contour>
        <pt x="58" y="263" on="1"/>
        <pt x="130" y="217" on="0"/>
        <pt x="295" y="159" on="0"/>
        <pt x="370" y="159" on="1"/>
        <pt x="421" y="159" on="0"/>
        <pt x="462" y="186" on="0"/>
        <pt x="462" y="205" on="1"/>
        <pt x="462" y="226" on="0"/>
        <pt x="412" y="250" on="0"/>
        <pt x="332" y="273" on="1"/>
        <pt x="281" y="288" on="0"/>
        <pt x="197" y="321" on="0"/>
        <pt x="137" y="367" on="0"/>
        <pt x="104" y="431" on="0"/>
        <pt x="104" y="477" on="1"/>
        <pt x="104" y="527" on="0"/>
        <pt x="142" y="615" on="0"/>
        <pt x="220" y="681" on="0"/>
        <pt x="342" y="720" on="0"/>
        <pt x="425" y="720" on="1"/>
        <pt x="514" y="720" on="0"/>
        <pt x="673" y="678" on="0"/>
        <pt x="733" y="644" on="1"/>
        <pt x="692" y="453" on="1"/>
        <pt x="691" y="453" on="1"/>
        <pt x="665" y="471" on="0"/>
        <pt x="598" y="503" on="0"/>
        <pt x="526" y="527" on="0"/>
        <pt x="453" y="541" on="0"/>
        <pt x="419" y="541" on="1"/>
        <pt x="373" y="541" on="0"/>
        <pt x="331" y="515" on="0"/>
        <pt x="331" y="496" on="1"/>
        <pt x="331" y="476" on="0"/>
        <pt x="379" y="456" on="0"/>
        <pt x="446" y="436" on="1"/>
        <pt x="502" y="420" on="0"/>
        <pt x="592" y="384" on="0"/>
        <pt x="653" y="336" on="0"/>
        <pt x="686" y="270" on="0"/>
        <pt x="686" y="223" on="1"/>
        <pt x="686" y="127" on="0"/>
        <pt x="566" y="2" on="0"/>
        <pt x="454" y="-14" on="1"/>
        <pt x="337" y="-201" on="1"/>
        <pt x="94" y="-201" on="1"/>
        <pt x="99" y="-179" on="1"/>
        <pt x="279" y="-15" on="1"/>
        <pt x="201" y="-6" on="0"/>
        <pt x="71" y="39" on="0"/>
        <pt x="15" y="70" on="1"/>
        <pt x="57" y="263" on="1"/>
      </contour>
    </TTGlyph>
    <TTGlyph name="Scedilla.sc" xMin="8" yMin="-200" xMax="645" yMax="624">
      <component glyphName="scedilla.sc" x="0" y="0" flags="0x204"/>
    </TTGlyph>
    <TTGlyph name="T" xMin="74" yMin="0" xMax="786" yMax="700">
      <contour>
        <pt x="767" y="506" on="1"/>
        <pt x="541" y="506" on="1"/>
        <pt x="434" y="0" on="1"/>
        <pt x="201" y="0" on="1"/>
        <pt x="308" y="506" on="1"/>
        <pt x="74" y="506" on="1"/>
        <pt x="132" y="700" on="1"/>
        <pt x="786" y="700" on="1"/>
      </contour>
    </TTGlyph>
    <TTGlyph name="T.sc" xMin="59" yMin="0" xMax="715" yMax="605">
      <component glyphName="t.sc" x="0" y="0" flags="0x204"/>
    </TTGlyph>
    <TTGlyph name="Tcaron" xMin="74" yMin="0" xMax="806" yMax="971">
      <component glyphName="T" x="0" y="0" flags="0x204"/>
      <component glyphName="caron" x="188" y="141" flags="0x4"/>
    </TTGlyph>
    <TTGlyph name="Tcaron.sc" xMin="59" yMin="0" xMax="755" yMax="877">
      <component glyphName="tcaron.sc" x="0" y="0" flags="0x204"/>
    </TTGlyph>
    <TTGlyph name="Thorn" xMin="16" yMin="0" xMax="781" yMax="700">
      <contour>
        <pt x="165" y="700" on="1"/>
        <pt x="397" y="700" on="1"/>
        <pt x="380" y="619" on="1"/>
        <pt x="485" y="619" on="1"/>
        <pt x="639" y="619" on="0"/>
        <pt x="781" y="494" on="0"/>
        <pt x="781" y="386" on="1"/>
        <pt x="781" y="324" on="0"/>
        <pt x="742" y="216" on="0"/>
        <pt x="663" y="138" on="0"/>
        <pt x="543" y="94" on="0"/>
        <pt x="463" y="94" on="1"/>
        <pt x="269" y="94" on="1"/>
        <pt x="248" y="0" on="1"/>
        <pt x="16" y="0" on="1"/>
      </contour>
      <contour>
        <pt x="342" y="439" on="1"/>
        <pt x="306" y="270" on="1"/>
        <pt x="439" y="270" on="1"/>
        <pt x="502" y="270" on="0"/>
        <pt x="553" y="331" on="0"/>
        <pt x="553" y="371" on="1"/>
        <pt x="553" y="401" on="0"/>
        <pt x="513" y="439" on="0"/>
        <pt x="468" y="439" on="1"/>
      </contour>
    </TTGlyph>
    <TTGlyph name="Thorn.sc" xMin="14" yMin="0" xMax="698" yMax="605">
      <component glyphName="thorn.sc" x="0" y="0" flags="0x204"/>
    </TTGlyph>
    <TTGlyph name="U" xMin="62" yMin="-25" xMax="850" yMax="700">
      <contour>
        <pt x="382" y="-25" on="1"/>
        <pt x="309" y="-25" on="0"/>
        <pt x="190" y="3" on="0"/>
        <pt x="107" y="59" on="0"/>
        <pt x="62" y="144" on="0"/>
        <pt x="62" y="201" on="1"/>
        <pt x="62" y="223" on="0"/>
        <pt x="69" y="277" on="0"/>
        <pt x="74" y="302" on="1"/>
        <pt x="158" y="700" on="1"/>
        <pt x="391" y="700" on="1"/>
        <pt x="304" y="293" on="1"/>
        <pt x="303" y="283" on="0"/>
        <pt x="300" y="261" on="0"/>
        <pt x="300" y="250" on="1"/>
        <pt x="300" y="213" on="0"/>
        <pt x="352" y="179" on="0"/>
        <pt x="397" y="179" on="1"/>
        <pt x="446" y="179" on="0"/>
        <pt x="516" y="225" on="0"/>
        <pt x="529" y="288" on="1"/>
        <pt x="617" y="700" on="1"/>
        <pt x="850" y="700" on="1"/>
        <pt x="757" y="264" on="1"/>
        <pt x="724" y="111" on="0"/>
        <pt x="540" y="-25" on="0"/>
      </contour>
    </TTGlyph>
    <TTGlyph name="U.sc" xMin="55" yMin="-24" xMax="762" yMax="605">
      <component glyphName="u.sc" x="0" y="0" flags="0x204"/>
    </TTGlyph>
    <TTGlyph name="Uacute" xMin="62" yMin="-25" xMax="850" yMax="929">
      <component glyphName="U" x="0" y="0" flags="0x204"/>
      <component glyphName="acute" x="229" y="117" flags="0x4"/>
    </TTGlyph>
    <TTGlyph name="Uacute.sc" xMin="55" yMin="-24" xMax="762" yMax="834">
      <component glyphName="uacute.sc" x="0" y="0" flags="0x204"/>
    </TTGlyph>
    <TTGlyph name="Ubreve" xMin="62" yMin="-25" xMax="850" yMax="962">
      <component glyphName="U" x="0" y="0" flags="0x204"/>
      <component glyphName="breve" x="191" y="117" flags="0x4"/>
    </TTGlyph>
    <TTGlyph name="Ubreve.sc" xMin="55" yMin="-24" xMax="762" yMax="867">
      <component glyphName="ubreve.sc" x="0" y="0" flags="0x204"/>
    </TTGlyph>
    <TTGlyph name="Ucircumflex" xMin="62" yMin="-25" xMax="850" yMax="971">
      <component glyphName="U" x="0" y="0" flags="0x204"/>
      <component glyphName="circumflex" x="185" y="141" flags="0x4"/>
    </TTGlyph>
    <TTGlyph name="Ucircumflex.sc" xMin="55" yMin="-24" xMax="762" yMax="877">
      <component glyphName="ucircumflex.sc" x="0" y="0" flags="0x204"/>
    </TTGlyph>
    <TTGlyph name="Udieresis" xMin="62" yMin="-25" xMax="850" yMax="965">
      <component glyphName="U" x="0" y="0" flags="0x204"/>
      <component glyphName="dieresis" x="208" y="141" flags="0x4"/>
    </TTGlyph>
    <TTGlyph name="Udieresis.sc" xMin="55" yMin="-24" xMax="762" yMax="871">
      <component glyphName="udieresis.sc" x="0" y="0" flags="0x204"/>
    </TTGlyph>
    <TTGlyph name="Ugrave" xMin="62" yMin="-25" xMax="850" yMax="932">
      <component glyphName="U" x="0" y="0" flags="0x204"/>
      <component glyphName="grave" x="123" y="117" flags="0x4"/>
    </TTGlyph>
    <TTGlyph name="Ugrave.sc" xMin="55" yMin="-24" xMax="762" yMax="837">
      <component glyphName="ugrave.sc" x="0" y="0" flags="0x204"/>
    </TTGlyph>
    <TTGlyph name="Uhungarumlaut" xMin="62" yMin="-25" xMax="861" yMax="953">
      <component glyphName="U" x="0" y="0" flags="0x204"/>
      <component glyphName="hungarumlaut" x="216" y="141" flags="0x4"/>
    </TTGlyph>
    <TTGlyph name="Uhungarumlaut.sc" xMin="55" yMin="-24" xMax="812" yMax="859">
      <component glyphName="uhungarumlaut.sc" x="0" y="0" flags="0x204"/>
    </TTGlyph>
    <TTGlyph name="Umacron" xMin="62" yMin="-25" xMax="850" yMax="933">
      <component glyphName="U" x="0" y="0" flags="0x204"/>
      <component glyphName="macron" x="194" y="141" flags="0x4"/>
    </TTGlyph>
    <TTGlyph name="Umacron.sc" xMin="55" yMin="-24" xMax="762" yMax="839">
      <component glyphName="umacron.sc" x="0" y="0" flags="0x204"/>
    </TTGlyph>
    <TTGlyph name="Uogonek" xMin="62" yMin="-318" xMax="850" yMax="700">
      <contour>
        <pt x="480" y="-296" on="1"/>
        <pt x="451" y="-307" on="0"/>
        <pt x="388" y="-318" on="0"/>
        <pt x="348" y="-318" on="1"/>
        <pt x="257" y="-318" on="0"/>
        <pt x="177" y="-249" on="0"/>
        <pt x="177" y="-207" on="1"/>
        <pt x="177" y="-159" on="0"/>
        <pt x="247" y="-69" on="0"/>
        <pt x="328" y="-23" on="1"/>
        <pt x="206" y="-13" on="0"/>
        <pt x="62" y="98" on="0"/>
        <pt x="62" y="201" on="1"/>
        <pt x="62" y="223" on="0"/>
        <pt x="69" y="277" on="0"/>
        <pt x="74" y="302" on="1"/>
        <pt x="158" y="700" on="1"/>
        <pt x="391" y="700" on="1"/>
        <pt x="304" y="293" on="1"/>
        <pt x="303" y="283" on="0"/>
        <pt x="300" y="261" on="0"/>
        <pt x="300" y="250" on="1"/>
        <pt x="300" y="213" on="0"/>
        <pt x="352" y="179" on="0"/>
        <pt x="397" y="179" on="1"/>
        <pt x="446" y="179" on="0"/>
        <pt x="516" y="225" on="0"/>
        <pt x="529" y="288" on="1"/>
        <pt x="617" y="700" on="1"/>
        <pt x="850" y="700" on="1"/>
        <pt x="757" y="264" on="1"/>
        <pt x="731" y="144" on="0"/>
        <pt x="606" y="9" on="0"/>
        <pt x="505" y="-13" on="1"/>
        <pt x="460" y="-49" on="1"/>
        <pt x="413" y="-86" on="0"/>
        <pt x="373" y="-128" on="0"/>
        <pt x="373" y="-144" on="1"/>
        <pt x="373" y="-157" on="0"/>
        <pt x="397" y="-171" on="0"/>
        <pt x="425" y="-171" on="1"/>
        <pt x="445" y="-171" on="0"/>
        <pt x="485" y="-163" on="0"/>
        <pt x="510" y="-155" on="1"/>
      </contour>
    </TTGlyph>
    <TTGlyph name="Uogonek.sc" xMin="55" yMin="-316" xMax="762" yMax="605">
      <component glyphName="uogonek.sc" x="0" y="0" flags="0x204"/>
    </TTGlyph>
    <TTGlyph name="Uring" xMin="62" yMin="-25" xMax="850" yMax="1067">
      <component glyphName="U" x="0" y="0" flags="0x204"/>
      <component glyphName="ring" x="119" y="117" flags="0x4"/>
    </TTGlyph>
    <TTGlyph name="Uring.sc" xMin="55" yMin="-24" xMax="762" yMax="972">
      <component glyphName="uring.sc" x="0" y="0" flags="0x204"/>
    </TTGlyph>
    <TTGlyph name="V" xMin="98" yMin="0" xMax="871" yMax="700">
      <contour>
        <pt x="158" y="0" on="1"/>
        <pt x="98" y="700" on="1"/>
        <pt x="334" y="700" on="1"/>
        <pt x="367" y="211" on="1"/>
        <pt x="391" y="211" on="1"/>
        <pt x="622" y="700" on="1"/>
        <pt x="871" y="700" on="1"/>
        <pt x="516" y="0" on="1"/>
      </contour>
    </TTGlyph>
    <TTGlyph name="V.sc" xMin="82" yMin="0" xMax="790" yMax="605">
      <component glyphName="v.sc" x="0" y="0" flags="0x204"/>
    </TTGlyph>
    <TTGlyph name="W" xMin="107" yMin="0" xMax="1265" yMax="700">
      <contour>
        <pt x="135" y="0" on="1"/>
        <pt x="107" y="700" on="1"/>
        <pt x="341" y="700" on="1"/>
        <pt x="346" y="239" on="1"/>
        <pt x="355" y="239" on="1"/>
        <pt x="572" y="700" on="1"/>
        <pt x="791" y="700" on="1"/>
        <pt x="816" y="239" on="1"/>
        <pt x="824" y="239" on="1"/>
        <pt x="1022" y="700" on="1"/>
        <pt x="1265" y="700" on="1"/>
        <pt x="943" y="0" on="1"/>
        <pt x="647" y="0" on="1"/>
        <pt x="627" y="401" on="1"/>
        <pt x="620" y="401" on="1"/>
        <pt x="426" y="0" on="1"/>
      </contour>
    </TTGlyph>
    <TTGlyph name="W.sc" xMin="94" yMin="0" xMax="1090" yMax="605">
      <component glyphName="w.sc" x="0" y="0" flags="0x204"/>
    </TTGlyph>
    <TTGlyph name="Wacute" xMin="107" yMin="0" xMax="1265" yMax="953">
      <component glyphName="W" x="0" y="0" flags="0x204"/>
      <component glyphName="acute" x="424" y="141" flags="0x4"/>
    </TTGlyph>
    <TTGlyph name="Wacute.sc" xMin="94" yMin="0" xMax="1090" yMax="859">
      <component glyphName="wacute.sc" x="0" y="0" flags="0x204"/>
    </TTGlyph>
    <TTGlyph name="Wcircumflex" xMin="107" yMin="0" xMax="1265" yMax="971">
      <component glyphName="W" x="0" y="0" flags="0x204"/>
      <component glyphName="circumflex" x="361" y="141" flags="0x4"/>
    </TTGlyph>
    <TTGlyph name="Wcircumflex.sc" xMin="94" yMin="0" xMax="1090" yMax="877">
      <component glyphName="wcircumflex.sc" x="0" y="0" flags="0x204"/>
    </TTGlyph>
    <TTGlyph name="Wdieresis" xMin="107" yMin="0" xMax="1265" yMax="965">
      <component glyphName="W" x="0" y="0" flags="0x204"/>
      <component glyphName="dieresis" x="384" y="141" flags="0x4"/>
    </TTGlyph>
    <TTGlyph name="Wdieresis.sc" xMin="94" yMin="0" xMax="1090" yMax="871">
      <component glyphName="wdieresis.sc" x="0" y="0" flags="0x204"/>
    </TTGlyph>
    <TTGlyph name="Wgrave" xMin="107" yMin="0" xMax="1265" yMax="956">
      <component glyphName="W" x="0" y="0" flags="0x204"/>
      <component glyphName="grave" x="290" y="141" flags="0x4"/>
    </TTGlyph>
    <TTGlyph name="Wgrave.sc" xMin="94" yMin="0" xMax="1090" yMax="862">
      <component glyphName="wgrave.sc" x="0" y="0" flags="0x204"/>
    </TTGlyph>
    <TTGlyph name="X" xMin="-54" yMin="0" xMax="902" yMax="700">
      <contour>
        <pt x="-54" y="1" on="1"/>
        <pt x="295" y="379" on="1"/>
        <pt x="111" y="699" on="1"/>
        <pt x="111" y="700" on="1"/>
        <pt x="366" y="700" on="1"/>
        <pt x="466" y="516" on="1"/>
        <pt x="628" y="700" on="1"/>
        <pt x="902" y="700" on="1"/>
        <pt x="902" y="699" on="1"/>
        <pt x="572" y="342" on="1"/>
        <pt x="769" y="1" on="1"/>
        <pt x="769" y="0" on="1"/>
        <pt x="515" y="0" on="1"/>
        <pt x="402" y="207" on="1"/>
        <pt x="220" y="0" on="1"/>
        <pt x="-54" y="0" on="1"/>
      </contour>
    </TTGlyph>
    <TTGlyph name="X.sc" xMin="-44" yMin="0" xMax="804" yMax="605">
      <component glyphName="x.sc" x="0" y="0" flags="0x204"/>
    </TTGlyph>
    <TTGlyph name="Y" xMin="82" yMin="0" xMax="885" yMax="700">
      <contour>
        <pt x="626" y="700" on="1"/>
        <pt x="885" y="700" on="1"/>
        <pt x="504" y="201" on="1"/>
        <pt x="461" y="0" on="1"/>
        <pt x="228" y="0" on="1"/>
        <pt x="271" y="202" on="1"/>
        <pt x="82" y="700" on="1"/>
        <pt x="318" y="700" on="1"/>
        <pt x="418" y="424" on="1"/>
        <pt x="427" y="424" on="1"/>
      </contour>
    </TTGlyph>
    <TTGlyph name="Y.sc" xMin="61" yMin="0" xMax="791" yMax="605">
      <component glyphName="y.sc" x="0" y="0" flags="0x204"/>
    </TTGlyph>
    <TTGlyph name="Yacute" xMin="82" yMin="0" xMax="885" yMax="929">
      <component glyphName="Y" x="0" y="0" flags="0x204"/>
      <component glyphName="acute" x="208" y="117" flags="0x4"/>
    </TTGlyph>
    <TTGlyph name="Yacute.sc" xMin="61" yMin="0" xMax="791" yMax="835">
      <component glyphName="yacute.sc" x="0" y="0" flags="0x204"/>
    </TTGlyph>
    <TTGlyph name="Ycircumflex" xMin="82" yMin="0" xMax="885" yMax="971">
      <component glyphName="Y" x="0" y="0" flags="0x204"/>
      <component glyphName="circumflex" x="164" y="141" flags="0x4"/>
    </TTGlyph>
    <TTGlyph name="Ycircumflex.sc" xMin="61" yMin="0" xMax="791" yMax="877">
      <component glyphName="ycircumflex.sc" x="0" y="0" flags="0x204"/>
    </TTGlyph>
    <TTGlyph name="Ydieresis" xMin="82" yMin="0" xMax="885" yMax="965">
      <component glyphName="Y" x="0" y="0" flags="0x204"/>
      <component glyphName="dieresis" x="187" y="141" flags="0x4"/>
    </TTGlyph>
    <TTGlyph name="Ydieresis.sc" xMin="61" yMin="0" xMax="791" yMax="871">
      <component glyphName="ydieresis.sc" x="0" y="0" flags="0x204"/>
    </TTGlyph>
    <TTGlyph name="Ygrave" xMin="82" yMin="0" xMax="885" yMax="932">
      <component glyphName="Y" x="0" y="0" flags="0x204"/>
      <component glyphName="grave" x="102" y="117" flags="0x4"/>
    </TTGlyph>
    <TTGlyph name="Ygrave.sc" xMin="61" yMin="0" xMax="791" yMax="838">
      <component glyphName="ygrave.sc" x="0" y="0" flags="0x204"/>
    </TTGlyph>
    <TTGlyph name="Z" xMin="-9" yMin="0" xMax="777" yMax="700">
      <contour>
        <pt x="-9" y="0" on="1"/>
        <pt x="31" y="191" on="1"/>
        <pt x="432" y="513" on="1"/>
        <pt x="109" y="513" on="1"/>
        <pt x="165" y="700" on="1"/>
        <pt x="777" y="700" on="1"/>
        <pt x="739" y="524" on="1"/>
        <pt x="329" y="188" on="1"/>
        <pt x="672" y="188" on="1"/>
        <pt x="633" y="0" on="1"/>
      </contour>
    </TTGlyph>
    <TTGlyph name="Z.sc" xMin="-7" yMin="0" xMax="697" yMax="605">
      <component glyphName="z.sc" x="0" y="0" flags="0x204"/>
    </TTGlyph>
    <TTGlyph name="Zacute" xMin="-9" yMin="0" xMax="777" yMax="953">
      <component glyphName="Z" x="0" y="0" flags="0x204"/>
      <component glyphName="acute" x="192" y="141" flags="0x4"/>
    </TTGlyph>
    <TTGlyph name="Zacute.sc" xMin="-7" yMin="0" xMax="712" yMax="859">
      <component glyphName="zacute.sc" x="0" y="0" flags="0x204"/>
    </TTGlyph>
    <TTGlyph name="Zcaron" xMin="-9" yMin="0" xMax="781" yMax="971">
      <component glyphName="Z" x="0" y="0" flags="0x204"/>
      <component glyphName="caron" x="163" y="141" flags="0x4"/>
    </TTGlyph>
    <TTGlyph name="Zcaron.sc" xMin="-7" yMin="0" xMax="726" yMax="877">
      <component glyphName="zcaron.sc" x="0" y="0" flags="0x204"/>
    </TTGlyph>
    <TTGlyph name="Zdotaccent" xMin="-9" yMin="0" xMax="777" yMax="968">
      <component glyphName="Z" x="0" y="0" flags="0x204"/>
      <component glyphName="dotaccent" x="158" y="141" flags="0x4"/>
    </TTGlyph>
    <TTGlyph name="Zdotaccent.sc" xMin="-7" yMin="0" xMax="697" yMax="874">
      <component glyphName="zdotaccent.sc" x="0" y="0" flags="0x204"/>
    </TTGlyph>
    <TTGlyph name="a" xMin="5" yMin="-16" xMax="591" yMax="578">
      <contour>
        <pt x="304" y="401" on="1"/>
        <pt x="258" y="401" on="0"/>
        <pt x="139" y="373" on="0"/>
        <pt x="91" y="348" on="1"/>
        <pt x="90" y="348" on="1"/>
        <pt x="129" y="536" on="1"/>
        <pt x="178" y="555" on="0"/>
        <pt x="291" y="578" on="0"/>
        <pt x="347" y="578" on="1"/>
        <pt x="468" y="578" on="0"/>
        <pt x="591" y="469" on="0"/>
        <pt x="591" y="373" on="1"/>
        <pt x="591" y="354" on="0"/>
        <pt x="586" y="315" on="0"/>
        <pt x="582" y="293" on="1"/>
        <pt x="519" y="0" on="1"/>
        <pt x="318" y="0" on="1"/>
        <pt x="324" y="61" on="1"/>
        <pt x="296" y="27" on="0"/>
        <pt x="211" y="-16" on="0"/>
        <pt x="160" y="-16" on="1"/>
        <pt x="88" y="-16" on="0"/>
        <pt x="5" y="59" on="0"/>
        <pt x="5" y="122" on="1"/>
        <pt x="5" y="161" on="0"/>
        <pt x="41" y="236" on="0"/>
        <pt x="81" y="264" on="1"/>
        <pt x="121" y="292" on="0"/>
        <pt x="261" y="329" on="0"/>
        <pt x="372" y="334" on="1"/>
        <pt x="373" y="341" on="0"/>
        <pt x="375" y="352" on="0"/>
        <pt x="375" y="358" on="1"/>
        <pt x="375" y="380" on="0"/>
        <pt x="341" y="401" on="0"/>
      </contour>
      <contour>
        <pt x="217" y="165" on="1"/>
        <pt x="217" y="149" on="0"/>
        <pt x="239" y="129" on="0"/>
        <pt x="260" y="129" on="1"/>
        <pt x="280" y="129" on="0"/>
        <pt x="322" y="147" on="0"/>
        <pt x="335" y="159" on="1"/>
        <pt x="351" y="233" on="1"/>
        <pt x="300" y="229" on="0"/>
        <pt x="244" y="212" on="0"/>
        <pt x="231" y="199" on="1"/>
        <pt x="224" y="191" on="0"/>
        <pt x="217" y="173" on="0"/>
      </contour>
    </TTGlyph>
    <TTGlyph name="a.sc" xMin="-33" yMin="0" xMax="689" yMax="606">
      <contour>
        <pt x="460" y="0" on="1"/>
        <pt x="457" y="102" on="1"/>
        <pt x="257" y="102" on="1"/>
        <pt x="210" y="0" on="1"/>
        <pt x="-33" y="0" on="1"/>
        <pt x="274" y="606" on="1"/>
        <pt x="638" y="606" on="1"/>
        <pt x="689" y="0" on="1"/>
      </contour>
      <contour>
        <pt x="405" y="424" on="1"/>
        <pt x="322" y="250" on="1"/>
        <pt x="454" y="250" on="1"/>
        <pt x="444" y="424" on="1"/>
      </contour>
    </TTGlyph>
    <TTGlyph name="aacute" xMin="5" yMin="-16" xMax="675" yMax="816">
      <component glyphName="a" x="0" y="0" flags="0x204"/>
      <component glyphName="acute" x="100" y="4" flags="0x4"/>
    </TTGlyph>
    <TTGlyph name="aacute.sc" xMin="-33" yMin="0" xMax="758" yMax="859">
      <component glyphName="a.sc" x="0" y="0" flags="0x204"/>
      <component glyphName="acute" x="183" y="47" flags="0x4"/>
    </TTGlyph>
    <TTGlyph name="abreve" xMin="5" yMin="-16" xMax="638" yMax="849">
      <component glyphName="a" x="0" y="0" flags="0x204"/>
      <component glyphName="breve" x="62" y="4" flags="0x4"/>
    </TTGlyph>
    <TTGlyph name="abreve.sc" xMin="-33" yMin="0" xMax="721" yMax="892">
      <component glyphName="a.sc" x="0" y="0" flags="0x204"/>
      <component glyphName="breve" x="145" y="47" flags="0x4"/>
    </TTGlyph>
    <TTGlyph name="acircumflex" xMin="5" yMin="-16" xMax="627" yMax="834">
      <component glyphName="a" x="0" y="0" flags="0x204"/>
      <component glyphName="circumflex" x="51" y="4" flags="0x4"/>
    </TTGlyph>
    <TTGlyph name="acircumflex.sc" xMin="-33" yMin="0" xMax="710" yMax="877">
      <component glyphName="a.sc" x="0" y="0" flags="0x204"/>
      <component glyphName="circumflex" x="134" y="47" flags="0x4"/>
    </TTGlyph>
    <TTGlyph name="acute" xMin="166" yMin="627" xMax="575" yMax="812">
      <contour>
        <pt x="359" y="627" on="1"/>
        <pt x="166" y="627" on="1"/>
        <pt x="329" y="812" on="1"/>
        <pt x="575" y="812" on="1"/>
        <pt x="571" y="795" on="1"/>
      </contour>
    </TTGlyph>
    <TTGlyph name="adieresis" xMin="5" yMin="-16" xMax="664" yMax="828">
      <component glyphName="a" x="0" y="0" flags="0x204"/>
      <component glyphName="dieresis" x="74" y="4" flags="0x4"/>
    </TTGlyph>
    <TTGlyph name="adieresis.sc" xMin="-33" yMin="0" xMax="747" yMax="871">
      <component glyphName="a.sc" x="0" y="0" flags="0x204"/>
      <component glyphName="dieresis" x="157" y="47" flags="0x4"/>
    </TTGlyph>
    <TTGlyph name="ae" xMin="5" yMin="-20" xMax="936" yMax="581">
      <contour>
        <pt x="690" y="581" on="1"/>
        <pt x="750" y="581" on="0"/>
        <pt x="842" y="545" on="0"/>
        <pt x="904" y="480" on="0"/>
        <pt x="936" y="391" on="0"/>
        <pt x="936" y="338" on="1"/>
        <pt x="936" y="312" on="0"/>
        <pt x="926" y="257" on="0"/>
        <pt x="918" y="232" on="1"/>
        <pt x="566" y="232" on="1"/>
        <pt x="569" y="187" on="0"/>
        <pt x="634" y="147" on="0"/>
        <pt x="691" y="147" on="1"/>
        <pt x="717" y="147" on="0"/>
        <pt x="781" y="159" on="0"/>
        <pt x="837" y="173" on="0"/>
        <pt x="878" y="188" on="0"/>
        <pt x="882" y="191" on="1"/>
        <pt x="845" y="20" on="1"/>
        <pt x="808" y="3" on="0"/>
        <pt x="710" y="-20" on="0"/>
        <pt x="652" y="-20" on="1"/>
        <pt x="565" y="-20" on="0"/>
        <pt x="446" y="32" on="0"/>
        <pt x="413" y="78" on="1"/>
        <pt x="368" y="38" on="0"/>
        <pt x="247" y="-16" on="0"/>
        <pt x="173" y="-16" on="1"/>
        <pt x="91" y="-16" on="0"/>
        <pt x="5" y="59" on="0"/>
        <pt x="5" y="122" on="1"/>
        <pt x="5" y="161" on="0"/>
        <pt x="41" y="236" on="0"/>
        <pt x="81" y="264" on="1"/>
        <pt x="121" y="292" on="0"/>
        <pt x="261" y="329" on="0"/>
        <pt x="374" y="333" on="1"/>
        <pt x="375" y="341" on="0"/>
        <pt x="375" y="357" on="0"/>
        <pt x="375" y="358" on="1"/>
        <pt x="375" y="380" on="0"/>
        <pt x="341" y="401" on="0"/>
        <pt x="304" y="401" on="1"/>
        <pt x="258" y="401" on="0"/>
        <pt x="139" y="373" on="0"/>
        <pt x="91" y="348" on="1"/>
        <pt x="90" y="348" on="1"/>
        <pt x="129" y="536" on="1"/>
        <pt x="178" y="555" on="0"/>
        <pt x="290" y="578" on="0"/>
        <pt x="346" y="578" on="1"/>
        <pt x="403" y="578" on="0"/>
        <pt x="486" y="551" on="0"/>
        <pt x="514" y="520" on="1"/>
        <pt x="548" y="549" on="0"/>
        <pt x="637" y="581" on="0"/>
      </contour>
      <contour>
        <pt x="678" y="423" on="1"/>
        <pt x="641" y="422" on="0"/>
        <pt x="587" y="368" on="0"/>
        <pt x="575" y="328" on="1"/>
        <pt x="741" y="328" on="1"/>
        <pt x="742" y="334" on="0"/>
        <pt x="743" y="345" on="0"/>
        <pt x="743" y="349" on="1"/>
        <pt x="743" y="380" on="0"/>
        <pt x="712" y="423" on="0"/>
      </contour>
      <contour>
        <pt x="216" y="165" on="1"/>
        <pt x="216" y="148" on="0"/>
        <pt x="243" y="129" on="0"/>
        <pt x="265" y="129" on="1"/>
        <pt x="294" y="129" on="0"/>
        <pt x="351" y="156" on="0"/>
        <pt x="375" y="172" on="1"/>
        <pt x="373" y="185" on="0"/>
        <pt x="370" y="213" on="0"/>
        <pt x="370" y="228" on="1"/>
        <pt x="370" y="237" on="1"/>
        <pt x="314" y="232" on="0"/>
        <pt x="251" y="216" on="0"/>
        <pt x="236" y="204" on="1"/>
        <pt x="226" y="195" on="0"/>
        <pt x="216" y="175" on="0"/>
      </contour>
    </TTGlyph>
    <TTGlyph name="ae.sc" xMin="-63" yMin="0" xMax="1073" yMax="605">
      <contour>
        <pt x="1006" y="161" on="1"/>
        <pt x="957" y="0" on="1"/>
        <pt x="428" y="0" on="1"/>
        <pt x="451" y="108" on="1"/>
        <pt x="259" y="108" on="1"/>
        <pt x="189" y="0" on="1"/>
        <pt x="-63" y="0" on="1"/>
        <pt x="346" y="605" on="1"/>
        <pt x="1073" y="605" on="1"/>
        <pt x="1057" y="445" on="1"/>
        <pt x="748" y="445" on="1"/>
        <pt x="731" y="369" on="1"/>
        <pt x="969" y="369" on="1"/>
        <pt x="941" y="236" on="1"/>
        <pt x="703" y="236" on="1"/>
        <pt x="687" y="161" on="1"/>
      </contour>
      <contour>
        <pt x="475" y="442" on="1"/>
        <pt x="357" y="259" on="1"/>
        <pt x="483" y="259" on="1"/>
        <pt x="522" y="442" on="1"/>
      </contour>
    </TTGlyph>
    <TTGlyph name="aeacute" xMin="5" yMin="-20" xMax="936" yMax="817">
      <component glyphName="ae" x="0" y="0" flags="0x204"/>
      <component glyphName="acute" x="235" y="5" flags="0x4"/>
    </TTGlyph>
    <TTGlyph name="aeacute.sc" xMin="-63" yMin="0" xMax="1073" yMax="859">
      <component glyphName="ae.sc" x="0" y="0" flags="0x204"/>
      <component glyphName="acute" x="415" y="47" flags="0x4"/>
    </TTGlyph>
    <TTGlyph name="agrave" xMin="5" yMin="-16" xMax="591" yMax="819">
      <component glyphName="a" x="0" y="0" flags="0x204"/>
      <component glyphName="grave" x="-6" y="4" flags="0x4"/>
    </TTGlyph>
    <TTGlyph name="agrave.sc" xMin="-33" yMin="0" xMax="689" yMax="862">
      <component glyphName="a.sc" x="0" y="0" flags="0x204"/>
      <component glyphName="grave" x="77" y="47" flags="0x4"/>
    </TTGlyph>
    <TTGlyph name="amacron" xMin="5" yMin="-16" xMax="631" yMax="796">
      <component glyphName="a" x="0" y="0" flags="0x204"/>
      <component glyphName="macron" x="60" y="4" flags="0x4"/>
    </TTGlyph>
    <TTGlyph name="amacron.sc" xMin="-33" yMin="0" xMax="714" yMax="839">
      <component glyphName="a.sc" x="0" y="0" flags="0x204"/>
      <component glyphName="macron" x="143" y="47" flags="0x4"/>
    </TTGlyph>
    <TTGlyph name="ampersand" xMin="14" yMin="-21" xMax="811" yMax="700">
      <contour>
        <pt x="233" y="-21" on="1"/>
        <pt x="132" y="-21" on="0"/>
        <pt x="14" y="78" on="0"/>
        <pt x="14" y="163" on="1"/>
        <pt x="14" y="208" on="0"/>
        <pt x="51" y="284" on="0"/>
        <pt x="115" y="349" on="0"/>
        <pt x="202" y="406" on="0"/>
        <pt x="252" y="432" on="1"/>
        <pt x="175" y="540" on="1"/>
        <pt x="210" y="700" on="1"/>
        <pt x="729" y="700" on="1"/>
        <pt x="714" y="534" on="1"/>
        <pt x="411" y="534" on="1"/>
        <pt x="574" y="305" on="1"/>
        <pt x="632" y="345" on="0"/>
        <pt x="750" y="429" on="0"/>
        <pt x="810" y="472" on="1"/>
        <pt x="811" y="472" on="1"/>
        <pt x="763" y="240" on="1"/>
        <pt x="739" y="223" on="0"/>
        <pt x="689" y="187" on="0"/>
        <pt x="663" y="169" on="1"/>
        <pt x="780" y="0" on="1"/>
        <pt x="549" y="0" on="1"/>
        <pt x="502" y="65" on="1"/>
        <pt x="438" y="27" on="0"/>
        <pt x="305" y="-21" on="0"/>
      </contour>
      <contour>
        <pt x="223" y="195" on="1"/>
        <pt x="223" y="176" on="0"/>
        <pt x="251" y="151" on="0"/>
        <pt x="279" y="151" on="1"/>
        <pt x="310" y="151" on="0"/>
        <pt x="378" y="179" on="0"/>
        <pt x="415" y="201" on="1"/>
        <pt x="342" y="305" on="1"/>
        <pt x="278" y="271" on="0"/>
        <pt x="223" y="220" on="0"/>
      </contour>
    </TTGlyph>
    <TTGlyph name="ampersand.sc" xMin="12" yMin="-21" xMax="733" yMax="605">
      <contour>
        <pt x="657" y="605" on="1"/>
        <pt x="643" y="449" on="1"/>
        <pt x="381" y="449" on="1"/>
        <pt x="521" y="265" on="1"/>
        <pt x="575" y="300" on="0"/>
        <pt x="681" y="370" on="0"/>
        <pt x="732" y="405" on="1"/>
        <pt x="733" y="405" on="1"/>
        <pt x="691" y="205" on="1"/>
        <pt x="671" y="191" on="0"/>
        <pt x="627" y="161" on="0"/>
        <pt x="605" y="147" on="1"/>
        <pt x="716" y="0" on="1"/>
        <pt x="498" y="0" on="1"/>
        <pt x="456" y="53" on="1"/>
        <pt x="398" y="21" on="0"/>
        <pt x="275" y="-21" on="0"/>
        <pt x="210" y="-21" on="1"/>
        <pt x="117" y="-21" on="0"/>
        <pt x="12" y="64" on="0"/>
        <pt x="12" y="133" on="1"/>
        <pt x="12" y="173" on="0"/>
        <pt x="44" y="239" on="0"/>
        <pt x="100" y="295" on="0"/>
        <pt x="177" y="344" on="0"/>
        <pt x="222" y="368" on="1"/>
        <pt x="151" y="461" on="1"/>
        <pt x="183" y="605" on="1"/>
      </contour>
      <contour>
        <pt x="214" y="167" on="1"/>
        <pt x="214" y="151" on="0"/>
        <pt x="235" y="132" on="0"/>
        <pt x="257" y="132" on="1"/>
        <pt x="281" y="132" on="0"/>
        <pt x="335" y="153" on="0"/>
        <pt x="372" y="173" on="1"/>
        <pt x="308" y="256" on="1"/>
        <pt x="257" y="226" on="0"/>
        <pt x="214" y="186" on="0"/>
      </contour>
    </TTGlyph>
    <TTGlyph name="aogonek" xMin="5" yMin="-317" xMax="591" yMax="578">
      <contour>
        <pt x="304" y="401" on="1"/>
        <pt x="258" y="401" on="0"/>
        <pt x="139" y="373" on="0"/>
        <pt x="91" y="348" on="1"/>
        <pt x="90" y="348" on="1"/>
        <pt x="129" y="536" on="1"/>
        <pt x="178" y="555" on="0"/>
        <pt x="291" y="578" on="0"/>
        <pt x="347" y="578" on="1"/>
        <pt x="468" y="578" on="0"/>
        <pt x="591" y="469" on="0"/>
        <pt x="591" y="373" on="1"/>
        <pt x="591" y="354" on="0"/>
        <pt x="586" y="315" on="0"/>
        <pt x="582" y="293" on="1"/>
        <pt x="519" y="0" on="1"/>
        <pt x="459" y="-48" on="1"/>
        <pt x="412" y="-85" on="0"/>
        <pt x="372" y="-127" on="0"/>
        <pt x="372" y="-143" on="1"/>
        <pt x="372" y="-156" on="0"/>
        <pt x="396" y="-170" on="0"/>
        <pt x="424" y="-170" on="1"/>
        <pt x="444" y="-170" on="0"/>
        <pt x="484" y="-162" on="0"/>
        <pt x="509" y="-154" on="1"/>
        <pt x="479" y="-295" on="1"/>
        <pt x="450" y="-306" on="0"/>
        <pt x="387" y="-317" on="0"/>
        <pt x="347" y="-317" on="1"/>
        <pt x="256" y="-317" on="0"/>
        <pt x="176" y="-248" on="0"/>
        <pt x="176" y="-206" on="1"/>
        <pt x="176" y="-153" on="0"/>
        <pt x="264" y="-52" on="0"/>
        <pt x="369" y="0" on="1"/>
        <pt x="318" y="0" on="1"/>
        <pt x="324" y="61" on="1"/>
        <pt x="296" y="27" on="0"/>
        <pt x="211" y="-16" on="0"/>
        <pt x="160" y="-16" on="1"/>
        <pt x="88" y="-16" on="0"/>
        <pt x="5" y="59" on="0"/>
        <pt x="5" y="122" on="1"/>
        <pt x="5" y="161" on="0"/>
        <pt x="41" y="236" on="0"/>
        <pt x="81" y="264" on="1"/>
        <pt x="121" y="292" on="0"/>
        <pt x="261" y="329" on="0"/>
        <pt x="372" y="334" on="1"/>
        <pt x="373" y="341" on="0"/>
        <pt x="375" y="352" on="0"/>
        <pt x="375" y="358" on="1"/>
        <pt x="375" y="380" on="0"/>
        <pt x="341" y="401" on="0"/>
      </contour>
      <contour>
        <pt x="217" y="165" on="1"/>
        <pt x="217" y="149" on="0"/>
        <pt x="239" y="129" on="0"/>
        <pt x="260" y="129" on="1"/>
        <pt x="280" y="129" on="0"/>
        <pt x="322" y="147" on="0"/>
        <pt x="335" y="159" on="1"/>
        <pt x="351" y="233" on="1"/>
        <pt x="300" y="229" on="0"/>
        <pt x="244" y="212" on="0"/>
        <pt x="231" y="199" on="1"/>
        <pt x="224" y="191" on="0"/>
        <pt x="217" y="173" on="0"/>
      </contour>
    </TTGlyph>
    <TTGlyph name="aogonek.sc" xMin="-33" yMin="-317" xMax="689" yMax="606">
      <contour>
        <pt x="649" y="-295" on="1"/>
        <pt x="620" y="-306" on="0"/>
        <pt x="557" y="-317" on="0"/>
        <pt x="517" y="-317" on="1"/>
        <pt x="426" y="-317" on="0"/>
        <pt x="346" y="-248" on="0"/>
        <pt x="346" y="-206" on="1"/>
        <pt x="346" y="-153" on="0"/>
        <pt x="434" y="-52" on="0"/>
        <pt x="539" y="0" on="1"/>
        <pt x="460" y="0" on="1"/>
        <pt x="457" y="102" on="1"/>
        <pt x="257" y="102" on="1"/>
        <pt x="210" y="0" on="1"/>
        <pt x="-33" y="0" on="1"/>
        <pt x="274" y="606" on="1"/>
        <pt x="638" y="606" on="1"/>
        <pt x="689" y="0" on="1"/>
        <pt x="629" y="-48" on="1"/>
        <pt x="582" y="-85" on="0"/>
        <pt x="542" y="-127" on="0"/>
        <pt x="542" y="-143" on="1"/>
        <pt x="542" y="-156" on="0"/>
        <pt x="566" y="-170" on="0"/>
        <pt x="594" y="-170" on="1"/>
        <pt x="614" y="-170" on="0"/>
        <pt x="654" y="-162" on="0"/>
        <pt x="679" y="-154" on="1"/>
      </contour>
      <contour>
        <pt x="405" y="424" on="1"/>
        <pt x="322" y="250" on="1"/>
        <pt x="454" y="250" on="1"/>
        <pt x="444" y="424" on="1"/>
      </contour>
    </TTGlyph>
    <TTGlyph name="aring" xMin="5" yMin="-16" xMax="599" yMax="954">
      <component glyphName="a" x="0" y="0" flags="0x204"/>
      <component glyphName="ring" x="-10" y="4" flags="0x4"/>
    </TTGlyph>
    <TTGlyph name="aring.sc" xMin="-33" yMin="0" xMax="689" yMax="997">
      <component glyphName="a.sc" x="0" y="0" flags="0x204"/>
      <component glyphName="ring" x="73" y="47" flags="0x4"/>
    </TTGlyph>
    <TTGlyph name="aringacute" xMin="5" yMin="-16" xMax="754" yMax="1189">
      <component glyphName="a" x="0" y="0" flags="0x204"/>
      <component glyphName="ring" x="-10" y="4" flags="0x4"/>
      <component glyphName="acute" x="179" y="377" flags="0x4"/>
    </TTGlyph>
    <TTGlyph name="aringacute.sc" xMin="-33" yMin="0" xMax="837" yMax="1233">
      <component glyphName="a.sc" x="0" y="0" flags="0x204"/>
      <component glyphName="ring" x="73" y="47" flags="0x4"/>
      <component glyphName="acute" x="262" y="421" flags="0x4"/>
    </TTGlyph>
    <TTGlyph name="asciicircum" xMin="53" yMin="325" xMax="697" yMax="700">
      <contour>
        <pt x="602" y="700" on="1"/>
        <pt x="697" y="325" on="1"/>
        <pt x="491" y="325" on="1"/>
        <pt x="444" y="517" on="1"/>
        <pt x="409" y="517" on="1"/>
        <pt x="280" y="325" on="1"/>
        <pt x="53" y="325" on="1"/>
        <pt x="307" y="700" on="1"/>
      </contour>
    </TTGlyph>
    <TTGlyph name="asciicircum.tab" xMin="50" yMin="325" xMax="694" yMax="700">
      <component glyphName="asciicircum" x="-3" y="0" flags="0x4"/>
    </TTGlyph>
    <TTGlyph name="asciitilde" xMin="50" yMin="185" xMax="719" yMax="517">
      <contour>
        <pt x="498" y="196" on="1"/>
        <pt x="464" y="196" on="0"/>
        <pt x="402" y="220" on="0"/>
        <pt x="356" y="247" on="1"/>
        <pt x="312" y="272" on="0"/>
        <pt x="264" y="290" on="0"/>
        <pt x="239" y="290" on="1"/>
        <pt x="194" y="290" on="0"/>
        <pt x="102" y="231" on="0"/>
        <pt x="51" y="185" on="1"/>
        <pt x="50" y="185" on="1"/>
        <pt x="101" y="425" on="1"/>
        <pt x="141" y="462" on="0"/>
        <pt x="223" y="505" on="0"/>
        <pt x="271" y="505" on="1"/>
        <pt x="304" y="505" on="0"/>
        <pt x="367" y="482" on="0"/>
        <pt x="413" y="455" on="1"/>
        <pt x="457" y="430" on="0"/>
        <pt x="505" y="412" on="0"/>
        <pt x="530" y="412" on="1"/>
        <pt x="575" y="412" on="0"/>
        <pt x="667" y="471" on="0"/>
        <pt x="718" y="517" on="1"/>
        <pt x="719" y="517" on="1"/>
        <pt x="668" y="276" on="1"/>
        <pt x="627" y="239" on="0"/>
        <pt x="546" y="196" on="0"/>
      </contour>
    </TTGlyph>
    <TTGlyph name="asciitilde.tab" xMin="43" yMin="185" xMax="712" yMax="517">
      <component glyphName="asciitilde" x="-7" y="0" flags="0x4"/>
    </TTGlyph>
    <TTGlyph name="asterisk" xMin="115" yMin="240" xMax="585" yMax="713">
      <contour>
        <pt x="400" y="244" on="1"/>
        <pt x="369" y="240" on="1"/>
        <pt x="303" y="328" on="1"/>
        <pt x="199" y="297" on="1"/>
        <pt x="176" y="317" on="1"/>
        <pt x="204" y="425" on="1"/>
        <pt x="115" y="487" on="1"/>
        <pt x="117" y="519" on="1"/>
        <pt x="216" y="563" on="1"/>
        <pt x="209" y="672" on="1"/>
        <pt x="236" y="689" on="1"/>
        <pt x="333" y="639" on="1"/>
        <pt x="414" y="713" on="1"/>
        <pt x="444" y="703" on="1"/>
        <pt x="466" y="594" on="1"/>
        <pt x="574" y="577" on="1"/>
        <pt x="585" y="548" on="1"/>
        <pt x="512" y="463" on="1"/>
        <pt x="566" y="369" on="1"/>
        <pt x="550" y="343" on="1"/>
        <pt x="439" y="346" on="1"/>
      </contour>
    </TTGlyph>
    <TTGlyph name="at" xMin="73" yMin="-135" xMax="1058" yMax="810">
      <contour>
        <pt x="787" y="122" on="1"/>
        <pt x="744" y="122" on="0"/>
        <pt x="654" y="151" on="0"/>
        <pt x="627" y="192" on="1"/>
        <pt x="604" y="164" on="0"/>
        <pt x="531" y="118" on="0"/>
        <pt x="478" y="118" on="1"/>
        <pt x="422" y="118" on="0"/>
        <pt x="356" y="174" on="0"/>
        <pt x="356" y="223" on="1"/>
        <pt x="356" y="252" on="0"/>
        <pt x="382" y="309" on="0"/>
        <pt x="413" y="330" on="1"/>
        <pt x="442" y="351" on="0"/>
        <pt x="547" y="380" on="0"/>
        <pt x="631" y="384" on="1"/>
        <pt x="632" y="388" on="0"/>
        <pt x="633" y="395" on="0"/>
        <pt x="633" y="399" on="1"/>
        <pt x="633" y="417" on="0"/>
        <pt x="607" y="433" on="0"/>
        <pt x="581" y="433" on="1"/>
        <pt x="546" y="433" on="0"/>
        <pt x="457" y="411" on="0"/>
        <pt x="420" y="393" on="1"/>
        <pt x="419" y="393" on="1"/>
        <pt x="449" y="534" on="1"/>
        <pt x="486" y="549" on="0"/>
        <pt x="568" y="567" on="0"/>
        <pt x="611" y="567" on="1"/>
        <pt x="702" y="567" on="0"/>
        <pt x="796" y="483" on="0"/>
        <pt x="796" y="411" on="1"/>
        <pt x="796" y="398" on="0"/>
        <pt x="793" y="368" on="0"/>
        <pt x="789" y="352" on="1"/>
        <pt x="782" y="320" on="1"/>
        <pt x="780" y="312" on="0"/>
        <pt x="773" y="285" on="0"/>
        <pt x="773" y="275" on="1"/>
        <pt x="774" y="258" on="0"/>
        <pt x="794" y="242" on="0"/>
        <pt x="813" y="242" on="1"/>
        <pt x="835" y="242" on="0"/>
        <pt x="869" y="274" on="0"/>
        <pt x="892" y="325" on="0"/>
        <pt x="904" y="392" on="0"/>
        <pt x="904" y="427" on="1"/>
        <pt x="904" y="538" on="0"/>
        <pt x="755" y="666" on="0"/>
        <pt x="619" y="666" on="1"/>
        <pt x="510" y="666" on="0"/>
        <pt x="363" y="590" on="0"/>
        <pt x="274" y="474" on="0"/>
        <pt x="237" y="330" on="0"/>
        <pt x="237" y="263" on="1"/>
        <pt x="237" y="197" on="0"/>
        <pt x="283" y="100" on="0"/>
        <pt x="365" y="38" on="0"/>
        <pt x="482" y="9" on="0"/>
        <pt x="551" y="9" on="1"/>
        <pt x="615" y="9" on="0"/>
        <pt x="733" y="31" on="0"/>
        <pt x="795" y="50" on="1"/>
        <pt x="760" y="-100" on="1"/>
        <pt x="709" y="-116" on="0"/>
        <pt x="589" y="-135" on="0"/>
        <pt x="529" y="-135" on="1"/>
        <pt x="432" y="-135" on="0"/>
        <pt x="264" y="-89" on="0"/>
        <pt x="143" y="7" on="0"/>
        <pt x="73" y="157" on="0"/>
        <pt x="73" y="260" on="1"/>
        <pt x="73" y="356" on="0"/>
        <pt x="137" y="552" on="0"/>
        <pt x="270" y="710" on="0"/>
        <pt x="479" y="810" on="0"/>
        <pt x="623" y="810" on="1"/>
        <pt x="726" y="810" on="0"/>
        <pt x="889" y="757" on="0"/>
        <pt x="1000" y="661" on="0"/>
        <pt x="1058" y="523" on="0"/>
        <pt x="1058" y="439" on="1"/>
        <pt x="1058" y="371" on="0"/>
        <pt x="1023" y="255" on="0"/>
        <pt x="955" y="170" on="0"/>
        <pt x="853" y="122" on="0"/>
      </contour>
      <contour>
        <pt x="548" y="228" on="1"/>
        <pt x="564" y="228" on="0"/>
        <pt x="593" y="241" on="0"/>
        <pt x="603" y="250" on="1"/>
        <pt x="615" y="307" on="1"/>
        <pt x="578" y="303" on="0"/>
        <pt x="537" y="291" on="0"/>
        <pt x="527" y="281" on="1"/>
        <pt x="521" y="275" on="0"/>
        <pt x="516" y="262" on="0"/>
        <pt x="516" y="255" on="1"/>
        <pt x="516" y="242" on="0"/>
        <pt x="533" y="228" on="0"/>
      </contour>
    </TTGlyph>
    <TTGlyph name="at.cap" xMin="75" yMin="-123" xMax="1060" yMax="822">
      <component glyphName="at" x="2" y="12" flags="0x4"/>
    </TTGlyph>
    <TTGlyph name="atilde" xMin="5" yMin="-16" xMax="635" yMax="838">
      <component glyphName="a" x="0" y="0" flags="0x204"/>
      <component glyphName="tilde" x="51" y="4" flags="0x4"/>
    </TTGlyph>
    <TTGlyph name="atilde.sc" xMin="-33" yMin="0" xMax="718" yMax="881">
      <component glyphName="a.sc" x="0" y="0" flags="0x204"/>
      <component glyphName="tilde" x="134" y="47" flags="0x4"/>
    </TTGlyph>
    <TTGlyph name="b" xMin="7" yMin="-17" xMax="679" yMax="784">
      <contour>
        <pt x="396" y="784" on="1"/>
        <pt x="338" y="507" on="1"/>
        <pt x="363" y="537" on="0"/>
        <pt x="439" y="574" on="0"/>
        <pt x="486" y="574" on="1"/>
        <pt x="524" y="574" on="0"/>
        <pt x="595" y="548" on="0"/>
        <pt x="648" y="494" on="0"/>
        <pt x="679" y="409" on="0"/>
        <pt x="679" y="350" on="1"/>
        <pt x="679" y="273" on="0"/>
        <pt x="632" y="139" on="0"/>
        <pt x="546" y="40" on="0"/>
        <pt x="421" y="-17" on="0"/>
        <pt x="343" y="-17" on="1"/>
        <pt x="303" y="-17" on="0"/>
        <pt x="214" y="1" on="0"/>
        <pt x="173" y="19" on="1"/>
        <pt x="7" y="19" on="1"/>
        <pt x="170" y="784" on="1"/>
      </contour>
      <contour>
        <pt x="335" y="153" on="1"/>
        <pt x="365" y="153" on="0"/>
        <pt x="412" y="181" on="0"/>
        <pt x="444" y="228" on="0"/>
        <pt x="461" y="288" on="0"/>
        <pt x="461" y="319" on="1"/>
        <pt x="461" y="363" on="0"/>
        <pt x="424" y="401" on="0"/>
        <pt x="395" y="401" on="1"/>
        <pt x="370" y="401" on="0"/>
        <pt x="324" y="383" on="0"/>
        <pt x="308" y="369" on="1"/>
        <pt x="266" y="171" on="1"/>
        <pt x="282" y="162" on="0"/>
        <pt x="319" y="153" on="0"/>
      </contour>
    </TTGlyph>
    <TTGlyph name="b.sc" xMin="14" yMin="0" xMax="717" yMax="605">
      <contour>
        <pt x="14" y="0" on="1"/>
        <pt x="143" y="605" on="1"/>
        <pt x="483" y="605" on="1"/>
        <pt x="608" y="605" on="0"/>
        <pt x="717" y="530" on="0"/>
        <pt x="717" y="462" on="1"/>
        <pt x="717" y="405" on="0"/>
        <pt x="643" y="334" on="0"/>
        <pt x="582" y="314" on="1"/>
        <pt x="631" y="297" on="0"/>
        <pt x="684" y="235" on="0"/>
        <pt x="684" y="189" on="1"/>
        <pt x="684" y="102" on="0"/>
        <pt x="547" y="0" on="0"/>
        <pt x="388" y="0" on="1"/>
      </contour>
      <contour>
        <pt x="316" y="362" on="1"/>
        <pt x="425" y="362" on="1"/>
        <pt x="465" y="362" on="0"/>
        <pt x="497" y="392" on="0"/>
        <pt x="497" y="417" on="1"/>
        <pt x="497" y="439" on="0"/>
        <pt x="468" y="459" on="0"/>
        <pt x="439" y="459" on="1"/>
        <pt x="337" y="459" on="1"/>
      </contour>
      <contour>
        <pt x="292" y="248" on="1"/>
        <pt x="271" y="147" on="1"/>
        <pt x="388" y="147" on="1"/>
        <pt x="427" y="147" on="0"/>
        <pt x="463" y="178" on="0"/>
        <pt x="463" y="203" on="1"/>
        <pt x="463" y="225" on="0"/>
        <pt x="436" y="248" on="0"/>
        <pt x="404" y="248" on="1"/>
      </contour>
    </TTGlyph>
    <TTGlyph name="backslash" xMin="135" yMin="-210" xMax="462" yMax="784">
      <contour>
        <pt x="462" y="-210" on="1"/>
        <pt x="267" y="-210" on="1"/>
        <pt x="135" y="784" on="1"/>
        <pt x="330" y="784" on="1"/>
      </contour>
    </TTGlyph>
    <TTGlyph name="backslash.cap" xMin="151" yMin="-147" xMax="478" yMax="847">
      <component glyphName="backslash" x="16" y="63" flags="0x4"/>
    </TTGlyph>
    <TTGlyph name="bar" xMin="82" yMin="-210" xMax="496" yMax="784">
      <contour>
        <pt x="285" y="-210" on="1"/>
        <pt x="82" y="-210" on="1"/>
        <pt x="293" y="784" on="1"/>
        <pt x="496" y="784" on="1"/>
      </contour>
    </TTGlyph>
    <TTGlyph name="bar.cap" xMin="95" yMin="-147" xMax="509" yMax="847">
      <component glyphName="bar" x="13" y="63" flags="0x4"/>
    </TTGlyph>
    <TTGlyph name="bar.tab" xMin="59" yMin="-147" xMax="473" yMax="847">
      <component glyphName="bar.cap" x="-36" y="0" flags="0x4"/>
    </TTGlyph>
    <TTGlyph name="braceleft" xMin="2" yMin="-232" xMax="638" yMax="806">
      <contour>
        <pt x="2" y="300" on="1"/>
        <pt x="9" y="331" on="1"/>
        <pt x="190" y="467" on="1"/>
        <pt x="200" y="549" on="1"/>
        <pt x="209" y="627" on="0"/>
        <pt x="264" y="727" on="0"/>
        <pt x="339" y="784" on="0"/>
        <pt x="428" y="806" on="0"/>
        <pt x="472" y="806" on="1"/>
        <pt x="526" y="806" on="0"/>
        <pt x="607" y="785" on="0"/>
        <pt x="638" y="772" on="1"/>
        <pt x="604" y="612" on="1"/>
        <pt x="603" y="612" on="1"/>
        <pt x="580" y="623" on="0"/>
        <pt x="529" y="636" on="0"/>
        <pt x="506" y="636" on="1"/>
        <pt x="468" y="636" on="0"/>
        <pt x="407" y="585" on="0"/>
        <pt x="398" y="516" on="1"/>
        <pt x="379" y="391" on="1"/>
        <pt x="229" y="289" on="1"/>
        <pt x="333" y="175" on="1"/>
        <pt x="302" y="78" on="1"/>
        <pt x="295" y="57" on="0"/>
        <pt x="288" y="22" on="0"/>
        <pt x="288" y="9" on="1"/>
        <pt x="288" y="-33" on="0"/>
        <pt x="349" y="-66" on="0"/>
        <pt x="395" y="-66" on="1"/>
        <pt x="411" y="-66" on="0"/>
        <pt x="442" y="-63" on="0"/>
        <pt x="462" y="-60" on="1"/>
        <pt x="463" y="-60" on="1"/>
        <pt x="428" y="-221" on="1"/>
        <pt x="401" y="-228" on="0"/>
        <pt x="342" y="-232" on="0"/>
        <pt x="319" y="-232" on="1"/>
        <pt x="274" y="-232" on="0"/>
        <pt x="190" y="-211" on="0"/>
        <pt x="125" y="-165" on="0"/>
        <pt x="86" y="-91" on="0"/>
        <pt x="86" y="-38" on="1"/>
        <pt x="86" y="-7" on="0"/>
        <pt x="102" y="66" on="0"/>
        <pt x="112" y="97" on="1"/>
        <pt x="130" y="150" on="1"/>
      </contour>
    </TTGlyph>
    <TTGlyph name="braceleft.cap" xMin="15" yMin="-169" xMax="651" yMax="869">
      <component glyphName="braceleft" x="13" y="63" flags="0x4"/>
    </TTGlyph>
    <TTGlyph name="braceright" xMin="-67" yMin="-239" xMax="569" yMax="799">
      <contour>
        <pt x="569" y="267" on="1"/>
        <pt x="562" y="236" on="1"/>
        <pt x="381" y="100" on="1"/>
        <pt x="371" y="18" on="1"/>
        <pt x="362" y="-60" on="0"/>
        <pt x="307" y="-160" on="0"/>
        <pt x="232" y="-217" on="0"/>
        <pt x="143" y="-239" on="0"/>
        <pt x="99" y="-239" on="1"/>
        <pt x="45" y="-239" on="0"/>
        <pt x="-36" y="-218" on="0"/>
        <pt x="-67" y="-205" on="1"/>
        <pt x="-33" y="-45" on="1"/>
        <pt x="-32" y="-45" on="1"/>
        <pt x="-9" y="-56" on="0"/>
        <pt x="42" y="-69" on="0"/>
        <pt x="65" y="-69" on="1"/>
        <pt x="103" y="-69" on="0"/>
        <pt x="164" y="-18" on="0"/>
        <pt x="173" y="51" on="1"/>
        <pt x="192" y="176" on="1"/>
        <pt x="342" y="278" on="1"/>
        <pt x="238" y="392" on="1"/>
        <pt x="269" y="489" on="1"/>
        <pt x="276" y="510" on="0"/>
        <pt x="283" y="545" on="0"/>
        <pt x="283" y="558" on="1"/>
        <pt x="283" y="600" on="0"/>
        <pt x="222" y="633" on="0"/>
        <pt x="176" y="633" on="1"/>
        <pt x="160" y="633" on="0"/>
        <pt x="129" y="630" on="0"/>
        <pt x="109" y="627" on="1"/>
        <pt x="108" y="627" on="1"/>
        <pt x="143" y="788" on="1"/>
        <pt x="170" y="795" on="0"/>
        <pt x="229" y="799" on="0"/>
        <pt x="252" y="799" on="1"/>
        <pt x="297" y="799" on="0"/>
        <pt x="381" y="778" on="0"/>
        <pt x="446" y="732" on="0"/>
        <pt x="485" y="658" on="0"/>
        <pt x="485" y="605" on="1"/>
        <pt x="485" y="574" on="0"/>
        <pt x="469" y="501" on="0"/>
        <pt x="459" y="470" on="1"/>
        <pt x="441" y="417" on="1"/>
      </contour>
    </TTGlyph>
    <TTGlyph name="braceright.cap" xMin="-52" yMin="-169" xMax="584" yMax="869">
      <component glyphName="braceright" x="15" y="70" flags="0x4"/>
    </TTGlyph>
    <TTGlyph name="bracketleft" xMin="-46" yMin="-210" xMax="550" yMax="784">
      <contour>
        <pt x="-46" y="-210" on="1"/>
        <pt x="166" y="784" on="1"/>
        <pt x="550" y="784" on="1"/>
        <pt x="515" y="619" on="1"/>
        <pt x="337" y="619" on="1"/>
        <pt x="196" y="-45" on="1"/>
        <pt x="374" y="-45" on="1"/>
        <pt x="338" y="-210" on="1"/>
      </contour>
    </TTGlyph>
    <TTGlyph name="bracketleft.cap" xMin="-33" yMin="-147" xMax="563" yMax="847">
      <component glyphName="bracketleft" x="13" y="63" flags="0x4"/>
    </TTGlyph>
    <TTGlyph name="bracketright" xMin="-64" yMin="-210" xMax="532" yMax="784">
      <contour>
        <pt x="532" y="784" on="1"/>
        <pt x="320" y="-210" on="1"/>
        <pt x="-64" y="-210" on="1"/>
        <pt x="-29" y="-45" on="1"/>
        <pt x="149" y="-45" on="1"/>
        <pt x="290" y="619" on="1"/>
        <pt x="112" y="619" on="1"/>
        <pt x="148" y="784" on="1"/>
      </contour>
    </TTGlyph>
    <TTGlyph name="bracketright.cap" xMin="-51" yMin="-147" xMax="545" yMax="847">
      <component glyphName="bracketright" x="13" y="63" flags="0x4"/>
    </TTGlyph>
    <TTGlyph name="breve" xMin="137" yMin="617" xMax="576" yMax="845">
      <contour>
        <pt x="153" y="845" on="1"/>
        <pt x="298" y="845" on="1"/>
        <pt x="294" y="833" on="0"/>
        <pt x="290" y="812" on="0"/>
        <pt x="290" y="805" on="1"/>
        <pt x="290" y="781" on="0"/>
        <pt x="321" y="760" on="0"/>
        <pt x="346" y="760" on="1"/>
        <pt x="383" y="760" on="0"/>
        <pt x="425" y="799" on="0"/>
        <pt x="428" y="845" on="1"/>
        <pt x="575" y="845" on="1"/>
        <pt x="575" y="840" on="0"/>
        <pt x="576" y="830" on="0"/>
        <pt x="576" y="826" on="1"/>
        <pt x="576" y="722" on="0"/>
        <pt x="449" y="617" on="0"/>
        <pt x="337" y="617" on="1"/>
        <pt x="243" y="617" on="0"/>
        <pt x="137" y="688" on="0"/>
        <pt x="137" y="760" on="1"/>
        <pt x="137" y="779" on="0"/>
        <pt x="146" y="821" on="0"/>
      </contour>
    </TTGlyph>
    <TTGlyph name="bullet" xMin="53" yMin="147" xMax="437" yMax="497">
      <contour>
        <pt x="53" y="306" on="1"/>
        <pt x="53" y="345" on="0"/>
        <pt x="81" y="415" on="0"/>
        <pt x="134" y="467" on="0"/>
        <pt x="212" y="497" on="0"/>
        <pt x="261" y="497" on="1"/>
        <pt x="348" y="497" on="0"/>
        <pt x="437" y="407" on="0"/>
        <pt x="437" y="338" on="1"/>
        <pt x="437" y="298" on="0"/>
        <pt x="409" y="228" on="0"/>
        <pt x="356" y="177" on="0"/>
        <pt x="278" y="147" on="0"/>
        <pt x="229" y="147" on="1"/>
        <pt x="142" y="147" on="0"/>
        <pt x="53" y="237" on="0"/>
      </contour>
    </TTGlyph>
    <TTGlyph name="bullet.cap" xMin="59" yMin="175" xMax="443" yMax="525">
      <component glyphName="bullet" x="6" y="28" flags="0x4"/>
    </TTGlyph>
    <TTGlyph name="c" xMin="30" yMin="-20" xMax="564" yMax="578">
      <contour>
        <pt x="245" y="261" on="1"/>
        <pt x="245" y="208" on="0"/>
        <pt x="315" y="159" on="0"/>
        <pt x="365" y="159" on="1"/>
        <pt x="399" y="159" on="0"/>
        <pt x="465" y="178" on="0"/>
        <pt x="497" y="191" on="1"/>
        <pt x="498" y="191" on="1"/>
        <pt x="460" y="12" on="1"/>
        <pt x="435" y="-1" on="0"/>
        <pt x="355" y="-20" on="0"/>
        <pt x="308" y="-20" on="1"/>
        <pt x="252" y="-20" on="0"/>
        <pt x="151" y="11" on="0"/>
        <pt x="75" y="74" on="0"/>
        <pt x="30" y="171" on="0"/>
        <pt x="30" y="237" on="1"/>
        <pt x="30" y="310" on="0"/>
        <pt x="78" y="435" on="0"/>
        <pt x="164" y="526" on="0"/>
        <pt x="285" y="578" on="0"/>
        <pt x="358" y="578" on="1"/>
        <pt x="424" y="578" on="0"/>
        <pt x="535" y="541" on="0"/>
        <pt x="564" y="519" on="1"/>
        <pt x="526" y="346" on="1"/>
        <pt x="525" y="346" on="1"/>
        <pt x="495" y="368" on="0"/>
        <pt x="420" y="399" on="0"/>
        <pt x="381" y="399" on="1"/>
        <pt x="320" y="399" on="0"/>
        <pt x="245" y="321" on="0"/>
      </contour>
    </TTGlyph>
    <TTGlyph name="c.sc" xMin="44" yMin="-18" xMax="661" yMax="623">
      <contour>
        <pt x="423" y="623" on="1"/>
        <pt x="499" y="623" on="0"/>
        <pt x="626" y="584" on="0"/>
        <pt x="661" y="559" on="1"/>
        <pt x="622" y="375" on="1"/>
        <pt x="621" y="375" on="1"/>
        <pt x="582" y="400" on="0"/>
        <pt x="491" y="436" on="0"/>
        <pt x="438" y="436" on="1"/>
        <pt x="358" y="436" on="0"/>
        <pt x="268" y="344" on="0"/>
        <pt x="268" y="280" on="1"/>
        <pt x="268" y="225" on="0"/>
        <pt x="348" y="169" on="0"/>
        <pt x="418" y="169" on="1"/>
        <pt x="463" y="169" on="0"/>
        <pt x="547" y="189" on="0"/>
        <pt x="588" y="205" on="1"/>
        <pt x="589" y="205" on="1"/>
        <pt x="548" y="16" on="1"/>
        <pt x="520" y="4" on="0"/>
        <pt x="422" y="-18" on="0"/>
        <pt x="365" y="-18" on="1"/>
        <pt x="286" y="-18" on="0"/>
        <pt x="165" y="23" on="0"/>
        <pt x="85" y="95" on="0"/>
        <pt x="44" y="196" on="0"/>
        <pt x="44" y="256" on="1"/>
        <pt x="44" y="340" on="0"/>
        <pt x="103" y="477" on="0"/>
        <pt x="204" y="572" on="0"/>
        <pt x="343" y="623" on="0"/>
      </contour>
    </TTGlyph>
    <TTGlyph name="cacute" xMin="30" yMin="-20" xMax="672" yMax="816">
      <component glyphName="c" x="0" y="0" flags="0x204"/>
      <component glyphName="acute" x="97" y="4" flags="0x4"/>
    </TTGlyph>
    <TTGlyph name="cacute.sc" xMin="44" yMin="-18" xMax="742" yMax="877">
      <component glyphName="c.sc" x="0" y="0" flags="0x204"/>
      <component glyphName="acute" x="167" y="65" flags="0x4"/>
    </TTGlyph>
    <TTGlyph name="caron" xMin="116" yMin="627" xMax="618" yMax="830">
      <contour>
        <pt x="618" y="830" on="1"/>
        <pt x="410" y="627" on="1"/>
        <pt x="172" y="627" on="1"/>
        <pt x="116" y="830" on="1"/>
        <pt x="291" y="830" on="1"/>
        <pt x="310" y="751" on="1"/>
        <pt x="346" y="751" on="1"/>
        <pt x="425" y="830" on="1"/>
      </contour>
    </TTGlyph>
    <TTGlyph name="caron.alt" xMin="260" yMin="600" xMax="492" yMax="784">
      <contour>
        <pt x="260" y="600" on="1"/>
        <pt x="299" y="784" on="1"/>
        <pt x="492" y="784" on="1"/>
        <pt x="487" y="756" on="1"/>
        <pt x="373" y="600" on="1"/>
      </contour>
    </TTGlyph>
    <TTGlyph name="ccaron" xMin="30" yMin="-20" xMax="686" yMax="834">
      <component glyphName="c" x="0" y="0" flags="0x204"/>
      <component glyphName="caron" x="68" y="4" flags="0x4"/>
    </TTGlyph>
    <TTGlyph name="ccaron.sc" xMin="44" yMin="-18" xMax="756" yMax="895">
      <component glyphName="c.sc" x="0" y="0" flags="0x204"/>
      <component glyphName="caron" x="138" y="65" flags="0x4"/>
    </TTGlyph>
    <TTGlyph name="ccedilla" xMin="-6" yMin="-201" xMax="564" yMax="578">
      <contour>
        <pt x="245" y="261" on="1"/>
        <pt x="245" y="208" on="0"/>
        <pt x="315" y="159" on="0"/>
        <pt x="365" y="159" on="1"/>
        <pt x="399" y="159" on="0"/>
        <pt x="465" y="178" on="0"/>
        <pt x="497" y="191" on="1"/>
        <pt x="498" y="191" on="1"/>
        <pt x="460" y="12" on="1"/>
        <pt x="441" y="2" on="0"/>
        <pt x="386" y="-14" on="0"/>
        <pt x="352" y="-18" on="1"/>
        <pt x="237" y="-201" on="1"/>
        <pt x="-6" y="-201" on="1"/>
        <pt x="-1" y="-179" on="1"/>
        <pt x="191" y="-4" on="1"/>
        <pt x="199" y="-4" on="1"/>
        <pt x="126" y="19" on="0"/>
        <pt x="30" y="139" on="0"/>
        <pt x="30" y="237" on="1"/>
        <pt x="30" y="310" on="0"/>
        <pt x="78" y="435" on="0"/>
        <pt x="164" y="526" on="0"/>
        <pt x="285" y="578" on="0"/>
        <pt x="358" y="578" on="1"/>
        <pt x="424" y="578" on="0"/>
        <pt x="535" y="541" on="0"/>
        <pt x="564" y="519" on="1"/>
        <pt x="526" y="346" on="1"/>
        <pt x="525" y="346" on="1"/>
        <pt x="495" y="368" on="0"/>
        <pt x="420" y="399" on="0"/>
        <pt x="381" y="399" on="1"/>
        <pt x="320" y="399" on="0"/>
        <pt x="245" y="321" on="0"/>
      </contour>
    </TTGlyph>
    <TTGlyph name="ccedilla.sc" xMin="35" yMin="-199" xMax="661" yMax="623">
      <contour>
        <pt x="423" y="623" on="1"/>
        <pt x="499" y="623" on="0"/>
        <pt x="626" y="584" on="0"/>
        <pt x="661" y="559" on="1"/>
        <pt x="622" y="375" on="1"/>
        <pt x="621" y="375" on="1"/>
        <pt x="582" y="400" on="0"/>
        <pt x="491" y="436" on="0"/>
        <pt x="438" y="436" on="1"/>
        <pt x="358" y="436" on="0"/>
        <pt x="268" y="344" on="0"/>
        <pt x="268" y="280" on="1"/>
        <pt x="268" y="225" on="0"/>
        <pt x="348" y="169" on="0"/>
        <pt x="418" y="169" on="1"/>
        <pt x="463" y="169" on="0"/>
        <pt x="547" y="189" on="0"/>
        <pt x="588" y="205" on="1"/>
        <pt x="589" y="205" on="1"/>
        <pt x="548" y="16" on="1"/>
        <pt x="523" y="6" on="0"/>
        <pt x="441" y="-15" on="0"/>
        <pt x="392" y="-17" on="1"/>
        <pt x="278" y="-199" on="1"/>
        <pt x="35" y="-199" on="1"/>
        <pt x="40" y="-177" on="1"/>
        <pt x="232" y="-2" on="1"/>
        <pt x="239" y="-2" on="1"/>
        <pt x="143" y="26" on="0"/>
        <pt x="44" y="163" on="0"/>
        <pt x="44" y="256" on="1"/>
        <pt x="44" y="340" on="0"/>
        <pt x="103" y="477" on="0"/>
        <pt x="204" y="572" on="0"/>
        <pt x="343" y="623" on="0"/>
      </contour>
    </TTGlyph>
    <TTGlyph name="cdotaccent" xMin="30" yMin="-20" xMax="564" yMax="831">
      <component glyphName="c" x="0" y="0" flags="0x204"/>
      <component glyphName="dotaccent" x="63" y="4" flags="0x4"/>
    </TTGlyph>
    <TTGlyph name="cdotaccent.sc" xMin="44" yMin="-18" xMax="661" yMax="892">
      <component glyphName="c.sc" x="0" y="0" flags="0x204"/>
      <component glyphName="dotaccent" x="133" y="65" flags="0x4"/>
    </TTGlyph>
    <TTGlyph name="cedilla" xMin="-66" yMin="-197" xMax="301" yMax="0">
      <contour>
        <pt x="301" y="0" on="1"/>
        <pt x="177" y="-197" on="1"/>
        <pt x="-66" y="-197" on="1"/>
        <pt x="-61" y="-175" on="1"/>
        <pt x="131" y="0" on="1"/>
      </contour>
    </TTGlyph>
    <TTGlyph name="cent" xMin="54" yMin="-42" xMax="561" yMax="722">
      <contour>
        <pt x="155" y="-42" on="1"/>
        <pt x="186" y="103" on="1"/>
        <pt x="126" y="128" on="0"/>
        <pt x="55" y="230" on="0"/>
        <pt x="54" y="307" on="1"/>
        <pt x="54" y="363" on="0"/>
        <pt x="87" y="463" on="0"/>
        <pt x="148" y="541" on="0"/>
        <pt x="237" y="595" on="0"/>
        <pt x="292" y="606" on="1"/>
        <pt x="317" y="722" on="1"/>
        <pt x="513" y="722" on="1"/>
        <pt x="486" y="595" on="1"/>
        <pt x="509" y="587" on="0"/>
        <pt x="548" y="567" on="0"/>
        <pt x="561" y="557" on="1"/>
        <pt x="527" y="400" on="1"/>
        <pt x="526" y="400" on="1"/>
        <pt x="498" y="422" on="0"/>
        <pt x="432" y="452" on="0"/>
        <pt x="387" y="452" on="1"/>
        <pt x="324" y="452" on="0"/>
        <pt x="249" y="383" on="0"/>
        <pt x="250" y="330" on="1"/>
        <pt x="250" y="281" on="0"/>
        <pt x="321" y="241" on="0"/>
        <pt x="367" y="241" on="1"/>
        <pt x="416" y="241" on="0"/>
        <pt x="472" y="258" on="0"/>
        <pt x="503" y="271" on="1"/>
        <pt x="504" y="271" on="1"/>
        <pt x="469" y="109" on="1"/>
        <pt x="453" y="101" on="0"/>
        <pt x="407" y="86" on="0"/>
        <pt x="377" y="82" on="1"/>
        <pt x="354" y="-29" on="1"/>
      </contour>
    </TTGlyph>
    <TTGlyph name="cent.tab" xMin="128" yMin="-42" xMax="650" yMax="722">
      <contour>
        <pt x="237" y="-42" on="1"/>
        <pt x="268" y="102" on="1"/>
        <pt x="205" y="127" on="0"/>
        <pt x="128" y="231" on="0"/>
        <pt x="128" y="309" on="1"/>
        <pt x="128" y="365" on="0"/>
        <pt x="162" y="465" on="0"/>
        <pt x="225" y="542" on="0"/>
        <pt x="317" y="596" on="0"/>
        <pt x="374" y="606" on="1"/>
        <pt x="399" y="722" on="1"/>
        <pt x="595" y="722" on="1"/>
        <pt x="568" y="595" on="1"/>
        <pt x="593" y="587" on="0"/>
        <pt x="635" y="565" on="0"/>
        <pt x="650" y="553" on="1"/>
        <pt x="617" y="396" on="1"/>
        <pt x="616" y="396" on="1"/>
        <pt x="587" y="419" on="0"/>
        <pt x="517" y="452" on="0"/>
        <pt x="469" y="452" on="1"/>
        <pt x="403" y="452" on="0"/>
        <pt x="323" y="384" on="0"/>
        <pt x="323" y="332" on="1"/>
        <pt x="324" y="282" on="0"/>
        <pt x="401" y="241" on="0"/>
        <pt x="450" y="241" on="1"/>
        <pt x="493" y="241" on="0"/>
        <pt x="561" y="260" on="0"/>
        <pt x="594" y="274" on="1"/>
        <pt x="595" y="274" on="1"/>
        <pt x="560" y="112" on="1"/>
        <pt x="542" y="102" on="0"/>
        <pt x="492" y="86" on="0"/>
        <pt x="460" y="82" on="1"/>
        <pt x="436" y="-29" on="1"/>
      </contour>
    </TTGlyph>
    <TTGlyph name="circle.checked" xMin="109" yMin="-46" xMax="969" yMax="746">
      <contour>
        <pt x="539" y="-46" on="1"/>
        <pt x="442" y="-46" on="0"/>
        <pt x="282" y="11" on="0"/>
        <pt x="170" y="113" on="0"/>
        <pt x="109" y="260" on="0"/>
        <pt x="109" y="350" on="1"/>
        <pt x="109" y="439" on="0"/>
        <pt x="170" y="586" on="0"/>
        <pt x="282" y="689" on="0"/>
        <pt x="442" y="746" on="0"/>
        <pt x="539" y="746" on="1"/>
        <pt x="637" y="746" on="0"/>
        <pt x="796" y="689" on="0"/>
        <pt x="908" y="587" on="0"/>
        <pt x="969" y="440" on="0"/>
        <pt x="969" y="350" on="1"/>
        <pt x="969" y="261" on="0"/>
        <pt x="908" y="114" on="0"/>
        <pt x="796" y="11" on="0"/>
        <pt x="636" y="-46" on="0"/>
      </contour>
      <contour>
        <pt x="539" y="148" on="1"/>
        <pt x="634" y="148" on="0"/>
        <pt x="748" y="261" on="0"/>
        <pt x="748" y="350" on="1"/>
        <pt x="748" y="439" on="0"/>
        <pt x="634" y="552" on="0"/>
        <pt x="539" y="552" on="1"/>
        <pt x="444" y="552" on="0"/>
        <pt x="330" y="439" on="0"/>
        <pt x="330" y="350" on="1"/>
        <pt x="330" y="261" on="0"/>
        <pt x="444" y="148" on="0"/>
      </contour>
      <contour>
        <pt x="539" y="230" on="1"/>
        <pt x="482" y="230" on="0"/>
        <pt x="413" y="297" on="0"/>
        <pt x="413" y="350" on="1"/>
        <pt x="413" y="403" on="0"/>
        <pt x="482" y="470" on="0"/>
        <pt x="539" y="470" on="1"/>
        <pt x="596" y="470" on="0"/>
        <pt x="665" y="403" on="0"/>
        <pt x="665" y="350" on="1"/>
        <pt x="665" y="297" on="0"/>
        <pt x="596" y="230" on="0"/>
      </contour>
    </TTGlyph>
    <TTGlyph name="circle.half" xMin="109" yMin="-46" xMax="969" yMax="746">
      <contour>
        <pt x="539" y="-46" on="1"/>
        <pt x="442" y="-46" on="0"/>
        <pt x="282" y="11" on="0"/>
        <pt x="170" y="113" on="0"/>
        <pt x="109" y="260" on="0"/>
        <pt x="109" y="350" on="1"/>
        <pt x="109" y="439" on="0"/>
        <pt x="170" y="586" on="0"/>
        <pt x="282" y="689" on="0"/>
        <pt x="442" y="746" on="0"/>
        <pt x="539" y="746" on="1"/>
        <pt x="637" y="746" on="0"/>
        <pt x="796" y="689" on="0"/>
        <pt x="908" y="587" on="0"/>
        <pt x="969" y="440" on="0"/>
        <pt x="969" y="350" on="1"/>
        <pt x="969" y="261" on="0"/>
        <pt x="908" y="114" on="0"/>
        <pt x="796" y="11" on="0"/>
        <pt x="636" y="-46" on="0"/>
      </contour>
      <contour>
        <pt x="519" y="140" on="1"/>
        <pt x="565" y="140" on="0"/>
        <pt x="645" y="168" on="0"/>
        <pt x="704" y="221" on="0"/>
        <pt x="738" y="300" on="0"/>
        <pt x="738" y="350" on="1"/>
        <pt x="738" y="400" on="0"/>
        <pt x="704" y="479" on="0"/>
        <pt x="645" y="532" on="0"/>
        <pt x="565" y="560" on="0"/>
        <pt x="519" y="560" on="1"/>
      </contour>
    </TTGlyph>
    <TTGlyph name="circle.open" xMin="109" yMin="-46" xMax="969" yMax="746">
      <contour>
        <pt x="539" y="-46" on="1"/>
        <pt x="442" y="-46" on="0"/>
        <pt x="282" y="11" on="0"/>
        <pt x="170" y="113" on="0"/>
        <pt x="109" y="260" on="0"/>
        <pt x="109" y="350" on="1"/>
        <pt x="109" y="439" on="0"/>
        <pt x="170" y="586" on="0"/>
        <pt x="282" y="689" on="0"/>
        <pt x="442" y="746" on="0"/>
        <pt x="539" y="746" on="1"/>
        <pt x="637" y="746" on="0"/>
        <pt x="796" y="689" on="0"/>
        <pt x="908" y="587" on="0"/>
        <pt x="969" y="440" on="0"/>
        <pt x="969" y="350" on="1"/>
        <pt x="969" y="261" on="0"/>
        <pt x="908" y="114" on="0"/>
        <pt x="796" y="11" on="0"/>
        <pt x="636" y="-46" on="0"/>
      </contour>
      <contour>
        <pt x="539" y="148" on="1"/>
        <pt x="631" y="148" on="0"/>
        <pt x="737" y="261" on="0"/>
        <pt x="737" y="350" on="1"/>
        <pt x="737" y="439" on="0"/>
        <pt x="631" y="552" on="0"/>
        <pt x="539" y="552" on="1"/>
        <pt x="447" y="552" on="0"/>
        <pt x="341" y="439" on="0"/>
        <pt x="341" y="350" on="1"/>
        <pt x="341" y="261" on="0"/>
        <pt x="447" y="148" on="0"/>
      </contour>
    </TTGlyph>
    <TTGlyph name="circle.solid" xMin="109" yMin="-46" xMax="969" yMax="746">
      <contour>
        <pt x="539" y="-46" on="1"/>
        <pt x="442" y="-46" on="0"/>
        <pt x="282" y="11" on="0"/>
        <pt x="170" y="113" on="0"/>
        <pt x="109" y="260" on="0"/>
        <pt x="109" y="350" on="1"/>
        <pt x="109" y="439" on="0"/>
        <pt x="170" y="586" on="0"/>
        <pt x="282" y="689" on="0"/>
        <pt x="442" y="746" on="0"/>
        <pt x="539" y="746" on="1"/>
        <pt x="637" y="746" on="0"/>
        <pt x="796" y="689" on="0"/>
        <pt x="908" y="587" on="0"/>
        <pt x="969" y="440" on="0"/>
        <pt x="969" y="350" on="1"/>
        <pt x="969" y="261" on="0"/>
        <pt x="908" y="114" on="0"/>
        <pt x="796" y="11" on="0"/>
        <pt x="636" y="-46" on="0"/>
      </contour>
    </TTGlyph>
    <TTGlyph name="circumflex" xMin="74" yMin="627" xMax="576" yMax="830">
      <contour>
        <pt x="74" y="627" on="1"/>
        <pt x="248" y="830" on="1"/>
        <pt x="486" y="830" on="1"/>
        <pt x="576" y="627" on="1"/>
        <pt x="401" y="627" on="1"/>
        <pt x="369" y="706" on="1"/>
        <pt x="333" y="706" on="1"/>
        <pt x="267" y="627" on="1"/>
      </contour>
    </TTGlyph>
    <TTGlyph name="colon" xMin="41" yMin="-11" xMax="374" yMax="562">
      <component glyphName="period" x="6" y="0" flags="0x4"/>
      <component glyphName="period" x="81" y="341" flags="0x4"/>
    </TTGlyph>
    <TTGlyph name="colon.fig" xMin="57" yMin="63" xMax="390" yMax="636">
      <component glyphName="colon" x="16" y="74" flags="0x4"/>
    </TTGlyph>
    <TTGlyph name="colon.tab" xMin="15" yMin="-11" xMax="348" yMax="562">
      <component glyphName="colon" x="-26" y="0" flags="0x4"/>
    </TTGlyph>
    <TTGlyph name="colonmonetary" xMin="32" yMin="-110" xMax="789" yMax="805">
      <contour>
        <pt x="464" y="532" on="1"/>
        <pt x="417" y="532" on="0"/>
        <pt x="342" y="498" on="0"/>
        <pt x="291" y="440" on="0"/>
        <pt x="264" y="363" on="0"/>
        <pt x="264" y="320" on="1"/>
        <pt x="264" y="238" on="0"/>
        <pt x="364" y="167" on="0"/>
        <pt x="434" y="167" on="1"/>
        <pt x="477" y="167" on="0"/>
        <pt x="557" y="189" on="0"/>
        <pt x="593" y="204" on="1"/>
        <pt x="594" y="204" on="1"/>
        <pt x="553" y="15" on="1"/>
        <pt x="530" y="3" on="0"/>
        <pt x="452" y="-15" on="0"/>
        <pt x="407" y="-17" on="1"/>
        <pt x="365" y="-110" on="1"/>
        <pt x="229" y="-110" on="1"/>
        <pt x="276" y="-6" on="1"/>
        <pt x="263" y="-3" on="0"/>
        <pt x="237" y="6" on="0"/>
        <pt x="224" y="11" on="1"/>
        <pt x="168" y="-110" on="1"/>
        <pt x="32" y="-110" on="1"/>
        <pt x="120" y="81" on="1"/>
        <pt x="81" y="122" on="0"/>
        <pt x="37" y="236" on="0"/>
        <pt x="37" y="308" on="1"/>
        <pt x="37" y="394" on="0"/>
        <pt x="94" y="540" on="0"/>
        <pt x="194" y="647" on="0"/>
        <pt x="334" y="711" on="0"/>
        <pt x="417" y="717" on="1"/>
        <pt x="457" y="805" on="1"/>
        <pt x="594" y="805" on="1"/>
        <pt x="549" y="708" on="1"/>
        <pt x="563" y="705" on="0"/>
        <pt x="590" y="697" on="0"/>
        <pt x="602" y="693" on="1"/>
        <pt x="653" y="805" on="1"/>
        <pt x="789" y="805" on="1"/>
        <pt x="635" y="473" on="1"/>
        <pt x="601" y="496" on="0"/>
        <pt x="513" y="532" on="0"/>
      </contour>
    </TTGlyph>
    <TTGlyph name="comma" xMin="-35" yMin="-170" xMax="319" yMax="191">
      <contour>
        <pt x="83" y="191" on="1"/>
        <pt x="319" y="191" on="1"/>
        <pt x="319" y="135" on="1"/>
        <pt x="90" y="-170" on="1"/>
        <pt x="-35" y="-170" on="1"/>
      </contour>
    </TTGlyph>
    <TTGlyph name="comma.tab" xMin="-56" yMin="-170" xMax="298" yMax="191">
      <component glyphName="comma" x="-21" y="0" flags="0x4"/>
    </TTGlyph>
    <TTGlyph name="copyright" xMin="61" yMin="-69" xMax="984" yMax="777">
      <contour>
        <pt x="523" y="-69" on="1"/>
        <pt x="420" y="-69" on="0"/>
        <pt x="249" y="-10" on="0"/>
        <pt x="128" y="99" on="0"/>
        <pt x="61" y="257" on="0"/>
        <pt x="61" y="354" on="1"/>
        <pt x="61" y="451" on="0"/>
        <pt x="128" y="609" on="0"/>
        <pt x="249" y="718" on="0"/>
        <pt x="420" y="777" on="0"/>
        <pt x="523" y="777" on="1"/>
        <pt x="625" y="777" on="0"/>
        <pt x="796" y="718" on="0"/>
        <pt x="917" y="609" on="0"/>
        <pt x="984" y="451" on="0"/>
        <pt x="984" y="354" on="1"/>
        <pt x="984" y="257" on="0"/>
        <pt x="917" y="99" on="0"/>
        <pt x="796" y="-10" on="0"/>
        <pt x="625" y="-69" on="0"/>
      </contour>
      <contour>
        <pt x="523" y="58" on="1"/>
        <pt x="669" y="58" on="0"/>
        <pt x="833" y="210" on="0"/>
        <pt x="833" y="354" on="1"/>
        <pt x="833" y="498" on="0"/>
        <pt x="669" y="650" on="0"/>
        <pt x="523" y="650" on="1"/>
        <pt x="377" y="650" on="0"/>
        <pt x="212" y="498" on="0"/>
        <pt x="212" y="354" on="1"/>
        <pt x="212" y="210" on="0"/>
        <pt x="377" y="58" on="0"/>
      </contour>
      <contour>
        <pt x="544" y="165" on="1"/>
        <pt x="446" y="165" on="0"/>
        <pt x="331" y="264" on="0"/>
        <pt x="331" y="354" on="1"/>
        <pt x="331" y="444" on="0"/>
        <pt x="450" y="544" on="0"/>
        <pt x="545" y="544" on="1"/>
        <pt x="589" y="544" on="0"/>
        <pt x="656" y="526" on="0"/>
        <pt x="682" y="511" on="1"/>
        <pt x="682" y="392" on="1"/>
        <pt x="681" y="392" on="1"/>
        <pt x="650" y="410" on="0"/>
        <pt x="594" y="427" on="0"/>
        <pt x="564" y="427" on="1"/>
        <pt x="526" y="427" on="0"/>
        <pt x="476" y="389" on="0"/>
        <pt x="476" y="355" on="1"/>
        <pt x="476" y="319" on="0"/>
        <pt x="525" y="284" on="0"/>
        <pt x="564" y="284" on="1"/>
        <pt x="595" y="284" on="0"/>
        <pt x="652" y="302" on="0"/>
        <pt x="681" y="320" on="1"/>
        <pt x="682" y="320" on="1"/>
        <pt x="682" y="197" on="1"/>
        <pt x="661" y="186" on="0"/>
        <pt x="589" y="165" on="0"/>
      </contour>
    </TTGlyph>
    <TTGlyph name="d" xMin="25" yMin="-18" xMax="749" yMax="784">
      <contour>
        <pt x="212" y="-18" on="1"/>
        <pt x="174" y="-18" on="0"/>
        <pt x="106" y="9" on="0"/>
        <pt x="55" y="63" on="0"/>
        <pt x="25" y="146" on="0"/>
        <pt x="25" y="201" on="1"/>
        <pt x="25" y="282" on="0"/>
        <pt x="72" y="420" on="0"/>
        <pt x="155" y="518" on="0"/>
        <pt x="270" y="574" on="0"/>
        <pt x="338" y="574" on="1"/>
        <pt x="379" y="574" on="0"/>
        <pt x="446" y="557" on="0"/>
        <pt x="471" y="542" on="1"/>
        <pt x="522" y="784" on="1"/>
        <pt x="749" y="784" on="1"/>
        <pt x="582" y="0" on="1"/>
        <pt x="362" y="0" on="1"/>
        <pt x="374" y="63" on="1"/>
        <pt x="346" y="29" on="0"/>
        <pt x="266" y="-18" on="0"/>
      </contour>
      <contour>
        <pt x="309" y="156" on="1"/>
        <pt x="334" y="156" on="0"/>
        <pt x="380" y="175" on="0"/>
        <pt x="397" y="190" on="1"/>
        <pt x="437" y="380" on="1"/>
        <pt x="422" y="391" on="0"/>
        <pt x="386" y="404" on="0"/>
        <pt x="366" y="404" on="1"/>
        <pt x="337" y="404" on="0"/>
        <pt x="291" y="375" on="0"/>
        <pt x="260" y="328" on="0"/>
        <pt x="243" y="268" on="0"/>
        <pt x="243" y="236" on="1"/>
        <pt x="243" y="192" on="0"/>
        <pt x="280" y="156" on="0"/>
      </contour>
    </TTGlyph>
    <TTGlyph name="d.sc" xMin="14" yMin="0" xMax="733" yMax="605">
      <contour>
        <pt x="14" y="0" on="1"/>
        <pt x="143" y="605" on="1"/>
        <pt x="403" y="605" on="1"/>
        <pt x="570" y="605" on="0"/>
        <pt x="733" y="467" on="0"/>
        <pt x="733" y="352" on="1"/>
        <pt x="733" y="288" on="0"/>
        <pt x="692" y="162" on="0"/>
        <pt x="596" y="62" on="0"/>
        <pt x="434" y="0" on="0"/>
        <pt x="314" y="0" on="1"/>
      </contour>
      <contour>
        <pt x="508" y="334" on="1"/>
        <pt x="508" y="388" on="0"/>
        <pt x="440" y="433" on="0"/>
        <pt x="380" y="433" on="1"/>
        <pt x="333" y="433" on="1"/>
        <pt x="277" y="173" on="1"/>
        <pt x="341" y="173" on="1"/>
        <pt x="430" y="173" on="0"/>
        <pt x="508" y="268" on="0"/>
      </contour>
    </TTGlyph>
    <TTGlyph name="dagger" xMin="75" yMin="168" xMax="542" yMax="700">
      <contour>
        <pt x="154" y="168" on="1"/>
        <pt x="212" y="438" on="1"/>
        <pt x="75" y="438" on="1"/>
        <pt x="118" y="579" on="1"/>
        <pt x="242" y="579" on="1"/>
        <pt x="268" y="700" on="1"/>
        <pt x="438" y="700" on="1"/>
        <pt x="412" y="579" on="1"/>
        <pt x="542" y="579" on="1"/>
        <pt x="511" y="438" on="1"/>
        <pt x="382" y="438" on="1"/>
        <pt x="324" y="168" on="1"/>
      </contour>
    </TTGlyph>
    <TTGlyph name="daggerdbl" xMin="37" yMin="107" xMax="550" yMax="700">
      <contour>
        <pt x="145" y="107" on="1"/>
        <pt x="171" y="227" on="1"/>
        <pt x="37" y="227" on="1"/>
        <pt x="65" y="354" on="1"/>
        <pt x="198" y="354" on="1"/>
        <pt x="219" y="453" on="1"/>
        <pt x="78" y="453" on="1"/>
        <pt x="116" y="580" on="1"/>
        <pt x="246" y="580" on="1"/>
        <pt x="272" y="700" on="1"/>
        <pt x="442" y="700" on="1"/>
        <pt x="416" y="580" on="1"/>
        <pt x="550" y="580" on="1"/>
        <pt x="522" y="453" on="1"/>
        <pt x="389" y="453" on="1"/>
        <pt x="368" y="354" on="1"/>
        <pt x="509" y="354" on="1"/>
        <pt x="470" y="227" on="1"/>
        <pt x="341" y="227" on="1"/>
        <pt x="315" y="107" on="1"/>
      </contour>
    </TTGlyph>
    <TTGlyph name="dcaron" xMin="25" yMin="-18" xMax="1011" yMax="784">
      <component glyphName="d" x="0" y="0" flags="0x204"/>
      <component glyphName="caron.alt" x="519" y="0" flags="0x4"/>
    </TTGlyph>
    <TTGlyph name="dcaron.sc" xMin="14" yMin="0" xMax="762" yMax="877">
      <component glyphName="d.sc" x="0" y="0" flags="0x204"/>
      <component glyphName="caron" x="144" y="47" flags="0x4"/>
    </TTGlyph>
    <TTGlyph name="dcroat" xMin="25" yMin="-18" xMax="807" yMax="784">
      <contour>
        <pt x="212" y="-18" on="1"/>
        <pt x="174" y="-18" on="0"/>
        <pt x="106" y="8" on="0"/>
        <pt x="55" y="60" on="0"/>
        <pt x="25" y="136" on="0"/>
        <pt x="25" y="185" on="1"/>
        <pt x="25" y="260" on="0"/>
        <pt x="70" y="390" on="0"/>
        <pt x="150" y="484" on="0"/>
        <pt x="263" y="538" on="0"/>
        <pt x="331" y="538" on="1"/>
        <pt x="373" y="538" on="0"/>
        <pt x="438" y="521" on="0"/>
        <pt x="463" y="507" on="1"/>
        <pt x="479" y="583" on="1"/>
        <pt x="321" y="583" on="1"/>
        <pt x="346" y="703" on="1"/>
        <pt x="505" y="703" on="1"/>
        <pt x="522" y="784" on="1"/>
        <pt x="748" y="784" on="1"/>
        <pt x="731" y="703" on="1"/>
        <pt x="807" y="703" on="1"/>
        <pt x="796" y="583" on="1"/>
        <pt x="705" y="583" on="1"/>
        <pt x="582" y="0" on="1"/>
        <pt x="361" y="0" on="1"/>
        <pt x="373" y="63" on="1"/>
        <pt x="346" y="29" on="0"/>
        <pt x="265" y="-18" on="0"/>
      </contour>
      <contour>
        <pt x="308" y="156" on="1"/>
        <pt x="333" y="156" on="0"/>
        <pt x="379" y="175" on="0"/>
        <pt x="396" y="190" on="1"/>
        <pt x="428" y="344" on="1"/>
        <pt x="412" y="356" on="0"/>
        <pt x="374" y="368" on="0"/>
        <pt x="355" y="368" on="1"/>
        <pt x="326" y="368" on="0"/>
        <pt x="283" y="342" on="0"/>
        <pt x="256" y="302" on="0"/>
        <pt x="243" y="254" on="0"/>
        <pt x="243" y="233" on="1"/>
        <pt x="243" y="192" on="0"/>
        <pt x="279" y="156" on="0"/>
      </contour>
    </TTGlyph>
    <TTGlyph name="dcroat.sc" xMin="13" yMin="0" xMax="778" yMax="605">
      <component glyphName="eth.sc" x="0" y="0" flags="0x204"/>
    </TTGlyph>
    <TTGlyph name="degree" xMin="89" yMin="266" xMax="583" yMax="722">
      <contour>
        <pt x="351" y="722" on="1"/>
        <pt x="463" y="722" on="0"/>
        <pt x="583" y="607" on="0"/>
        <pt x="583" y="515" on="1"/>
        <pt x="583" y="465" on="0"/>
        <pt x="550" y="375" on="0"/>
        <pt x="485" y="307" on="0"/>
        <pt x="386" y="266" on="0"/>
        <pt x="320" y="266" on="1"/>
        <pt x="208" y="266" on="0"/>
        <pt x="89" y="382" on="0"/>
        <pt x="89" y="473" on="1"/>
        <pt x="89" y="523" on="0"/>
        <pt x="122" y="613" on="0"/>
        <pt x="187" y="681" on="0"/>
        <pt x="286" y="722" on="0"/>
      </contour>
      <contour>
        <pt x="329" y="405" on="1"/>
        <pt x="376" y="405" on="0"/>
        <pt x="422" y="466" on="0"/>
        <pt x="422" y="504" on="1"/>
        <pt x="422" y="540" on="0"/>
        <pt x="381" y="583" on="0"/>
        <pt x="342" y="583" on="1"/>
        <pt x="295" y="583" on="0"/>
        <pt x="249" y="522" on="0"/>
        <pt x="249" y="484" on="1"/>
        <pt x="249" y="448" on="0"/>
        <pt x="290" y="405" on="0"/>
      </contour>
    </TTGlyph>
    <TTGlyph name="degree.tab" xMin="116" yMin="266" xMax="610" yMax="722">
      <component glyphName="degree" x="27" y="0" flags="0x4"/>
    </TTGlyph>
    <TTGlyph name="dieresis" xMin="97" yMin="622" xMax="590" yMax="824">
      <contour>
        <pt x="317" y="732" on="1"/>
        <pt x="317" y="686" on="0"/>
        <pt x="254" y="622" on="0"/>
        <pt x="198" y="622" on="1"/>
        <pt x="147" y="622" on="0"/>
        <pt x="97" y="675" on="0"/>
        <pt x="97" y="715" on="1"/>
        <pt x="97" y="761" on="0"/>
        <pt x="160" y="824" on="0"/>
        <pt x="216" y="824" on="1"/>
        <pt x="267" y="824" on="0"/>
        <pt x="317" y="772" on="0"/>
      </contour>
      <contour>
        <pt x="590" y="732" on="1"/>
        <pt x="590" y="686" on="0"/>
        <pt x="527" y="622" on="0"/>
        <pt x="471" y="622" on="1"/>
        <pt x="421" y="622" on="0"/>
        <pt x="370" y="675" on="0"/>
        <pt x="370" y="715" on="1"/>
        <pt x="370" y="761" on="0"/>
        <pt x="433" y="824" on="0"/>
        <pt x="489" y="824" on="1"/>
        <pt x="540" y="824" on="0"/>
        <pt x="590" y="772" on="0"/>
      </contour>
    </TTGlyph>
    <TTGlyph name="divide" xMin="70" yMin="25" xMax="702" yMax="678">
      <contour>
        <pt x="440" y="678" on="1"/>
        <pt x="493" y="678" on="0"/>
        <pt x="548" y="627" on="0"/>
        <pt x="548" y="588" on="1"/>
        <pt x="548" y="544" on="0"/>
        <pt x="482" y="479" on="0"/>
        <pt x="425" y="479" on="1"/>
        <pt x="372" y="479" on="0"/>
        <pt x="316" y="530" on="0"/>
        <pt x="316" y="569" on="1"/>
        <pt x="316" y="613" on="0"/>
        <pt x="382" y="678" on="0"/>
      </contour>
      <contour>
        <pt x="702" y="434" on="1"/>
        <pt x="668" y="269" on="1"/>
        <pt x="70" y="269" on="1"/>
        <pt x="104" y="434" on="1"/>
      </contour>
      <contour>
        <pt x="224" y="114" on="1"/>
        <pt x="224" y="159" on="0"/>
        <pt x="290" y="223" on="0"/>
        <pt x="347" y="223" on="1"/>
        <pt x="400" y="223" on="0"/>
        <pt x="456" y="173" on="0"/>
        <pt x="456" y="134" on="1"/>
        <pt x="456" y="89" on="0"/>
        <pt x="389" y="25" on="0"/>
        <pt x="332" y="25" on="1"/>
        <pt x="279" y="25" on="0"/>
        <pt x="224" y="76" on="0"/>
      </contour>
    </TTGlyph>
    <TTGlyph name="divide.tab" xMin="62" yMin="25" xMax="694" yMax="678">
      <component glyphName="divide" x="-8" y="0" flags="0x4"/>
    </TTGlyph>
    <TTGlyph name="dollar" xMin="35" yMin="-120" xMax="686" yMax="805">
      <contour>
        <pt x="183" y="-120" on="1"/>
        <pt x="214" y="24" on="1"/>
        <pt x="164" y="35" on="0"/>
        <pt x="75" y="72" on="0"/>
        <pt x="35" y="95" on="1"/>
        <pt x="72" y="269" on="1"/>
        <pt x="73" y="269" on="1"/>
        <pt x="141" y="225" on="0"/>
        <pt x="292" y="172" on="0"/>
        <pt x="358" y="172" on="1"/>
        <pt x="404" y="172" on="0"/>
        <pt x="440" y="197" on="0"/>
        <pt x="440" y="216" on="1"/>
        <pt x="440" y="235" on="0"/>
        <pt x="394" y="259" on="0"/>
        <pt x="322" y="280" on="1"/>
        <pt x="229" y="307" on="0"/>
        <pt x="116" y="385" on="0"/>
        <pt x="116" y="469" on="1"/>
        <pt x="116" y="508" on="0"/>
        <pt x="143" y="581" on="0"/>
        <pt x="199" y="640" on="0"/>
        <pt x="285" y="681" on="0"/>
        <pt x="344" y="688" on="1"/>
        <pt x="369" y="805" on="1"/>
        <pt x="571" y="805" on="1"/>
        <pt x="544" y="675" on="1"/>
        <pt x="584" y="665" on="0"/>
        <pt x="656" y="636" on="0"/>
        <pt x="686" y="618" on="1"/>
        <pt x="649" y="445" on="1"/>
        <pt x="648" y="445" on="1"/>
        <pt x="624" y="462" on="0"/>
        <pt x="563" y="493" on="0"/>
        <pt x="498" y="515" on="0"/>
        <pt x="431" y="528" on="0"/>
        <pt x="401" y="528" on="1"/>
        <pt x="360" y="528" on="0"/>
        <pt x="323" y="505" on="0"/>
        <pt x="323" y="486" on="1"/>
        <pt x="323" y="467" on="0"/>
        <pt x="367" y="448" on="0"/>
        <pt x="429" y="429" on="1"/>
        <pt x="479" y="414" on="0"/>
        <pt x="559" y="380" on="0"/>
        <pt x="614" y="336" on="0"/>
        <pt x="644" y="274" on="0"/>
        <pt x="644" y="231" on="1"/>
        <pt x="644" y="139" on="0"/>
        <pt x="524" y="22" on="0"/>
        <pt x="414" y="11" on="1"/>
        <pt x="389" y="-106" on="1"/>
      </contour>
    </TTGlyph>
    <TTGlyph name="dollar.tab" xMin="46" yMin="-120" xMax="695" yMax="805">
      <contour>
        <pt x="192" y="-120" on="1"/>
        <pt x="223" y="24" on="1"/>
        <pt x="173" y="35" on="0"/>
        <pt x="85" y="72" on="0"/>
        <pt x="46" y="95" on="1"/>
        <pt x="83" y="269" on="1"/>
        <pt x="84" y="269" on="1"/>
        <pt x="151" y="225" on="0"/>
        <pt x="301" y="172" on="0"/>
        <pt x="367" y="172" on="1"/>
        <pt x="413" y="172" on="0"/>
        <pt x="448" y="197" on="0"/>
        <pt x="448" y="216" on="1"/>
        <pt x="448" y="235" on="0"/>
        <pt x="403" y="259" on="0"/>
        <pt x="332" y="280" on="1"/>
        <pt x="240" y="307" on="0"/>
        <pt x="127" y="386" on="0"/>
        <pt x="127" y="470" on="1"/>
        <pt x="127" y="509" on="0"/>
        <pt x="154" y="582" on="0"/>
        <pt x="209" y="640" on="0"/>
        <pt x="295" y="681" on="0"/>
        <pt x="354" y="688" on="1"/>
        <pt x="378" y="805" on="1"/>
        <pt x="581" y="805" on="1"/>
        <pt x="554" y="674" on="1"/>
        <pt x="594" y="664" on="0"/>
        <pt x="665" y="635" on="0"/>
        <pt x="695" y="617" on="1"/>
        <pt x="657" y="445" on="1"/>
        <pt x="656" y="445" on="1"/>
        <pt x="632" y="462" on="0"/>
        <pt x="571" y="493" on="0"/>
        <pt x="507" y="515" on="0"/>
        <pt x="440" y="528" on="0"/>
        <pt x="411" y="528" on="1"/>
        <pt x="370" y="528" on="0"/>
        <pt x="333" y="506" on="0"/>
        <pt x="333" y="487" on="1"/>
        <pt x="333" y="468" on="0"/>
        <pt x="377" y="448" on="0"/>
        <pt x="438" y="429" on="1"/>
        <pt x="488" y="414" on="0"/>
        <pt x="567" y="380" on="0"/>
        <pt x="622" y="336" on="0"/>
        <pt x="652" y="274" on="0"/>
        <pt x="652" y="231" on="1"/>
        <pt x="652" y="139" on="0"/>
        <pt x="533" y="22" on="0"/>
        <pt x="423" y="11" on="1"/>
        <pt x="398" y="-106" on="1"/>
      </contour>
    </TTGlyph>
    <TTGlyph name="dotaccent" xMin="213" yMin="620" xMax="476" yMax="827">
      <contour>
        <pt x="213" y="713" on="1"/>
        <pt x="213" y="762" on="0"/>
        <pt x="287" y="827" on="0"/>
        <pt x="355" y="827" on="1"/>
        <pt x="414" y="827" on="0"/>
        <pt x="476" y="776" on="0"/>
        <pt x="476" y="733" on="1"/>
        <pt x="476" y="683" on="0"/>
        <pt x="400" y="620" on="0"/>
        <pt x="334" y="620" on="1"/>
        <pt x="274" y="620" on="0"/>
        <pt x="213" y="670" on="0"/>
      </contour>
    </TTGlyph>
    <TTGlyph name="dotlessi" xMin="3" yMin="0" xMax="349" yMax="559">
      <contour>
        <pt x="122" y="559" on="1"/>
        <pt x="349" y="559" on="1"/>
        <pt x="230" y="0" on="1"/>
        <pt x="3" y="0" on="1"/>
      </contour>
    </TTGlyph>
    <TTGlyph name="dotlessi.sc" xMin="15" yMin="0" xMax="370" yMax="605">
      <component glyphName="i.sc" x="0" y="0" flags="0x204"/>
    </TTGlyph>
    <TTGlyph name="dotmath" xMin="89" yMin="233" xMax="347" yMax="465">
      <component glyphName="period" x="54" y="244" flags="0x4"/>
    </TTGlyph>
    <TTGlyph name="dotmath.tab" xMin="68" yMin="233" xMax="326" yMax="465">
      <component glyphName="dotmath" x="-21" y="0" flags="0x4"/>
    </TTGlyph>
    <TTGlyph name="e" xMin="31" yMin="-20" xMax="609" yMax="581">
      <contour>
        <pt x="363" y="147" on="1"/>
        <pt x="416" y="147" on="0"/>
        <pt x="516" y="175" on="0"/>
        <pt x="553" y="191" on="1"/>
        <pt x="554" y="191" on="1"/>
        <pt x="517" y="20" on="1"/>
        <pt x="480" y="3" on="0"/>
        <pt x="382" y="-20" on="0"/>
        <pt x="324" y="-20" on="1"/>
        <pt x="251" y="-20" on="0"/>
        <pt x="140" y="18" on="0"/>
        <pt x="68" y="86" on="0"/>
        <pt x="31" y="182" on="0"/>
        <pt x="31" y="239" on="1"/>
        <pt x="31" y="305" on="0"/>
        <pt x="75" y="429" on="0"/>
        <pt x="159" y="524" on="0"/>
        <pt x="282" y="581" on="0"/>
        <pt x="360" y="581" on="1"/>
        <pt x="422" y="581" on="0"/>
        <pt x="516" y="545" on="0"/>
        <pt x="578" y="480" on="0"/>
        <pt x="609" y="391" on="0"/>
        <pt x="609" y="338" on="1"/>
        <pt x="609" y="312" on="0"/>
        <pt x="598" y="257" on="0"/>
        <pt x="591" y="232" on="1"/>
        <pt x="238" y="232" on="1"/>
        <pt x="242" y="187" on="0"/>
        <pt x="306" y="147" on="0"/>
      </contour>
      <contour>
        <pt x="350" y="423" on="1"/>
        <pt x="313" y="422" on="0"/>
        <pt x="259" y="368" on="0"/>
        <pt x="247" y="328" on="1"/>
        <pt x="413" y="328" on="1"/>
        <pt x="414" y="333" on="0"/>
        <pt x="415" y="344" on="0"/>
        <pt x="415" y="349" on="1"/>
        <pt x="415" y="380" on="0"/>
        <pt x="384" y="423" on="0"/>
      </contour>
    </TTGlyph>
    <TTGlyph name="e.sc" xMin="14" yMin="0" xMax="659" yMax="605">
      <contour>
        <pt x="14" y="0" on="1"/>
        <pt x="143" y="605" on="1"/>
        <pt x="659" y="605" on="1"/>
        <pt x="643" y="445" on="1"/>
        <pt x="334" y="445" on="1"/>
        <pt x="317" y="369" on="1"/>
        <pt x="556" y="369" on="1"/>
        <pt x="527" y="236" on="1"/>
        <pt x="289" y="236" on="1"/>
        <pt x="274" y="161" on="1"/>
        <pt x="592" y="161" on="1"/>
        <pt x="543" y="0" on="1"/>
      </contour>
    </TTGlyph>
    <TTGlyph name="eacute" xMin="31" yMin="-20" xMax="681" yMax="816">
      <component glyphName="e" x="0" y="0" flags="0x204"/>
      <component glyphName="acute" x="106" y="4" flags="0x4"/>
    </TTGlyph>
    <TTGlyph name="eacute.sc" xMin="14" yMin="0" xMax="700" yMax="859">
      <component glyphName="e.sc" x="0" y="0" flags="0x204"/>
      <component glyphName="acute" x="125" y="47" flags="0x4"/>
    </TTGlyph>
    <TTGlyph name="ebreve" xMin="31" yMin="-20" xMax="644" yMax="849">
      <component glyphName="e" x="0" y="0" flags="0x204"/>
      <component glyphName="breve" x="68" y="4" flags="0x4"/>
    </TTGlyph>
    <TTGlyph name="ebreve.sc" xMin="14" yMin="0" xMax="663" yMax="892">
      <component glyphName="e.sc" x="0" y="0" flags="0x204"/>
      <component glyphName="breve" x="87" y="47" flags="0x4"/>
    </TTGlyph>
    <TTGlyph name="ecaron" xMin="31" yMin="-20" xMax="694" yMax="834">
      <component glyphName="e" x="0" y="0" flags="0x204"/>
      <component glyphName="caron" x="76" y="4" flags="0x4"/>
    </TTGlyph>
    <TTGlyph name="ecaron.sc" xMin="14" yMin="0" xMax="714" yMax="877">
      <component glyphName="e.sc" x="0" y="0" flags="0x204"/>
      <component glyphName="caron" x="96" y="47" flags="0x4"/>
    </TTGlyph>
    <TTGlyph name="ecircumflex" xMin="31" yMin="-20" xMax="633" yMax="834">
      <component glyphName="e" x="0" y="0" flags="0x204"/>
      <component glyphName="circumflex" x="57" y="4" flags="0x4"/>
    </TTGlyph>
    <TTGlyph name="ecircumflex.sc" xMin="14" yMin="0" xMax="659" yMax="877">
      <component glyphName="e.sc" x="0" y="0" flags="0x204"/>
      <component glyphName="circumflex" x="76" y="47" flags="0x4"/>
    </TTGlyph>
    <TTGlyph name="edieresis" xMin="31" yMin="-20" xMax="670" yMax="828">
      <component glyphName="e" x="0" y="0" flags="0x204"/>
      <component glyphName="dieresis" x="80" y="4" flags="0x4"/>
    </TTGlyph>
    <TTGlyph name="edieresis.sc" xMin="14" yMin="0" xMax="689" yMax="871">
      <component glyphName="e.sc" x="0" y="0" flags="0x204"/>
      <component glyphName="dieresis" x="99" y="47" flags="0x4"/>
    </TTGlyph>
    <TTGlyph name="edotaccent" xMin="31" yMin="-20" xMax="609" yMax="831">
      <component glyphName="e" x="0" y="0" flags="0x204"/>
      <component glyphName="dotaccent" x="71" y="4" flags="0x4"/>
    </TTGlyph>
    <TTGlyph name="edotaccent.sc" xMin="14" yMin="0" xMax="659" yMax="874">
      <component glyphName="e.sc" x="0" y="0" flags="0x204"/>
      <component glyphName="dotaccent" x="90" y="47" flags="0x4"/>
    </TTGlyph>
    <TTGlyph name="egrave" xMin="31" yMin="-20" xMax="609" yMax="819">
      <component glyphName="e" x="0" y="0" flags="0x204"/>
      <component glyphName="grave" x="0" y="4" flags="0x4"/>
    </TTGlyph>
    <TTGlyph name="egrave.sc" xMin="14" yMin="0" xMax="659" yMax="862">
      <component glyphName="e.sc" x="0" y="0" flags="0x204"/>
      <component glyphName="grave" x="19" y="47" flags="0x4"/>
    </TTGlyph>
    <TTGlyph name="eight" xMin="15" yMin="-24" xMax="727" yMax="724">
      <contour>
        <pt x="332" y="-24" on="1"/>
        <pt x="174" y="-24" on="0"/>
        <pt x="15" y="82" on="0"/>
        <pt x="15" y="170" on="1"/>
        <pt x="15" y="239" on="0"/>
        <pt x="112" y="346" on="0"/>
        <pt x="196" y="364" on="1"/>
        <pt x="153" y="383" on="0"/>
        <pt x="101" y="456" on="0"/>
        <pt x="101" y="502" on="1"/>
        <pt x="101" y="544" on="0"/>
        <pt x="139" y="624" on="0"/>
        <pt x="218" y="686" on="0"/>
        <pt x="343" y="724" on="0"/>
        <pt x="429" y="724" on="1"/>
        <pt x="506" y="724" on="0"/>
        <pt x="619" y="692" on="0"/>
        <pt x="692" y="638" on="0"/>
        <pt x="727" y="564" on="0"/>
        <pt x="727" y="523" on="1"/>
        <pt x="727" y="454" on="0"/>
        <pt x="633" y="361" on="0"/>
        <pt x="566" y="346" on="1"/>
        <pt x="618" y="325" on="0"/>
        <pt x="676" y="250" on="0"/>
        <pt x="676" y="199" on="1"/>
        <pt x="676" y="155" on="0"/>
        <pt x="637" y="74" on="0"/>
        <pt x="554" y="13" on="0"/>
        <pt x="423" y="-24" on="0"/>
      </contour>
      <contour>
        <pt x="406" y="417" on="1"/>
        <pt x="460" y="417" on="0"/>
        <pt x="518" y="462" on="0"/>
        <pt x="518" y="496" on="1"/>
        <pt x="518" y="528" on="0"/>
        <pt x="470" y="561" on="0"/>
        <pt x="423" y="561" on="1"/>
        <pt x="369" y="561" on="0"/>
        <pt x="310" y="515" on="0"/>
        <pt x="310" y="481" on="1"/>
        <pt x="310" y="450" on="0"/>
        <pt x="359" y="417" on="0"/>
      </contour>
      <contour>
        <pt x="352" y="290" on="1"/>
        <pt x="290" y="290" on="0"/>
        <pt x="232" y="242" on="0"/>
        <pt x="232" y="208" on="1"/>
        <pt x="232" y="176" on="0"/>
        <pt x="285" y="141" on="0"/>
        <pt x="335" y="141" on="1"/>
        <pt x="397" y="141" on="0"/>
        <pt x="460" y="185" on="0"/>
        <pt x="460" y="222" on="1"/>
        <pt x="460" y="254" on="0"/>
        <pt x="406" y="290" on="0"/>
      </contour>
    </TTGlyph>
    <TTGlyph name="eight.den" xMin="-25" yMin="-14" xMax="407" yMax="438">
      <component glyphName="eight.small" x="-6" y="0" flags="0x4"/>
    </TTGlyph>
    <TTGlyph name="eight.den_tab" xMin="-40" yMin="-14" xMax="392" yMax="438">
      <component glyphName="eight.small" x="-21" y="0" flags="0x4"/>
    </TTGlyph>
    <TTGlyph name="eight.inf" xMin="-51" yMin="-224" xMax="381" yMax="228">
      <component glyphName="eight.small" x="-32" y="-210" flags="0x4"/>
    </TTGlyph>
    <TTGlyph name="eight.num" xMin="46" yMin="263" xMax="478" yMax="715">
      <component glyphName="eight.small" x="65" y="277" flags="0x4"/>
    </TTGlyph>
    <TTGlyph name="eight.num_tab" xMin="31" yMin="263" xMax="463" yMax="715">
      <component glyphName="eight.small" x="50" y="277" flags="0x4"/>
    </TTGlyph>
    <TTGlyph name="eight.osf" xMin="19" yMin="-24" xMax="693" yMax="724">
      <contour>
        <pt x="413" y="724" on="1"/>
        <pt x="487" y="724" on="0"/>
        <pt x="593" y="692" on="0"/>
        <pt x="661" y="637" on="0"/>
        <pt x="693" y="564" on="0"/>
        <pt x="693" y="524" on="1"/>
        <pt x="693" y="454" on="0"/>
        <pt x="600" y="360" on="0"/>
        <pt x="534" y="346" on="1"/>
        <pt x="586" y="325" on="0"/>
        <pt x="643" y="249" on="0"/>
        <pt x="643" y="198" on="1"/>
        <pt x="643" y="154" on="0"/>
        <pt x="606" y="74" on="0"/>
        <pt x="528" y="13" on="0"/>
        <pt x="404" y="-24" on="0"/>
        <pt x="318" y="-24" on="1"/>
        <pt x="167" y="-24" on="0"/>
        <pt x="19" y="81" on="0"/>
        <pt x="19" y="170" on="1"/>
        <pt x="19" y="239" on="0"/>
        <pt x="115" y="345" on="0"/>
        <pt x="197" y="363" on="1"/>
        <pt x="154" y="383" on="0"/>
        <pt x="103" y="454" on="0"/>
        <pt x="103" y="503" on="1"/>
        <pt x="103" y="545" on="0"/>
        <pt x="139" y="625" on="0"/>
        <pt x="214" y="687" on="0"/>
        <pt x="332" y="724" on="0"/>
      </contour>
      <contour>
        <pt x="406" y="561" on="1"/>
        <pt x="356" y="561" on="0"/>
        <pt x="303" y="515" on="0"/>
        <pt x="303" y="481" on="1"/>
        <pt x="303" y="450" on="0"/>
        <pt x="347" y="417" on="0"/>
        <pt x="390" y="417" on="1"/>
        <pt x="440" y="417" on="0"/>
        <pt x="494" y="463" on="0"/>
        <pt x="494" y="497" on="1"/>
        <pt x="494" y="528" on="0"/>
        <pt x="449" y="561" on="0"/>
      </contour>
      <contour>
        <pt x="320" y="140" on="1"/>
        <pt x="377" y="140" on="0"/>
        <pt x="436" y="185" on="0"/>
        <pt x="436" y="222" on="1"/>
        <pt x="436" y="253" on="0"/>
        <pt x="386" y="289" on="0"/>
        <pt x="337" y="289" on="1"/>
        <pt x="279" y="289" on="0"/>
        <pt x="225" y="241" on="0"/>
        <pt x="225" y="207" on="1"/>
        <pt x="225" y="176" on="0"/>
        <pt x="274" y="140" on="0"/>
      </contour>
    </TTGlyph>
    <TTGlyph name="eight.small" xMin="-19" yMin="-14" xMax="413" yMax="438">
      <contour>
        <pt x="173" y="-14" on="1"/>
        <pt x="78" y="-14" on="0"/>
        <pt x="-19" y="50" on="0"/>
        <pt x="-19" y="103" on="1"/>
        <pt x="-19" y="145" on="0"/>
        <pt x="40" y="210" on="0"/>
        <pt x="91" y="220" on="1"/>
        <pt x="64" y="233" on="0"/>
        <pt x="33" y="276" on="0"/>
        <pt x="33" y="306" on="1"/>
        <pt x="33" y="331" on="0"/>
        <pt x="56" y="379" on="0"/>
        <pt x="105" y="416" on="0"/>
        <pt x="180" y="438" on="0"/>
        <pt x="232" y="438" on="1"/>
        <pt x="325" y="438" on="0"/>
        <pt x="413" y="366" on="0"/>
        <pt x="413" y="316" on="1"/>
        <pt x="413" y="273" on="0"/>
        <pt x="356" y="217" on="0"/>
        <pt x="315" y="209" on="1"/>
        <pt x="347" y="197" on="0"/>
        <pt x="382" y="151" on="0"/>
        <pt x="382" y="119" on="1"/>
        <pt x="382" y="67" on="0"/>
        <pt x="283" y="-14" on="0"/>
      </contour>
      <contour>
        <pt x="216" y="254" on="1"/>
        <pt x="244" y="254" on="0"/>
        <pt x="277" y="278" on="0"/>
        <pt x="277" y="296" on="1"/>
        <pt x="277" y="313" on="0"/>
        <pt x="252" y="330" on="0"/>
        <pt x="228" y="330" on="1"/>
        <pt x="200" y="330" on="0"/>
        <pt x="167" y="306" on="0"/>
        <pt x="167" y="288" on="1"/>
        <pt x="167" y="271" on="0"/>
        <pt x="193" y="254" on="0"/>
      </contour>
      <contour>
        <pt x="185" y="172" on="1"/>
        <pt x="154" y="172" on="0"/>
        <pt x="122" y="148" on="0"/>
        <pt x="122" y="129" on="1"/>
        <pt x="122" y="111" on="0"/>
        <pt x="151" y="93" on="0"/>
        <pt x="178" y="93" on="1"/>
        <pt x="209" y="93" on="0"/>
        <pt x="241" y="117" on="0"/>
        <pt x="241" y="137" on="1"/>
        <pt x="241" y="155" on="0"/>
        <pt x="213" y="172" on="0"/>
      </contour>
    </TTGlyph>
    <TTGlyph name="eight.sup" xMin="70" yMin="347" xMax="502" yMax="799">
      <component glyphName="eight.small" x="89" y="361" flags="0x4"/>
    </TTGlyph>
    <TTGlyph name="eight.tab" xMin="20" yMin="-24" xMax="717" yMax="724">
      <contour>
        <pt x="330" y="-24" on="1"/>
        <pt x="175" y="-24" on="0"/>
        <pt x="20" y="82" on="0"/>
        <pt x="20" y="171" on="1"/>
        <pt x="20" y="240" on="0"/>
        <pt x="119" y="347" on="0"/>
        <pt x="203" y="364" on="1"/>
        <pt x="159" y="383" on="0"/>
        <pt x="106" y="456" on="0"/>
        <pt x="106" y="505" on="1"/>
        <pt x="106" y="546" on="0"/>
        <pt x="143" y="625" on="0"/>
        <pt x="221" y="686" on="0"/>
        <pt x="343" y="724" on="0"/>
        <pt x="427" y="724" on="1"/>
        <pt x="502" y="724" on="0"/>
        <pt x="612" y="692" on="0"/>
        <pt x="683" y="638" on="0"/>
        <pt x="717" y="564" on="0"/>
        <pt x="717" y="523" on="1"/>
        <pt x="717" y="453" on="0"/>
        <pt x="623" y="359" on="0"/>
        <pt x="555" y="346" on="1"/>
        <pt x="608" y="325" on="0"/>
        <pt x="666" y="249" on="0"/>
        <pt x="666" y="198" on="1"/>
        <pt x="666" y="154" on="0"/>
        <pt x="627" y="74" on="0"/>
        <pt x="546" y="13" on="0"/>
        <pt x="418" y="-24" on="0"/>
      </contour>
      <contour>
        <pt x="403" y="417" on="1"/>
        <pt x="454" y="417" on="0"/>
        <pt x="509" y="462" on="0"/>
        <pt x="509" y="496" on="1"/>
        <pt x="509" y="528" on="0"/>
        <pt x="464" y="561" on="0"/>
        <pt x="421" y="561" on="1"/>
        <pt x="370" y="561" on="0"/>
        <pt x="315" y="515" on="0"/>
        <pt x="315" y="481" on="1"/>
        <pt x="315" y="450" on="0"/>
        <pt x="360" y="417" on="0"/>
      </contour>
      <contour>
        <pt x="349" y="290" on="1"/>
        <pt x="294" y="290" on="0"/>
        <pt x="237" y="246" on="0"/>
        <pt x="237" y="209" on="1"/>
        <pt x="237" y="176" on="0"/>
        <pt x="288" y="141" on="0"/>
        <pt x="338" y="141" on="1"/>
        <pt x="393" y="141" on="0"/>
        <pt x="450" y="184" on="0"/>
        <pt x="450" y="221" on="1"/>
        <pt x="450" y="254" on="0"/>
        <pt x="399" y="290" on="0"/>
      </contour>
    </TTGlyph>
    <TTGlyph name="ellipsis" xMin="35" yMin="-11" xMax="1093" yMax="221">
      <contour>
        <pt x="35" y="94" on="1"/>
        <pt x="35" y="146" on="0"/>
        <pt x="110" y="221" on="0"/>
        <pt x="176" y="221" on="1"/>
        <pt x="233" y="221" on="0"/>
        <pt x="293" y="162" on="0"/>
        <pt x="293" y="116" on="1"/>
        <pt x="293" y="65" on="0"/>
        <pt x="218" y="-11" on="0"/>
        <pt x="153" y="-11" on="1"/>
        <pt x="95" y="-11" on="0"/>
        <pt x="35" y="48" on="0"/>
      </contour>
      <contour>
        <pt x="435" y="94" on="1"/>
        <pt x="435" y="146" on="0"/>
        <pt x="510" y="221" on="0"/>
        <pt x="575" y="221" on="1"/>
        <pt x="633" y="221" on="0"/>
        <pt x="693" y="162" on="0"/>
        <pt x="693" y="116" on="1"/>
        <pt x="693" y="65" on="0"/>
        <pt x="618" y="-11" on="0"/>
        <pt x="553" y="-11" on="1"/>
        <pt x="495" y="-11" on="0"/>
        <pt x="435" y="48" on="0"/>
      </contour>
      <contour>
        <pt x="835" y="94" on="1"/>
        <pt x="835" y="146" on="0"/>
        <pt x="910" y="221" on="0"/>
        <pt x="975" y="221" on="1"/>
        <pt x="1033" y="221" on="0"/>
        <pt x="1093" y="162" on="0"/>
        <pt x="1093" y="116" on="1"/>
        <pt x="1093" y="65" on="0"/>
        <pt x="1018" y="-11" on="0"/>
        <pt x="953" y="-11" on="1"/>
        <pt x="895" y="-11" on="0"/>
        <pt x="835" y="48" on="0"/>
      </contour>
    </TTGlyph>
    <TTGlyph name="emacron" xMin="31" yMin="-20" xMax="637" yMax="796">
      <component glyphName="e" x="0" y="0" flags="0x204"/>
      <component glyphName="macron" x="66" y="4" flags="0x4"/>
    </TTGlyph>
    <TTGlyph name="emacron.sc" xMin="14" yMin="0" xMax="659" yMax="839">
      <component glyphName="e.sc" x="0" y="0" flags="0x204"/>
      <component glyphName="macron" x="85" y="47" flags="0x4"/>
    </TTGlyph>
    <TTGlyph name="emdash" xMin="47" yMin="233" xMax="827" yMax="418">
      <contour>
        <pt x="47" y="233" on="1"/>
        <pt x="87" y="418" on="1"/>
        <pt x="827" y="418" on="1"/>
        <pt x="787" y="233" on="1"/>
      </contour>
    </TTGlyph>
    <TTGlyph name="emdash.cap" xMin="52" yMin="257" xMax="832" yMax="442">
      <component glyphName="emdash" x="5" y="24" flags="0x4"/>
    </TTGlyph>
    <TTGlyph name="endash" xMin="47" yMin="233" xMax="637" yMax="418">
      <contour>
        <pt x="47" y="233" on="1"/>
        <pt x="87" y="418" on="1"/>
        <pt x="637" y="418" on="1"/>
        <pt x="597" y="233" on="1"/>
      </contour>
    </TTGlyph>
    <TTGlyph name="endash.cap" xMin="52" yMin="257" xMax="642" yMax="442">
      <component glyphName="endash" x="5" y="24" flags="0x4"/>
    </TTGlyph>
    <TTGlyph name="endash.tab" xMin="73" yMin="257" xMax="683" yMax="443">
      <contour>
        <pt x="73" y="257" on="1"/>
        <pt x="112" y="443" on="1"/>
        <pt x="683" y="443" on="1"/>
        <pt x="643" y="257" on="1"/>
      </contour>
    </TTGlyph>
    <TTGlyph name="eogonek" xMin="31" yMin="-317" xMax="609" yMax="581">
      <contour>
        <pt x="363" y="147" on="1"/>
        <pt x="416" y="147" on="0"/>
        <pt x="516" y="175" on="0"/>
        <pt x="553" y="191" on="1"/>
        <pt x="554" y="191" on="1"/>
        <pt x="517" y="20" on="1"/>
        <pt x="435" y="-47" on="1"/>
        <pt x="388" y="-85" on="0"/>
        <pt x="349" y="-127" on="0"/>
        <pt x="349" y="-143" on="1"/>
        <pt x="349" y="-156" on="0"/>
        <pt x="373" y="-170" on="0"/>
        <pt x="400" y="-170" on="1"/>
        <pt x="420" y="-170" on="0"/>
        <pt x="464" y="-161" on="0"/>
        <pt x="486" y="-154" on="1"/>
        <pt x="455" y="-295" on="1"/>
        <pt x="426" y="-306" on="0"/>
        <pt x="363" y="-317" on="0"/>
        <pt x="324" y="-317" on="1"/>
        <pt x="246" y="-317" on="0"/>
        <pt x="152" y="-258" on="0"/>
        <pt x="152" y="-204" on="1"/>
        <pt x="152" y="-151" on="0"/>
        <pt x="236" y="-60" on="0"/>
        <pt x="294" y="-19" on="1"/>
        <pt x="163" y="-12" on="0"/>
        <pt x="31" y="131" on="0"/>
        <pt x="31" y="239" on="1"/>
        <pt x="31" y="305" on="0"/>
        <pt x="75" y="429" on="0"/>
        <pt x="159" y="524" on="0"/>
        <pt x="282" y="581" on="0"/>
        <pt x="360" y="581" on="1"/>
        <pt x="422" y="581" on="0"/>
        <pt x="516" y="545" on="0"/>
        <pt x="578" y="480" on="0"/>
        <pt x="609" y="391" on="0"/>
        <pt x="609" y="338" on="1"/>
        <pt x="609" y="312" on="0"/>
        <pt x="598" y="257" on="0"/>
        <pt x="591" y="232" on="1"/>
        <pt x="238" y="232" on="1"/>
        <pt x="242" y="187" on="0"/>
        <pt x="306" y="147" on="0"/>
      </contour>
      <contour>
        <pt x="350" y="423" on="1"/>
        <pt x="313" y="422" on="0"/>
        <pt x="259" y="368" on="0"/>
        <pt x="247" y="328" on="1"/>
        <pt x="413" y="328" on="1"/>
        <pt x="414" y="333" on="0"/>
        <pt x="415" y="344" on="0"/>
        <pt x="415" y="349" on="1"/>
        <pt x="415" y="380" on="0"/>
        <pt x="384" y="423" on="0"/>
      </contour>
    </TTGlyph>
    <TTGlyph name="eogonek.sc" xMin="14" yMin="-317" xMax="659" yMax="605">
      <contour>
        <pt x="14" y="0" on="1"/>
        <pt x="143" y="605" on="1"/>
        <pt x="659" y="605" on="1"/>
        <pt x="643" y="445" on="1"/>
        <pt x="334" y="445" on="1"/>
        <pt x="317" y="369" on="1"/>
        <pt x="556" y="369" on="1"/>
        <pt x="527" y="236" on="1"/>
        <pt x="289" y="236" on="1"/>
        <pt x="274" y="161" on="1"/>
        <pt x="592" y="161" on="1"/>
        <pt x="543" y="0" on="1"/>
        <pt x="483" y="-48" on="1"/>
        <pt x="436" y="-85" on="0"/>
        <pt x="396" y="-127" on="0"/>
        <pt x="396" y="-143" on="1"/>
        <pt x="396" y="-156" on="0"/>
        <pt x="420" y="-170" on="0"/>
        <pt x="448" y="-170" on="1"/>
        <pt x="468" y="-170" on="0"/>
        <pt x="508" y="-162" on="0"/>
        <pt x="533" y="-154" on="1"/>
        <pt x="503" y="-295" on="1"/>
        <pt x="474" y="-306" on="0"/>
        <pt x="411" y="-317" on="0"/>
        <pt x="371" y="-317" on="1"/>
        <pt x="280" y="-317" on="0"/>
        <pt x="200" y="-248" on="0"/>
        <pt x="200" y="-206" on="1"/>
        <pt x="200" y="-153" on="0"/>
        <pt x="288" y="-52" on="0"/>
        <pt x="393" y="0" on="1"/>
      </contour>
    </TTGlyph>
    <TTGlyph name="equal" xMin="51" yMin="129" xMax="699" yMax="574">
      <contour>
        <pt x="108" y="400" on="1"/>
        <pt x="145" y="574" on="1"/>
        <pt x="699" y="574" on="1"/>
        <pt x="662" y="400" on="1"/>
      </contour>
      <contour>
        <pt x="51" y="129" on="1"/>
        <pt x="88" y="303" on="1"/>
        <pt x="641" y="303" on="1"/>
        <pt x="604" y="129" on="1"/>
      </contour>
    </TTGlyph>
    <TTGlyph name="equal.tab" xMin="54" yMin="129" xMax="702" yMax="574">
      <component glyphName="equal" x="3" y="0" flags="0x4"/>
    </TTGlyph>
    <TTGlyph name="eth" xMin="24" yMin="-24" xMax="679" yMax="786">
      <contour>
        <pt x="644" y="363" on="1"/>
        <pt x="644" y="279" on="0"/>
        <pt x="600" y="136" on="0"/>
        <pt x="515" y="34" on="0"/>
        <pt x="388" y="-24" on="0"/>
        <pt x="306" y="-24" on="1"/>
        <pt x="245" y="-24" on="0"/>
        <pt x="141" y="9" on="0"/>
        <pt x="66" y="71" on="0"/>
        <pt x="24" y="162" on="0"/>
        <pt x="24" y="219" on="1"/>
        <pt x="24" y="282" on="0"/>
        <pt x="64" y="387" on="0"/>
        <pt x="133" y="461" on="0"/>
        <pt x="229" y="503" on="0"/>
        <pt x="285" y="503" on="1"/>
        <pt x="335" y="503" on="0"/>
        <pt x="409" y="469" on="0"/>
        <pt x="436" y="439" on="1"/>
        <pt x="429" y="478" on="0"/>
        <pt x="396" y="551" on="0"/>
        <pt x="368" y="587" on="1"/>
        <pt x="169" y="532" on="1"/>
        <pt x="195" y="651" on="1"/>
        <pt x="283" y="676" on="1"/>
        <pt x="255" y="700" on="0"/>
        <pt x="186" y="750" on="0"/>
        <pt x="145" y="775" on="1"/>
        <pt x="145" y="784" on="1"/>
        <pt x="395" y="784" on="1"/>
        <pt x="414" y="772" on="0"/>
        <pt x="453" y="744" on="0"/>
        <pt x="472" y="728" on="1"/>
        <pt x="679" y="786" on="1"/>
        <pt x="654" y="667" on="1"/>
        <pt x="554" y="639" on="1"/>
        <pt x="594" y="585" on="0"/>
        <pt x="644" y="446" on="0"/>
      </contour>
      <contour>
        <pt x="234" y="243" on="1"/>
        <pt x="234" y="200" on="0"/>
        <pt x="280" y="154" on="0"/>
        <pt x="322" y="154" on="1"/>
        <pt x="367" y="154" on="0"/>
        <pt x="434" y="238" on="0"/>
        <pt x="438" y="322" on="1"/>
        <pt x="419" y="344" on="0"/>
        <pt x="372" y="362" on="0"/>
        <pt x="343" y="362" on="1"/>
        <pt x="294" y="362" on="0"/>
        <pt x="234" y="292" on="0"/>
      </contour>
    </TTGlyph>
    <TTGlyph name="eth.sc" xMin="13" yMin="0" xMax="778" yMax="605">
      <contour>
        <pt x="59" y="0" on="1"/>
        <pt x="108" y="230" on="1"/>
        <pt x="13" y="230" on="1"/>
        <pt x="57" y="378" on="1"/>
        <pt x="140" y="378" on="1"/>
        <pt x="188" y="605" on="1"/>
        <pt x="448" y="605" on="1"/>
        <pt x="614" y="605" on="0"/>
        <pt x="778" y="467" on="0"/>
        <pt x="778" y="352" on="1"/>
        <pt x="778" y="288" on="0"/>
        <pt x="737" y="162" on="0"/>
        <pt x="641" y="62" on="0"/>
        <pt x="479" y="0" on="0"/>
        <pt x="358" y="0" on="1"/>
      </contour>
      <contour>
        <pt x="553" y="334" on="1"/>
        <pt x="553" y="391" on="0"/>
        <pt x="485" y="436" on="0"/>
        <pt x="424" y="436" on="1"/>
        <pt x="374" y="436" on="1"/>
        <pt x="359" y="364" on="1"/>
        <pt x="479" y="364" on="1"/>
        <pt x="453" y="242" on="1"/>
        <pt x="333" y="242" on="1"/>
        <pt x="318" y="170" on="1"/>
        <pt x="386" y="170" on="1"/>
        <pt x="474" y="170" on="0"/>
        <pt x="553" y="266" on="0"/>
      </contour>
    </TTGlyph>
    <TTGlyph name="exclam" xMin="44" yMin="-11" xMax="433" yMax="700">
      <contour>
        <pt x="132" y="285" on="1"/>
        <pt x="156" y="674" on="1"/>
        <pt x="162" y="700" on="1"/>
        <pt x="433" y="700" on="1"/>
        <pt x="427" y="674" on="1"/>
        <pt x="285" y="285" on="1"/>
      </contour>
      <contour>
        <pt x="44" y="94" on="1"/>
        <pt x="44" y="146" on="0"/>
        <pt x="119" y="221" on="0"/>
        <pt x="184" y="221" on="1"/>
        <pt x="242" y="221" on="0"/>
        <pt x="302" y="162" on="0"/>
        <pt x="302" y="116" on="1"/>
        <pt x="302" y="65" on="0"/>
        <pt x="227" y="-11" on="0"/>
        <pt x="162" y="-11" on="1"/>
        <pt x="104" y="-11" on="0"/>
        <pt x="44" y="48" on="0"/>
      </contour>
    </TTGlyph>
    <TTGlyph name="exclamdown" xMin="-15" yMin="-130" xMax="374" yMax="581">
      <contour>
        <pt x="374" y="476" on="1"/>
        <pt x="374" y="424" on="0"/>
        <pt x="299" y="349" on="0"/>
        <pt x="234" y="349" on="1"/>
        <pt x="176" y="349" on="0"/>
        <pt x="116" y="408" on="0"/>
        <pt x="116" y="454" on="1"/>
        <pt x="116" y="505" on="0"/>
        <pt x="191" y="581" on="0"/>
        <pt x="256" y="581" on="1"/>
        <pt x="314" y="581" on="0"/>
        <pt x="374" y="522" on="0"/>
      </contour>
      <contour>
        <pt x="286" y="285" on="1"/>
        <pt x="262" y="-104" on="1"/>
        <pt x="256" y="-130" on="1"/>
        <pt x="-15" y="-130" on="1"/>
        <pt x="-9" y="-104" on="1"/>
        <pt x="133" y="285" on="1"/>
      </contour>
    </TTGlyph>
    <TTGlyph name="exclamdown.cap" xMin="12" yMin="0" xMax="401" yMax="711">
      <contour>
        <pt x="401" y="606" on="1"/>
        <pt x="401" y="554" on="0"/>
        <pt x="326" y="479" on="0"/>
        <pt x="261" y="479" on="1"/>
        <pt x="203" y="479" on="0"/>
        <pt x="143" y="538" on="0"/>
        <pt x="143" y="584" on="1"/>
        <pt x="143" y="635" on="0"/>
        <pt x="218" y="711" on="0"/>
        <pt x="283" y="711" on="1"/>
        <pt x="341" y="711" on="0"/>
        <pt x="401" y="652" on="0"/>
      </contour>
      <contour>
        <pt x="313" y="415" on="1"/>
        <pt x="289" y="26" on="1"/>
        <pt x="283" y="0" on="1"/>
        <pt x="12" y="0" on="1"/>
        <pt x="18" y="26" on="1"/>
        <pt x="160" y="415" on="1"/>
      </contour>
    </TTGlyph>
    <TTGlyph name="f" xMin="36" yMin="0" xMax="576" yMax="800">
      <contour>
        <pt x="408" y="573" on="1"/>
        <pt x="405" y="559" on="1"/>
        <pt x="541" y="559" on="1"/>
        <pt x="506" y="396" on="1"/>
        <pt x="371" y="396" on="1"/>
        <pt x="287" y="0" on="1"/>
        <pt x="65" y="0" on="1"/>
        <pt x="150" y="396" on="1"/>
        <pt x="36" y="396" on="1"/>
        <pt x="99" y="559" on="1"/>
        <pt x="185" y="559" on="1"/>
        <pt x="189" y="580" on="1"/>
        <pt x="211" y="686" on="0"/>
        <pt x="331" y="800" on="0"/>
        <pt x="440" y="800" on="1"/>
        <pt x="482" y="800" on="0"/>
        <pt x="550" y="784" on="0"/>
        <pt x="576" y="772" on="1"/>
        <pt x="544" y="628" on="1"/>
        <pt x="543" y="628" on="1"/>
        <pt x="531" y="632" on="0"/>
        <pt x="496" y="639" on="0"/>
        <pt x="482" y="639" on="1"/>
        <pt x="449" y="639" on="0"/>
        <pt x="415" y="607" on="0"/>
      </contour>
    </TTGlyph>
    <TTGlyph name="f.sc" xMin="14" yMin="0" xMax="658" yMax="605">
      <contour>
        <pt x="333" y="433" on="1"/>
        <pt x="312" y="337" on="1"/>
        <pt x="566" y="337" on="1"/>
        <pt x="535" y="193" on="1"/>
        <pt x="281" y="193" on="1"/>
        <pt x="241" y="0" on="1"/>
        <pt x="14" y="0" on="1"/>
        <pt x="143" y="605" on="1"/>
        <pt x="658" y="605" on="1"/>
        <pt x="642" y="433" on="1"/>
      </contour>
    </TTGlyph>
    <TTGlyph name="five" xMin="5" yMin="-21" xMax="666" yMax="700">
      <contour>
        <pt x="5" y="41" on="1"/>
        <pt x="43" y="220" on="1"/>
        <pt x="44" y="220" on="1"/>
        <pt x="101" y="192" on="0"/>
        <pt x="229" y="160" on="0"/>
        <pt x="298" y="159" on="1"/>
        <pt x="364" y="159" on="0"/>
        <pt x="412" y="197" on="0"/>
        <pt x="412" y="220" on="1"/>
        <pt x="412" y="256" on="0"/>
        <pt x="288" y="284" on="0"/>
        <pt x="138" y="284" on="1"/>
        <pt x="71" y="284" on="1"/>
        <pt x="169" y="700" on="1"/>
        <pt x="666" y="700" on="1"/>
        <pt x="648" y="524" on="1"/>
        <pt x="326" y="524" on="1"/>
        <pt x="305" y="437" on="1"/>
        <pt x="456" y="432" on="0"/>
        <pt x="627" y="334" on="0"/>
        <pt x="627" y="224" on="1"/>
        <pt x="627" y="113" on="0"/>
        <pt x="458" y="-21" on="0"/>
        <pt x="296" y="-21" on="1"/>
        <pt x="210" y="-21" on="0"/>
        <pt x="65" y="13" on="0"/>
      </contour>
    </TTGlyph>
    <TTGlyph name="five.den" xMin="-15" yMin="-15" xMax="399" yMax="423">
      <component glyphName="five.small" x="-6" y="0" flags="0x4"/>
    </TTGlyph>
    <TTGlyph name="five.den_tab" xMin="-30" yMin="-15" xMax="384" yMax="423">
      <component glyphName="five.small" x="-21" y="0" flags="0x4"/>
    </TTGlyph>
    <TTGlyph name="five.inf" xMin="-41" yMin="-225" xMax="373" yMax="213">
      <component glyphName="five.small" x="-32" y="-210" flags="0x4"/>
    </TTGlyph>
    <TTGlyph name="five.num" xMin="56" yMin="262" xMax="470" yMax="700">
      <component glyphName="five.small" x="65" y="277" flags="0x4"/>
    </TTGlyph>
    <TTGlyph name="five.num_tab" xMin="41" yMin="262" xMax="455" yMax="700">
      <component glyphName="five.small" x="50" y="277" flags="0x4"/>
    </TTGlyph>
    <TTGlyph name="five.osf" xMin="-19" yMin="-118" xMax="600" yMax="605">
      <contour>
        <pt x="-19" y="-57" on="1"/>
        <pt x="18" y="115" on="1"/>
        <pt x="19" y="115" on="1"/>
        <pt x="70" y="90" on="0"/>
        <pt x="178" y="57" on="0"/>
        <pt x="238" y="57" on="1"/>
        <pt x="295" y="57" on="0"/>
        <pt x="345" y="92" on="0"/>
        <pt x="345" y="120" on="1"/>
        <pt x="345" y="157" on="0"/>
        <pt x="220" y="190" on="0"/>
        <pt x="98" y="191" on="1"/>
        <pt x="49" y="191" on="1"/>
        <pt x="147" y="605" on="1"/>
        <pt x="600" y="605" on="1"/>
        <pt x="583" y="432" on="1"/>
        <pt x="302" y="432" on="1"/>
        <pt x="280" y="340" on="1"/>
        <pt x="410" y="332" on="0"/>
        <pt x="555" y="230" on="0"/>
        <pt x="555" y="126" on="1"/>
        <pt x="555" y="73" on="0"/>
        <pt x="516" y="-17" on="0"/>
        <pt x="439" y="-82" on="0"/>
        <pt x="324" y="-118" on="0"/>
        <pt x="248" y="-118" on="1"/>
        <pt x="167" y="-118" on="0"/>
        <pt x="38" y="-84" on="0"/>
      </contour>
    </TTGlyph>
    <TTGlyph name="five.small" xMin="-9" yMin="-15" xMax="405" yMax="423">
      <contour>
        <pt x="172" y="-15" on="1"/>
        <pt x="121" y="-15" on="0"/>
        <pt x="30" y="4" on="0"/>
        <pt x="-9" y="20" on="1"/>
        <pt x="17" y="140" on="1"/>
        <pt x="18" y="140" on="1"/>
        <pt x="54" y="125" on="0"/>
        <pt x="131" y="109" on="0"/>
        <pt x="174" y="109" on="1"/>
        <pt x="208" y="108" on="0"/>
        <pt x="233" y="124" on="0"/>
        <pt x="233" y="135" on="1"/>
        <pt x="233" y="153" on="0"/>
        <pt x="158" y="167" on="0"/>
        <pt x="66" y="170" on="1"/>
        <pt x="31" y="170" on="1"/>
        <pt x="90" y="423" on="1"/>
        <pt x="405" y="423" on="1"/>
        <pt x="392" y="302" on="1"/>
        <pt x="188" y="302" on="1"/>
        <pt x="177" y="258" on="1"/>
        <pt x="267" y="255" on="0"/>
        <pt x="376" y="201" on="0"/>
        <pt x="376" y="133" on="1"/>
        <pt x="376" y="65" on="0"/>
        <pt x="272" y="-15" on="0"/>
      </contour>
    </TTGlyph>
    <TTGlyph name="five.sup" xMin="80" yMin="346" xMax="494" yMax="784">
      <component glyphName="five.small" x="89" y="361" flags="0x4"/>
    </TTGlyph>
    <TTGlyph name="five.tab" xMin="34" yMin="-21" xMax="704" yMax="700">
      <contour>
        <pt x="325" y="-21" on="1"/>
        <pt x="238" y="-21" on="0"/>
        <pt x="94" y="14" on="0"/>
        <pt x="34" y="42" on="1"/>
        <pt x="72" y="221" on="1"/>
        <pt x="73" y="221" on="1"/>
        <pt x="130" y="193" on="0"/>
        <pt x="258" y="160" on="0"/>
        <pt x="327" y="159" on="1"/>
        <pt x="391" y="159" on="0"/>
        <pt x="443" y="194" on="0"/>
        <pt x="443" y="219" on="1"/>
        <pt x="443" y="256" on="0"/>
        <pt x="317" y="282" on="0"/>
        <pt x="163" y="282" on="1"/>
        <pt x="97" y="282" on="1"/>
        <pt x="195" y="700" on="1"/>
        <pt x="704" y="700" on="1"/>
        <pt x="686" y="524" on="1"/>
        <pt x="352" y="524" on="1"/>
        <pt x="329" y="434" on="1"/>
        <pt x="482" y="429" on="0"/>
        <pt x="657" y="332" on="0"/>
        <pt x="657" y="224" on="1"/>
        <pt x="657" y="113" on="0"/>
        <pt x="487" y="-21" on="0"/>
      </contour>
    </TTGlyph>
    <TTGlyph name="fiveeighths" xMin="56" yMin="-14" xMax="1116" yMax="700">
      <component glyphName="five.num" x="0" y="0" flags="0x4"/>
      <component glyphName="fraction" x="433" y="0" flags="0x4"/>
      <component glyphName="eight.den" x="709" y="0" flags="0x4"/>
    </TTGlyph>
    <TTGlyph name="fiveeighths.tab" xMin="41" yMin="-14" xMax="1044" yMax="700">
      <component glyphName="five.num_tab" x="0" y="0" flags="0x4"/>
      <component glyphName="fraction.tab" x="434" y="0" flags="0x4"/>
      <component glyphName="eight.den_tab" x="652" y="0" flags="0x4"/>
    </TTGlyph>
    <TTGlyph name="four" xMin="2" yMin="0" xMax="745" yMax="700">
      <contour>
        <pt x="359" y="0" on="1"/>
        <pt x="388" y="137" on="1"/>
        <pt x="2" y="137" on="1"/>
        <pt x="38" y="295" on="1"/>
        <pt x="311" y="700" on="1"/>
        <pt x="717" y="700" on="1"/>
        <pt x="635" y="310" on="1"/>
        <pt x="745" y="310" on="1"/>
        <pt x="692" y="137" on="1"/>
        <pt x="598" y="137" on="1"/>
        <pt x="569" y="0" on="1"/>
      </contour>
      <contour>
        <pt x="269" y="307" on="1"/>
        <pt x="430" y="307" on="1"/>
        <pt x="477" y="529" on="1"/>
        <pt x="412" y="529" on="1"/>
      </contour>
    </TTGlyph>
    <TTGlyph name="four.den" xMin="-36" yMin="0" xMax="403" yMax="423">
      <component glyphName="four.small" x="-6" y="0" flags="0x4"/>
    </TTGlyph>
    <TTGlyph name="four.den_tab" xMin="-51" yMin="0" xMax="388" yMax="423">
      <component glyphName="four.small" x="-21" y="0" flags="0x4"/>
    </TTGlyph>
    <TTGlyph name="four.inf" xMin="-62" yMin="-210" xMax="377" yMax="213">
      <component glyphName="four.small" x="-32" y="-210" flags="0x4"/>
    </TTGlyph>
    <TTGlyph name="four.num" xMin="35" yMin="277" xMax="474" yMax="700">
      <component glyphName="four.small" x="65" y="277" flags="0x4"/>
    </TTGlyph>
    <TTGlyph name="four.num_tab" xMin="20" yMin="277" xMax="459" yMax="700">
      <component glyphName="four.small" x="50" y="277" flags="0x4"/>
    </TTGlyph>
    <TTGlyph name="four.osf" xMin="-12" yMin="-95" xMax="695" yMax="605">
      <contour>
        <pt x="323" y="-95" on="1"/>
        <pt x="353" y="43" on="1"/>
        <pt x="-12" y="43" on="1"/>
        <pt x="22" y="199" on="1"/>
        <pt x="280" y="605" on="1"/>
        <pt x="670" y="605" on="1"/>
        <pt x="586" y="210" on="1"/>
        <pt x="695" y="210" on="1"/>
        <pt x="645" y="43" on="1"/>
        <pt x="551" y="43" on="1"/>
        <pt x="521" y="-95" on="1"/>
      </contour>
      <contour>
        <pt x="241" y="206" on="1"/>
        <pt x="392" y="206" on="1"/>
        <pt x="441" y="434" on="1"/>
        <pt x="382" y="434" on="1"/>
      </contour>
    </TTGlyph>
    <TTGlyph name="four.small" xMin="-30" yMin="0" xMax="409" yMax="423">
      <contour>
        <pt x="178" y="0" on="1"/>
        <pt x="194" y="75" on="1"/>
        <pt x="-30" y="75" on="1"/>
        <pt x="-7" y="183" on="1"/>
        <pt x="136" y="423" on="1"/>
        <pt x="408" y="423" on="1"/>
        <pt x="358" y="188" on="1"/>
        <pt x="409" y="188" on="1"/>
        <pt x="379" y="75" on="1"/>
        <pt x="335" y="75" on="1"/>
        <pt x="319" y="0" on="1"/>
      </contour>
      <contour>
        <pt x="139" y="184" on="1"/>
        <pt x="224" y="184" on="1"/>
        <pt x="251" y="310" on="1"/>
        <pt x="211" y="310" on="1"/>
      </contour>
    </TTGlyph>
    <TTGlyph name="four.sup" xMin="59" yMin="361" xMax="498" yMax="784">
      <component glyphName="four.small" x="89" y="361" flags="0x4"/>
    </TTGlyph>
    <TTGlyph name="four.tab" xMin="-7" yMin="0" xMax="712" yMax="700">
      <contour>
        <pt x="349" y="0" on="1"/>
        <pt x="376" y="125" on="1"/>
        <pt x="-7" y="125" on="1"/>
        <pt x="27" y="285" on="1"/>
        <pt x="282" y="700" on="1"/>
        <pt x="701" y="700" on="1"/>
        <pt x="616" y="302" on="1"/>
        <pt x="712" y="302" on="1"/>
        <pt x="662" y="125" on="1"/>
        <pt x="579" y="125" on="1"/>
        <pt x="552" y="0" on="1"/>
      </contour>
      <contour>
        <pt x="257" y="298" on="1"/>
        <pt x="419" y="298" on="1"/>
        <pt x="468" y="528" on="1"/>
        <pt x="393" y="528" on="1"/>
      </contour>
    </TTGlyph>
    <TTGlyph name="fraction" xMin="-239" yMin="0" xMax="546" yMax="700">
      <contour>
        <pt x="-239" y="1" on="1"/>
        <pt x="393" y="700" on="1"/>
        <pt x="546" y="700" on="1"/>
        <pt x="546" y="699" on="1"/>
        <pt x="-86" y="0" on="1"/>
        <pt x="-239" y="0" on="1"/>
      </contour>
    </TTGlyph>
    <TTGlyph name="fraction.tab" xMin="-283" yMin="0" xMax="502" yMax="700">
      <contour>
        <pt x="-283" y="1" on="1"/>
        <pt x="349" y="700" on="1"/>
        <pt x="502" y="700" on="1"/>
        <pt x="502" y="699" on="1"/>
        <pt x="-130" y="0" on="1"/>
        <pt x="-283" y="0" on="1"/>
      </contour>
    </TTGlyph>
    <TTGlyph name="g" xMin="-61" yMin="-240" xMax="713" yMax="655">
      <contour>
        <pt x="260" y="-240" on="1"/>
        <pt x="188" y="-240" on="0"/>
        <pt x="69" y="-218" on="0"/>
        <pt x="-15" y="-177" on="0"/>
        <pt x="-61" y="-119" on="0"/>
        <pt x="-61" y="-84" on="1"/>
        <pt x="-61" y="-40" on="0"/>
        <pt x="6" y="29" on="0"/>
        <pt x="60" y="45" on="1"/>
        <pt x="132" y="210" on="1"/>
        <pt x="91" y="235" on="0"/>
        <pt x="49" y="307" on="0"/>
        <pt x="49" y="350" on="1"/>
        <pt x="49" y="396" on="0"/>
        <pt x="83" y="478" on="0"/>
        <pt x="153" y="540" on="0"/>
        <pt x="262" y="576" on="0"/>
        <pt x="336" y="576" on="1"/>
        <pt x="359" y="576" on="0"/>
        <pt x="399" y="572" on="0"/>
        <pt x="417" y="568" on="1"/>
        <pt x="483" y="655" on="1"/>
        <pt x="713" y="655" on="1"/>
        <pt x="710" y="639" on="1"/>
        <pt x="549" y="501" on="1"/>
        <pt x="577" y="477" on="0"/>
        <pt x="603" y="419" on="0"/>
        <pt x="603" y="382" on="1"/>
        <pt x="603" y="341" on="0"/>
        <pt x="569" y="263" on="0"/>
        <pt x="499" y="204" on="0"/>
        <pt x="390" y="168" on="0"/>
        <pt x="315" y="168" on="1"/>
        <pt x="304" y="168" on="0"/>
        <pt x="283" y="169" on="0"/>
        <pt x="273" y="170" on="1"/>
        <pt x="257" y="128" on="1"/>
        <pt x="416" y="104" on="0"/>
        <pt x="580" y="16" on="0"/>
        <pt x="580" y="-60" on="1"/>
        <pt x="580" y="-139" on="0"/>
        <pt x="411" y="-240" on="0"/>
      </contour>
      <contour>
        <pt x="319" y="294" on="1"/>
        <pt x="358" y="295" on="0"/>
        <pt x="400" y="348" on="0"/>
        <pt x="400" y="384" on="1"/>
        <pt x="400" y="415" on="0"/>
        <pt x="363" y="448" on="0"/>
        <pt x="332" y="447" on="1"/>
        <pt x="293" y="446" on="0"/>
        <pt x="252" y="393" on="0"/>
        <pt x="252" y="357" on="1"/>
        <pt x="252" y="326" on="0"/>
        <pt x="288" y="293" on="0"/>
      </contour>
      <contour>
        <pt x="283" y="-118" on="1"/>
        <pt x="337" y="-118" on="0"/>
        <pt x="385" y="-98" on="0"/>
        <pt x="385" y="-83" on="1"/>
        <pt x="385" y="-58" on="0"/>
        <pt x="252" y="-22" on="0"/>
        <pt x="128" y="-8" on="1"/>
        <pt x="120" y="-16" on="0"/>
        <pt x="110" y="-38" on="0"/>
        <pt x="110" y="-48" on="1"/>
        <pt x="110" y="-66" on="0"/>
        <pt x="142" y="-93" on="0"/>
        <pt x="191" y="-110" on="0"/>
        <pt x="253" y="-118" on="0"/>
      </contour>
    </TTGlyph>
    <TTGlyph name="g.sc" xMin="44" yMin="-21" xMax="719" yMax="623">
      <contour>
        <pt x="447" y="443" on="1"/>
        <pt x="360" y="443" on="0"/>
        <pt x="267" y="345" on="0"/>
        <pt x="267" y="267" on="1"/>
        <pt x="267" y="213" on="0"/>
        <pt x="327" y="149" on="0"/>
        <pt x="393" y="149" on="1"/>
        <pt x="438" y="149" on="0"/>
        <pt x="501" y="186" on="0"/>
        <pt x="508" y="223" on="1"/>
        <pt x="360" y="223" on="1"/>
        <pt x="389" y="358" on="1"/>
        <pt x="719" y="358" on="1"/>
        <pt x="719" y="276" on="0"/>
        <pt x="678" y="126" on="0"/>
        <pt x="624" y="72" on="1"/>
        <pt x="581" y="29" on="0"/>
        <pt x="457" y="-21" on="0"/>
        <pt x="365" y="-21" on="1"/>
        <pt x="289" y="-21" on="0"/>
        <pt x="168" y="19" on="0"/>
        <pt x="87" y="92" on="0"/>
        <pt x="44" y="195" on="0"/>
        <pt x="44" y="258" on="1"/>
        <pt x="44" y="336" on="0"/>
        <pt x="99" y="471" on="0"/>
        <pt x="201" y="568" on="0"/>
        <pt x="347" y="623" on="0"/>
        <pt x="437" y="623" on="1"/>
        <pt x="509" y="623" on="0"/>
        <pt x="632" y="593" on="0"/>
        <pt x="685" y="570" on="1"/>
        <pt x="647" y="391" on="1"/>
        <pt x="646" y="391" on="1"/>
        <pt x="603" y="413" on="0"/>
        <pt x="501" y="443" on="0"/>
      </contour>
    </TTGlyph>
    <TTGlyph name="gbreve" xMin="-61" yMin="-240" xMax="713" yMax="904">
      <component glyphName="g" x="0" y="0" flags="0x204"/>
      <component glyphName="breve" x="42" y="59" flags="0x4"/>
    </TTGlyph>
    <TTGlyph name="gbreve.sc" xMin="44" yMin="-21" xMax="719" yMax="910">
      <component glyphName="g.sc" x="0" y="0" flags="0x204"/>
      <component glyphName="breve" x="129" y="65" flags="0x4"/>
    </TTGlyph>
    <TTGlyph name="gdotaccent" xMin="-61" yMin="-240" xMax="713" yMax="886">
      <component glyphName="g" x="0" y="0" flags="0x204"/>
      <component glyphName="dotaccent" x="45" y="59" flags="0x4"/>
    </TTGlyph>
    <TTGlyph name="gdotaccent.sc" xMin="44" yMin="-21" xMax="719" yMax="892">
      <component glyphName="g.sc" x="0" y="0" flags="0x204"/>
      <component glyphName="dotaccent" x="132" y="65" flags="0x4"/>
    </TTGlyph>
    <TTGlyph name="germandbls" xMin="35" yMin="-15" xMax="828" yMax="800">
      <contour>
        <pt x="35" y="396" on="1"/>
        <pt x="99" y="559" on="1"/>
        <pt x="187" y="559" on="1"/>
        <pt x="222" y="666" on="0"/>
        <pt x="387" y="800" on="0"/>
        <pt x="522" y="800" on="1"/>
        <pt x="584" y="800" on="0"/>
        <pt x="684" y="766" on="0"/>
        <pt x="759" y="707" on="0"/>
        <pt x="813" y="626" on="0"/>
        <pt x="828" y="579" on="1"/>
        <pt x="645" y="400" on="1"/>
        <pt x="705" y="363" on="0"/>
        <pt x="783" y="274" on="0"/>
        <pt x="783" y="211" on="1"/>
        <pt x="783" y="111" on="0"/>
        <pt x="648" y="-15" on="0"/>
        <pt x="535" y="-15" on="1"/>
        <pt x="486" y="-15" on="0"/>
        <pt x="391" y="4" on="0"/>
        <pt x="350" y="23" on="1"/>
        <pt x="385" y="186" on="1"/>
        <pt x="386" y="186" on="1"/>
        <pt x="412" y="172" on="0"/>
        <pt x="479" y="150" on="0"/>
        <pt x="507" y="150" on="1"/>
        <pt x="544" y="150" on="0"/>
        <pt x="575" y="193" on="0"/>
        <pt x="575" y="215" on="1"/>
        <pt x="575" y="240" on="0"/>
        <pt x="539" y="276" on="0"/>
        <pt x="489" y="303" on="1"/>
        <pt x="444" y="328" on="1"/>
        <pt x="465" y="431" on="1"/>
        <pt x="604" y="573" on="1"/>
        <pt x="590" y="595" on="0"/>
        <pt x="546" y="618" on="0"/>
        <pt x="520" y="618" on="1"/>
        <pt x="470" y="618" on="0"/>
        <pt x="404" y="546" on="0"/>
        <pt x="389" y="476" on="1"/>
        <pt x="288" y="0" on="1"/>
        <pt x="65" y="0" on="1"/>
        <pt x="149" y="396" on="1"/>
      </contour>
    </TTGlyph>
    <TTGlyph name="germandbls.sc" xMin="8" yMin="-20" xMax="1302" yMax="624">
      <component glyphName="s.sc" x="0" y="0" flags="0x4"/>
      <component glyphName="s.sc" x="657" y="0" flags="0x4"/>
    </TTGlyph>
    <TTGlyph name="grave" xMin="155" yMin="630" xMax="481" yMax="815">
      <contour>
        <pt x="481" y="630" on="1"/>
        <pt x="309" y="630" on="1"/>
        <pt x="155" y="798" on="1"/>
        <pt x="158" y="815" on="1"/>
        <pt x="382" y="815" on="1"/>
      </contour>
    </TTGlyph>
    <TTGlyph name="greater" xMin="32" yMin="18" xMax="619" yMax="681">
      <contour>
        <pt x="173" y="681" on="1"/>
        <pt x="619" y="455" on="1"/>
        <pt x="575" y="245" on="1"/>
        <pt x="32" y="18" on="1"/>
        <pt x="81" y="237" on="1"/>
        <pt x="383" y="361" on="1"/>
        <pt x="131" y="484" on="1"/>
      </contour>
    </TTGlyph>
    <TTGlyph name="greater.tab" xMin="74" yMin="18" xMax="661" yMax="681">
      <component glyphName="greater" x="42" y="0" flags="0x4"/>
    </TTGlyph>
</ttFont>
